<svg xmlns="http://www.w3.org/2000/svg" xmlns:xlink="http://www.w3.org/1999/xlink" width="500" zoomAndPan="magnify" viewBox="0 0 375 374.999991" height="500" preserveAspectRatio="xMidYMid meet" version="1.0"><path fill="#231f20" d="M 176.101562 222.632812 C 181.15625 233.492188 174 239.882812 165.207031 242.847656 C 158.394531 245.148438 151.15625 244.828125 144.21875 243.339844 C 129.867188 240.246094 117.757812 231.050781 105.75 223.132812 C 86.402344 210.375 65.027344 197.929688 42.351562 192.320312 C 34.335938 190.339844 25.558594 189.480469 17.683594 192.460938 C 10.230469 195.289062 5.765625 202.394531 4.046875 209.929688 C 2.5625 216.429688 4.273438 225.300781 9.761719 229.4375 C 16.152344 234.253906 23.921875 227.914062 24.394531 221.152344 C 24.730469 216.410156 22.941406 212.050781 17.714844 211.765625 C 17.1875 211.738281 17.097656 215.390625 17.800781 215.613281 C 20.113281 216.351562 22.253906 217.316406 23.332031 219.625 C 24.042969 221.136719 21.070312 223.800781 20.101562 224.589844 C 16.234375 227.746094 10.871094 226.492188 7.78125 223.074219 C -0.0429688 214.410156 8.351562 201.363281 16.945312 197.230469 C 31.777344 190.097656 51.328125 198.699219 65.09375 204.667969 C 78.691406 210.566406 91.644531 217.964844 104.132812 225.925781 C 115.125 232.9375 125.402344 240.636719 137.882812 244.851562 C 149.179688 248.667969 162.710938 248.679688 172.710938 241.476562 C 178.609375 237.226562 179.503906 227.585938 176.226562 221.433594 C 176.085938 221.171875 175.992188 222.382812 176.101562 222.632812 " fill-opacity="1" fill-rule="nonzero"/><path fill="#231f20" d="M 119.921875 234.9375 C 115.402344 229.34375 110.054688 224.371094 106.601562 217.984375 C 103.605469 212.445312 103.492188 204.535156 110.113281 202.367188 C 112.109375 201.707031 118.117188 205.074219 114.960938 207.078125 C 113.972656 207.703125 112.367188 206.542969 111.484375 206.21875 C 111.15625 206.09375 111.261719 208.625 111.472656 208.933594 C 115.023438 214.15625 117.359375 207.996094 116.8125 204.359375 C 115.808594 197.765625 107.535156 199.039062 105.261719 204.171875 C 99.765625 216.566406 112.132812 227.796875 119.898438 235.550781 C 119.929688 235.582031 120.015625 235.054688 119.921875 234.9375 " fill-opacity="1" fill-rule="nonzero"/><path fill="#231f20" d="M 128.691406 239.75 C 117.117188 231.871094 105.636719 222.671875 91.359375 220.960938 C 81.054688 219.726562 66.804688 223.277344 65.363281 235.441406 C 64.683594 241.183594 69.796875 256.457031 77.832031 250.625 C 81.789062 247.75 83.792969 238.046875 76.648438 238.253906 C 76.101562 238.273438 76.101562 241.808594 76.738281 241.878906 C 79.78125 242.214844 81.144531 242.871094 79.351562 245.355469 C 77.828125 247.476562 75.300781 248.441406 72.800781 247.863281 C 67.082031 246.539062 65.179688 237.085938 67.289062 232.910156 C 69.222656 229.101562 73.371094 226.835938 77.175781 225.371094 C 85.484375 222.171875 95.332031 223.570312 103.410156 226.738281 C 112.425781 230.269531 119.59375 237.292969 128.6875 240.667969 C 128.746094 240.6875 128.84375 239.851562 128.691406 239.75 " fill-opacity="1" fill-rule="nonzero"/><path fill="#231f20" d="M 200.15625 221.367188 C 197.1875 226.898438 197.800781 234.730469 201.707031 239.609375 C 209.132812 248.878906 225.25 248.277344 235.386719 245.78125 C 248.566406 242.542969 259.566406 234.234375 270.738281 226.957031 C 283.214844 218.824219 296.242188 211.515625 309.800781 205.375 C 324.015625 198.929688 342.152344 191.230469 357.828125 196.535156 C 367.476562 199.800781 374.917969 211.789062 369.644531 221.429688 C 367.351562 225.621094 363.09375 227.078125 358.667969 225.863281 C 356.359375 225.230469 354.507812 223.382812 353.410156 221.324219 C 351.761719 218.21875 356.554688 216.289062 358.664062 215.613281 C 359.351562 215.394531 359.121094 211.734375 358.570312 211.765625 C 351.566406 212.148438 350.824219 219.90625 353.011719 225.246094 C 356.429688 233.597656 366.828125 231.660156 370.507812 224.898438 C 373.972656 218.539062 373.039062 210.511719 370.332031 204.117188 C 367.226562 196.777344 360.820312 192.367188 353.179688 190.976562 C 334.910156 187.644531 314.183594 198.578125 298.550781 206.632812 C 285.839844 213.179688 273.652344 220.800781 261.914062 228.972656 C 250.285156 237.070312 236.636719 244.167969 222.234375 244.546875 C 210.5 244.851562 193.199219 237.96875 200.300781 222.628906 C 200.441406 222.332031 200.160156 221.359375 200.15625 221.367188 " fill-opacity="1" fill-rule="nonzero"/><path fill="#231f20" d="M 256.492188 235.550781 C 264.355469 227.742188 276.597656 216.621094 271.070312 204.167969 C 268.898438 199.277344 259.996094 197.59375 259.527344 204.375 C 259.285156 207.847656 261.382812 214.335938 264.96875 208.929688 C 265.175781 208.617188 265.175781 206.089844 264.824219 206.21875 C 263.875 206.558594 263.054688 207.011719 262.066406 207.214844 C 260.640625 207.125 260.210938 206.332031 260.78125 204.824219 C 261.566406 203.730469 262.609375 202.9375 263.914062 202.453125 C 265.796875 201.570312 268.058594 202.976562 269.410156 204.082031 C 272.984375 207.011719 271.890625 212.9375 270.308594 216.792969 C 267.433594 223.804688 261.089844 229.148438 256.441406 234.9375 C 256.347656 235.054688 256.460938 235.582031 256.492188 235.550781 " fill-opacity="1" fill-rule="nonzero"/><path fill="#231f20" d="M 247.714844 240.667969 C 256.40625 237.464844 263.507812 231.097656 271.894531 227.222656 C 280.292969 223.34375 290.484375 222.398438 299.273438 225.371094 C 302.992188 226.625 306.308594 228.871094 308.625 232.054688 C 312.171875 236.914062 309.289062 244.976562 304.144531 247.621094 C 301.738281 248.859375 299.058594 247.574219 297.339844 245.828125 C 294.738281 243.179688 296.636719 242.222656 299.726562 241.878906 C 300.332031 241.8125 300.222656 238.273438 299.640625 238.253906 C 292.742188 238.054688 294.574219 247.207031 298.125 250.261719 C 306.1875 257.195312 311.667969 241.3125 310.972656 235.425781 C 309.597656 223.78125 296.484375 220.230469 286.539062 220.820312 C 271.699219 221.695312 259.480469 231.652344 247.664062 239.75 C 247.519531 239.847656 247.640625 240.691406 247.714844 240.667969 " fill-opacity="1" fill-rule="nonzero"/><path fill="#38326e" d="M 176.101562 118.378906 C 181.15625 129.179688 174 135.539062 165.207031 138.488281 C 158.394531 140.773438 151.15625 140.457031 144.21875 138.976562 C 129.867188 135.902344 117.757812 126.753906 105.75 118.878906 C 86.402344 106.1875 65.027344 93.8125 42.351562 88.230469 C 34.335938 86.261719 25.558594 85.40625 17.683594 88.375 C 10.230469 91.183594 5.765625 98.253906 4.046875 105.746094 C 2.5625 112.210938 4.273438 121.035156 9.761719 125.148438 C 16.152344 129.941406 23.921875 123.636719 24.394531 116.90625 C 24.730469 112.191406 22.941406 107.855469 17.714844 107.570312 C 17.1875 107.546875 17.097656 111.175781 17.800781 111.398438 C 20.113281 112.136719 22.253906 113.09375 23.332031 115.386719 C 24.042969 116.894531 21.070312 119.542969 20.101562 120.328125 C 16.234375 123.46875 10.871094 122.21875 7.78125 118.820312 C -0.0429688 110.203125 8.351562 97.226562 16.945312 93.117188 C 31.777344 86.019531 51.328125 94.578125 65.09375 100.511719 C 78.691406 106.378906 91.644531 113.738281 104.132812 121.660156 C 115.125 128.632812 125.402344 136.289062 137.882812 140.480469 C 149.179688 144.277344 162.710938 144.285156 172.710938 137.125 C 178.609375 132.898438 179.503906 123.308594 176.226562 117.191406 C 176.085938 116.925781 175.992188 118.132812 176.101562 118.378906 " fill-opacity="1" fill-rule="nonzero"/><path fill="#38326e" d="M 119.921875 130.621094 C 115.402344 125.054688 110.054688 120.113281 106.601562 113.761719 C 103.605469 108.246094 103.492188 100.382812 110.113281 98.222656 C 112.109375 97.570312 118.117188 100.917969 114.960938 102.910156 C 113.972656 103.53125 112.367188 102.378906 111.484375 102.054688 C 111.15625 101.933594 111.261719 104.449219 111.472656 104.757812 C 115.023438 109.949219 117.359375 103.824219 116.8125 100.207031 C 115.808594 93.648438 107.535156 94.914062 105.261719 100.019531 C 99.765625 112.347656 112.132812 123.515625 119.898438 131.230469 C 119.929688 131.257812 120.015625 130.734375 119.921875 130.621094 " fill-opacity="1" fill-rule="nonzero"/><path fill="#38326e" d="M 128.691406 135.40625 C 117.117188 127.566406 105.636719 118.421875 91.359375 116.71875 C 81.054688 115.492188 66.804688 119.023438 65.363281 131.121094 C 64.683594 136.832031 69.796875 152.027344 77.832031 146.222656 C 81.789062 143.363281 83.792969 133.710938 76.648438 133.921875 C 76.101562 133.9375 76.101562 137.457031 76.738281 137.527344 C 79.78125 137.855469 81.144531 138.511719 79.351562 140.984375 C 77.828125 143.089844 75.300781 144.054688 72.800781 143.476562 C 67.082031 142.160156 65.179688 132.757812 67.289062 128.605469 C 69.222656 124.8125 73.371094 122.5625 77.175781 121.105469 C 85.484375 117.921875 95.332031 119.3125 103.410156 122.464844 C 112.425781 125.976562 119.59375 132.960938 128.6875 136.316406 C 128.746094 136.339844 128.84375 135.507812 128.691406 135.40625 " fill-opacity="1" fill-rule="nonzero"/><path fill="#38326e" d="M 200.15625 117.125 C 197.1875 122.625 197.800781 130.414062 201.707031 135.265625 C 209.132812 144.488281 225.25 143.890625 235.386719 141.40625 C 248.566406 138.183594 259.566406 129.921875 270.738281 122.679688 C 283.214844 114.59375 296.242188 107.320312 309.800781 101.214844 C 324.015625 94.808594 342.152344 87.148438 357.828125 92.425781 C 367.476562 95.671875 374.917969 107.597656 369.644531 117.183594 C 367.351562 121.351562 363.09375 122.804688 358.667969 121.59375 C 356.359375 120.96875 354.507812 119.128906 353.410156 117.078125 C 351.761719 113.992188 356.554688 112.074219 358.664062 111.398438 C 359.351562 111.179688 359.121094 107.542969 358.570312 107.570312 C 351.566406 107.953125 350.824219 115.671875 353.011719 120.980469 C 356.429688 129.289062 366.828125 127.359375 370.507812 120.636719 C 373.972656 114.308594 373.039062 106.324219 370.332031 99.964844 C 367.226562 92.667969 360.820312 88.28125 353.179688 86.894531 C 334.910156 83.582031 314.183594 94.457031 298.550781 102.46875 C 285.839844 108.980469 273.652344 116.558594 261.914062 124.6875 C 250.285156 132.742188 236.636719 139.800781 222.234375 140.175781 C 210.5 140.480469 193.199219 133.632812 200.300781 118.375 C 200.441406 118.082031 200.160156 117.117188 200.15625 117.125 " fill-opacity="1" fill-rule="nonzero"/><path fill="#38326e" d="M 256.492188 131.230469 C 264.355469 123.464844 276.597656 112.402344 271.070312 100.015625 C 268.898438 95.152344 259.996094 93.476562 259.527344 100.222656 C 259.285156 103.675781 261.382812 110.128906 264.96875 104.753906 C 265.175781 104.441406 265.175781 101.929688 264.824219 102.054688 C 263.875 102.394531 263.054688 102.84375 262.066406 103.046875 C 260.640625 102.957031 260.210938 102.167969 260.78125 100.667969 C 261.566406 99.578125 262.609375 98.792969 263.914062 98.308594 C 265.796875 97.429688 268.058594 98.832031 269.410156 99.929688 C 272.984375 102.84375 271.890625 108.738281 270.308594 112.574219 C 267.433594 119.546875 261.089844 124.863281 256.441406 130.621094 C 256.347656 130.734375 256.460938 131.261719 256.492188 131.230469 " fill-opacity="1" fill-rule="nonzero"/><path fill="#38326e" d="M 247.714844 136.316406 C 256.40625 133.132812 263.507812 126.796875 271.894531 122.949219 C 280.292969 119.089844 290.484375 118.148438 299.273438 121.105469 C 302.992188 122.351562 306.308594 124.585938 308.625 127.753906 C 312.171875 132.585938 309.289062 140.601562 304.144531 143.234375 C 301.738281 144.464844 299.058594 143.191406 297.339844 141.449219 C 294.738281 138.820312 296.636719 137.863281 299.726562 137.527344 C 300.332031 137.457031 300.222656 133.9375 299.640625 133.921875 C 292.742188 133.71875 294.574219 142.824219 298.125 145.863281 C 306.1875 152.757812 311.667969 136.960938 310.972656 131.105469 C 309.597656 119.523438 296.484375 115.992188 286.539062 116.578125 C 271.699219 117.449219 259.480469 127.351562 247.664062 135.40625 C 247.519531 135.503906 247.640625 136.34375 247.714844 136.316406 " fill-opacity="1" fill-rule="nonzero"/></svg>