<svg xmlns="http://www.w3.org/2000/svg" xmlns:xlink="http://www.w3.org/1999/xlink" width="500" zoomAndPan="magnify" viewBox="0 0 375 374.999991" height="500" preserveAspectRatio="xMidYMid meet" version="1.0"><defs><g/></defs><rect x="-37.5" width="450" fill="#ffffff" y="-37.499999" height="449.999989" fill-opacity="1"/><rect x="-37.5" width="450" fill="#000000" y="-37.499999" height="449.999989" fill-opacity="1"/><g fill="#ffffff" fill-opacity="1"><g transform="translate(79.166015, 133.874991)"><g><path d="M 4.609375 0 L 4.609375 -34.40625 L 9.28125 -34.40625 L 9.28125 0 Z M 4.609375 0 "/></g></g></g><g fill="#ffffff" fill-opacity="1"><g transform="translate(93.055445, 133.874991)"><g><path d="M 33.34375 0 L 33.34375 -22.953125 C 33.34375 -25.492188 33.414062 -27.9375 33.5625 -30.28125 C 32.769531 -27.363281 32.054688 -25.082031 31.421875 -23.4375 L 22.53125 0 L 19.265625 0 L 10.25 -23.4375 L 8.890625 -27.59375 L 8.078125 -30.28125 L 8.15625 -27.5625 L 8.25 -22.953125 L 8.25 0 L 4.109375 0 L 4.109375 -34.40625 L 10.234375 -34.40625 L 19.390625 -10.546875 C 19.710938 -9.585938 20.023438 -8.554688 20.328125 -7.453125 C 20.628906 -6.359375 20.828125 -5.566406 20.921875 -5.078125 C 21.054688 -5.734375 21.328125 -6.722656 21.734375 -8.046875 C 22.148438 -9.367188 22.429688 -10.203125 22.578125 -10.546875 L 31.5625 -34.40625 L 37.546875 -34.40625 L 37.546875 0 Z M 33.34375 0 "/></g></g></g><g fill="#ffffff" fill-opacity="1"><g transform="translate(134.699325, 133.874991)"><g><path d="M 28.484375 0 L 24.5625 -10.0625 L 8.890625 -10.0625 L 4.9375 0 L 0.09375 0 L 14.140625 -34.40625 L 19.4375 -34.40625 L 33.25 0 Z M 16.71875 -30.890625 L 16.5 -30.203125 C 16.09375 -28.847656 15.492188 -27.113281 14.703125 -25 L 10.296875 -13.703125 L 23.171875 -13.703125 L 18.75 -25.046875 C 18.289062 -26.171875 17.835938 -27.441406 17.390625 -28.859375 Z M 16.71875 -30.890625 "/></g></g></g><g fill="#ffffff" fill-opacity="1"><g transform="translate(168.043721, 133.874991)"><g><path d="M 2.515625 -17.359375 C 2.515625 -22.941406 4.007812 -27.257812 7 -30.3125 C 10 -33.375 14.207031 -34.90625 19.625 -34.90625 C 23.4375 -34.90625 26.53125 -34.265625 28.90625 -32.984375 C 31.28125 -31.703125 33.113281 -29.644531 34.40625 -26.8125 L 29.953125 -25.484375 C 28.972656 -27.441406 27.625 -28.867188 25.90625 -29.765625 C 24.195312 -30.660156 22.0625 -31.109375 19.5 -31.109375 C 15.53125 -31.109375 12.492188 -29.90625 10.390625 -27.5 C 8.296875 -25.101562 7.25 -21.722656 7.25 -17.359375 C 7.25 -13.015625 8.363281 -9.582031 10.59375 -7.0625 C 12.820312 -4.550781 15.90625 -3.296875 19.84375 -3.296875 C 22.09375 -3.296875 24.1875 -3.632812 26.125 -4.3125 C 28.070312 -5 29.648438 -5.929688 30.859375 -7.109375 L 30.859375 -13.3125 L 20.578125 -13.3125 L 20.578125 -17.21875 L 35.15625 -17.21875 L 35.15625 -5.34375 C 33.332031 -3.488281 31.097656 -2.050781 28.453125 -1.03125 C 25.804688 -0.0195312 22.9375 0.484375 19.84375 0.484375 C 16.25 0.484375 13.148438 -0.226562 10.546875 -1.65625 C 7.941406 -3.09375 5.953125 -5.15625 4.578125 -7.84375 C 3.203125 -10.539062 2.515625 -13.710938 2.515625 -17.359375 Z M 2.515625 -17.359375 "/></g></g></g><g fill="#ffffff" fill-opacity="1"><g transform="translate(206.929243, 133.874991)"><g><path d="M 4.109375 0 L 4.109375 -34.40625 L 30.203125 -34.40625 L 30.203125 -30.59375 L 8.765625 -30.59375 L 8.765625 -19.5625 L 28.734375 -19.5625 L 28.734375 -15.796875 L 8.765625 -15.796875 L 8.765625 -3.8125 L 31.203125 -3.8125 L 31.203125 0 Z M 4.109375 0 "/></g></g></g><g fill="#ffffff" fill-opacity="1"><g transform="translate(240.27364, 133.874991)"><g><path d="M 33.34375 0 L 33.34375 -22.953125 C 33.34375 -25.492188 33.414062 -27.9375 33.5625 -30.28125 C 32.769531 -27.363281 32.054688 -25.082031 31.421875 -23.4375 L 22.53125 0 L 19.265625 0 L 10.25 -23.4375 L 8.890625 -27.59375 L 8.078125 -30.28125 L 8.15625 -27.5625 L 8.25 -22.953125 L 8.25 0 L 4.109375 0 L 4.109375 -34.40625 L 10.234375 -34.40625 L 19.390625 -10.546875 C 19.710938 -9.585938 20.023438 -8.554688 20.328125 -7.453125 C 20.628906 -6.359375 20.828125 -5.566406 20.921875 -5.078125 C 21.054688 -5.734375 21.328125 -6.722656 21.734375 -8.046875 C 22.148438 -9.367188 22.429688 -10.203125 22.578125 -10.546875 L 31.5625 -34.40625 L 37.546875 -34.40625 L 37.546875 0 Z M 33.34375 0 "/></g></g></g><g fill="#ffffff" fill-opacity="1"><g transform="translate(281.923814, 133.874991)"><g/></g></g><g fill="#ffffff" fill-opacity="1"><g transform="translate(145.822261, 203.624987)"><g><path d="M 33.71875 -17.546875 C 33.71875 -14.003906 33.023438 -10.898438 31.640625 -8.234375 C 30.253906 -5.578125 28.289062 -3.539062 25.75 -2.125 C 23.21875 -0.707031 20.289062 0 16.96875 0 L 4.109375 0 L 4.109375 -34.40625 L 15.484375 -34.40625 C 21.304688 -34.40625 25.800781 -32.941406 28.96875 -30.015625 C 32.132812 -27.097656 33.71875 -22.941406 33.71875 -17.546875 Z M 29.03125 -17.546875 C 29.03125 -21.816406 27.859375 -25.070312 25.515625 -27.3125 C 23.179688 -29.550781 19.800781 -30.671875 15.375 -30.671875 L 8.765625 -30.671875 L 8.765625 -3.734375 L 16.4375 -3.734375 C 18.957031 -3.734375 21.171875 -4.285156 23.078125 -5.390625 C 24.992188 -6.503906 26.460938 -8.101562 27.484375 -10.1875 C 28.515625 -12.269531 29.03125 -14.722656 29.03125 -17.546875 Z M 29.03125 -17.546875 "/></g></g></g><g fill="#ffffff" fill-opacity="1"><g transform="translate(181.925015, 203.624987)"><g><path d="M 28.484375 0 L 24.5625 -10.0625 L 8.890625 -10.0625 L 4.9375 0 L 0.09375 0 L 14.140625 -34.40625 L 19.4375 -34.40625 L 33.25 0 Z M 16.71875 -30.890625 L 16.5 -30.203125 C 16.09375 -28.847656 15.492188 -27.113281 14.703125 -25 L 10.296875 -13.703125 L 23.171875 -13.703125 L 18.75 -25.046875 C 18.289062 -26.171875 17.835938 -27.441406 17.390625 -28.859375 Z M 16.71875 -30.890625 "/></g></g></g><g fill="#ffffff" fill-opacity="1"><g transform="translate(215.279291, 203.624987)"><g/></g></g><g fill="#ffffff" fill-opacity="1"><g transform="translate(97.212889, 273.374982)"><g><path d="M 4.609375 0 L 4.609375 -34.40625 L 9.28125 -34.40625 L 9.28125 0 Z M 4.609375 0 "/></g></g></g><g fill="#ffffff" fill-opacity="1"><g transform="translate(111.102319, 273.374982)"><g><path d="M 2.515625 -17.359375 C 2.515625 -22.941406 4.007812 -27.257812 7 -30.3125 C 10 -33.375 14.207031 -34.90625 19.625 -34.90625 C 23.4375 -34.90625 26.53125 -34.265625 28.90625 -32.984375 C 31.28125 -31.703125 33.113281 -29.644531 34.40625 -26.8125 L 29.953125 -25.484375 C 28.972656 -27.441406 27.625 -28.867188 25.90625 -29.765625 C 24.195312 -30.660156 22.0625 -31.109375 19.5 -31.109375 C 15.53125 -31.109375 12.492188 -29.90625 10.390625 -27.5 C 8.296875 -25.101562 7.25 -21.722656 7.25 -17.359375 C 7.25 -13.015625 8.363281 -9.582031 10.59375 -7.0625 C 12.820312 -4.550781 15.90625 -3.296875 19.84375 -3.296875 C 22.09375 -3.296875 24.1875 -3.632812 26.125 -4.3125 C 28.070312 -5 29.648438 -5.929688 30.859375 -7.109375 L 30.859375 -13.3125 L 20.578125 -13.3125 L 20.578125 -17.21875 L 35.15625 -17.21875 L 35.15625 -5.34375 C 33.332031 -3.488281 31.097656 -2.050781 28.453125 -1.03125 C 25.804688 -0.0195312 22.9375 0.484375 19.84375 0.484375 C 16.25 0.484375 13.148438 -0.226562 10.546875 -1.65625 C 7.941406 -3.09375 5.953125 -5.15625 4.578125 -7.84375 C 3.203125 -10.539062 2.515625 -13.710938 2.515625 -17.359375 Z M 2.515625 -17.359375 "/></g></g></g><g fill="#ffffff" fill-opacity="1"><g transform="translate(149.987841, 273.374982)"><g><path d="M 28.421875 0 L 19.484375 -14.28125 L 8.765625 -14.28125 L 8.765625 0 L 4.109375 0 L 4.109375 -34.40625 L 20.28125 -34.40625 C 24.15625 -34.40625 27.144531 -33.535156 29.25 -31.796875 C 31.363281 -30.066406 32.421875 -27.65625 32.421875 -24.5625 C 32.421875 -22.007812 31.675781 -19.859375 30.1875 -18.109375 C 28.695312 -16.367188 26.644531 -15.269531 24.03125 -14.8125 L 33.796875 0 Z M 27.734375 -24.515625 C 27.734375 -26.515625 27.050781 -28.039062 25.6875 -29.09375 C 24.332031 -30.144531 22.378906 -30.671875 19.828125 -30.671875 L 8.765625 -30.671875 L 8.765625 -17.96875 L 20.015625 -17.96875 C 22.472656 -17.96875 24.375 -18.539062 25.71875 -19.6875 C 27.0625 -20.832031 27.734375 -22.441406 27.734375 -24.515625 Z M 27.734375 -24.515625 "/></g></g></g><g fill="#ffffff" fill-opacity="1"><g transform="translate(186.090595, 273.374982)"><g><path d="M 4.109375 0 L 4.109375 -34.40625 L 30.203125 -34.40625 L 30.203125 -30.59375 L 8.765625 -30.59375 L 8.765625 -19.5625 L 28.734375 -19.5625 L 28.734375 -15.796875 L 8.765625 -15.796875 L 8.765625 -3.8125 L 31.203125 -3.8125 L 31.203125 0 Z M 4.109375 0 "/></g></g></g><g fill="#ffffff" fill-opacity="1"><g transform="translate(219.434992, 273.374982)"><g><path d="M 11.15625 0.484375 C 5.332031 0.484375 1.875 -2.523438 0.78125 -8.546875 L 5.34375 -9.296875 C 5.632812 -7.410156 6.289062 -5.9375 7.3125 -4.875 C 8.34375 -3.820312 9.632812 -3.296875 11.1875 -3.296875 C 12.875 -3.296875 14.207031 -3.875 15.1875 -5.03125 C 16.164062 -6.195312 16.65625 -7.90625 16.65625 -10.15625 L 16.65625 -30.59375 L 10.03125 -30.59375 L 10.03125 -34.40625 L 21.296875 -34.40625 L 21.296875 -10.25 C 21.296875 -6.914062 20.390625 -4.289062 18.578125 -2.375 C 16.773438 -0.46875 14.300781 0.484375 11.15625 0.484375 Z M 11.15625 0.484375 "/></g></g></g><g fill="#ffffff" fill-opacity="1"><g transform="translate(244.431084, 273.374982)"><g><path d="M 28.484375 0 L 24.5625 -10.0625 L 8.890625 -10.0625 L 4.9375 0 L 0.09375 0 L 14.140625 -34.40625 L 19.4375 -34.40625 L 33.25 0 Z M 16.71875 -30.890625 L 16.5 -30.203125 C 16.09375 -28.847656 15.492188 -27.113281 14.703125 -25 L 10.296875 -13.703125 L 23.171875 -13.703125 L 18.75 -25.046875 C 18.289062 -26.171875 17.835938 -27.441406 17.390625 -28.859375 Z M 16.71875 -30.890625 "/></g></g></g></svg>