<svg xmlns="http://www.w3.org/2000/svg" xmlns:xlink="http://www.w3.org/1999/xlink" width="1920" zoomAndPan="magnify" viewBox="0 0 1440 809.999993" height="1080" preserveAspectRatio="xMidYMid meet" version="1.0"><defs><g/><clipPath id="11156e330a"><path d="M 204.121094 327.734375 L 297 327.734375 L 297 466 L 204.121094 466 Z M 204.121094 327.734375 " clip-rule="nonzero"/></clipPath><clipPath id="8bc5d08c07"><path d="M 242 346 L 294 346 L 294 466.484375 L 242 466.484375 Z M 242 346 " clip-rule="nonzero"/></clipPath><clipPath id="a637e9017d"><path d="M 166.003906 466.710938 L 344.503906 466.710938 L 344.503906 516.960938 L 166.003906 516.960938 Z M 166.003906 466.710938 " clip-rule="nonzero"/></clipPath><clipPath id="2115ed0016"><path d="M 138 289 L 364 289 L 364 484 L 138 484 Z M 138 289 " clip-rule="nonzero"/></clipPath><clipPath id="e038acf77f"><path d="M 429.6875 379.457031 L 255.957031 563.035156 L 81.097656 397.554688 L 254.828125 213.976562 Z M 429.6875 379.457031 " clip-rule="nonzero"/></clipPath><clipPath id="755b5673bf"><path d="M 429.6875 379.457031 L 255.957031 563.035156 L 81.097656 397.554688 L 254.828125 213.976562 Z M 429.6875 379.457031 " clip-rule="nonzero"/></clipPath><clipPath id="b79dadf890"><path d="M 544.40625 452 L 1070 452 L 1070 481 L 544.40625 481 Z M 544.40625 452 " clip-rule="nonzero"/></clipPath></defs><g clip-path="url(#11156e330a)"><path fill="#00a0e3" d="M 252.320312 327.765625 L 261.984375 327.765625 L 261.984375 357.191406 L 296.808594 357.191406 L 296.808594 380.230469 L 269.75 380.230469 C 269.34375 380.003906 268.933594 379.78125 268.53125 379.558594 C 245.1875 366.769531 250.933594 350.351562 252.320312 327.765625 M 238.945312 327.765625 L 250.355469 327.765625 C 246.464844 337.710938 240.777344 349.144531 240.679688 359.832031 C 240.617188 366.640625 242.328125 373.167969 244.640625 379.515625 C 247.515625 387.398438 251.273438 395.164062 254.816406 402.769531 C 266.058594 426.886719 256.425781 445.671875 239.929688 464.105469 L 238.945312 465.210938 L 238.945312 380.230469 L 204.121094 380.230469 L 204.121094 357.191406 L 238.945312 357.191406 Z M 238.945312 327.765625 " fill-opacity="1" fill-rule="evenodd"/></g><g clip-path="url(#8bc5d08c07)"><path fill="#ff6a00" d="M 247.339844 346.023438 C 240.535156 363.417969 246.773438 376.425781 258.300781 401.152344 C 270.152344 426.558594 260.59375 446.789062 242.800781 466.675781 C 282.070312 459.765625 321.730469 413.078125 266.683594 382.925781 C 269.46875 388.550781 271.375 393.992188 272.3125 399.261719 C 261.136719 380.628906 245.648438 373.632812 247.339844 346.023438 " fill-opacity="1" fill-rule="evenodd"/></g><g clip-path="url(#a637e9017d)"><path fill="#00a0e3" d="M 322.148438 514.109375 C 329.039062 513.9375 336.097656 512.945312 343.121094 511.136719 C 343.714844 510.976562 344.203125 510.554688 344.441406 509.984375 C 344.679688 509.417969 344.628906 508.769531 344.324219 508.238281 L 325.070312 475.527344 C 324.6875 474.867188 323.945312 474.496094 323.195312 474.5625 L 317.851562 475.050781 L 317.851562 475.117188 L 317.613281 474.695312 C 317.402344 474.335938 316.964844 474.191406 316.582031 474.378906 C 316.144531 474.589844 315.695312 474.785156 315.234375 474.957031 L 312.574219 470.316406 C 312.363281 469.960938 311.929688 469.816406 311.542969 470 C 306.558594 472.40625 300.449219 472.738281 292.332031 471.03125 C 290.214844 470.582031 288.074219 470.039062 286 469.511719 C 281.636719 468.398438 277.125 467.261719 272.550781 466.945312 C 269.5625 466.746094 266.285156 467.566406 262.804688 469.378906 C 259.59375 471.058594 256.921875 473.214844 255.125 474.894531 C 253.324219 473.214844 250.65625 471.058594 247.441406 469.378906 C 243.976562 467.566406 240.699219 466.746094 237.695312 466.945312 C 233.109375 467.25 228.613281 468.398438 224.25 469.511719 C 222.171875 470.039062 220.03125 470.582031 217.914062 471.03125 C 209.796875 472.738281 203.6875 472.40625 198.703125 470 C 198.332031 469.816406 197.882812 469.960938 197.671875 470.316406 L 195.054688 474.945312 C 194.589844 474.761719 194.140625 474.574219 193.707031 474.363281 C 193.335938 474.179688 192.886719 474.324219 192.675781 474.679688 L 192.449219 475.078125 L 192.449219 475.039062 L 187.503906 474.550781 C 186.738281 474.46875 185.996094 474.851562 185.613281 475.515625 L 166.363281 508.226562 C 166.058594 508.742188 166.003906 509.375 166.230469 509.945312 C 166.453125 510.515625 166.917969 510.9375 167.5 511.109375 C 177.136719 514.019531 186.777344 515.289062 196.152344 514.890625 C 204.324219 514.546875 211.582031 513 217.980469 511.625 C 228.625 509.351562 237.023438 507.566406 244.230469 512.285156 C 245.84375 513.34375 247.324219 514.664062 248.59375 516.214844 C 248.960938 516.664062 249.519531 516.925781 250.113281 516.925781 L 259.367188 516.925781 C 259.9375 516.925781 260.464844 516.6875 260.847656 516.265625 C 262.582031 514.308594 264.566406 512.667969 266.773438 511.414062 C 274.585938 506.917969 282.945312 508.636719 293.523438 510.816406 C 301.613281 512.484375 310.832031 514.375 322.148438 514.109375 Z M 316.609375 476.097656 L 318.207031 478.898438 L 318.207031 478.964844 L 318.234375 478.964844 L 333.679688 505.953125 C 327.226562 508.109375 319.398438 508.34375 309.136719 506.691406 C 306.109375 506.203125 302.605469 505.476562 298.917969 504.710938 C 292.082031 503.28125 285.019531 501.800781 279.320312 501.507812 C 274.667969 501.273438 269.734375 502.144531 265.4375 503.980469 C 262.355469 505.292969 259.671875 507.0625 257.492188 509.191406 C 262.289062 499.644531 271.402344 497.898438 278.660156 498.269531 C 284.265625 498.5625 289.464844 499.632812 294.976562 500.769531 C 297.886719 501.363281 300.886719 501.984375 303.929688 502.476562 C 304.5625 502.582031 305.210938 502.6875 305.859375 502.792969 C 314.058594 504.128906 322.546875 505.515625 330.09375 502.738281 C 330.308594 502.660156 330.480469 502.488281 330.558594 502.261719 C 330.636719 502.050781 330.613281 501.800781 330.503906 501.601562 L 316.039062 476.332031 C 316.238281 476.253906 316.421875 476.175781 316.609375 476.097656 Z M 272.472656 468.519531 C 276.914062 468.824219 281.34375 469.949219 285.640625 471.03125 C 287.730469 471.5625 289.898438 472.117188 292.042969 472.566406 C 300.160156 474.269531 306.402344 474.007812 311.597656 471.71875 L 328.679688 501.5625 C 321.726562 503.785156 313.804688 502.488281 306.125 501.230469 C 305.476562 501.125 304.828125 501.019531 304.191406 500.914062 C 301.179688 500.4375 298.203125 499.816406 295.308594 499.222656 C 289.992188 498.125 284.492188 496.988281 278.753906 496.683594 C 273.332031 496.40625 268.597656 497.332031 264.695312 499.433594 C 260.796875 501.535156 257.808594 504.789062 255.785156 509.125 L 255.957031 476.308594 C 258.296875 474.085938 265.398438 468.042969 272.472656 468.519531 Z M 198.71875 471.71875 C 203.898438 474.007812 210.140625 474.269531 218.273438 472.566406 C 220.429688 472.117188 222.582031 471.5625 224.671875 471.03125 C 228.957031 469.949219 233.398438 468.808594 237.84375 468.519531 C 244.917969 468.042969 252.003906 474.074219 254.371094 476.308594 L 254.199219 508.847656 C 252.226562 504.261719 249.292969 500.941406 245.445312 498.972656 C 241.703125 497.054688 237.523438 496.628906 234.113281 496.628906 C 233.199219 496.628906 232.339844 496.65625 231.5625 496.695312 C 225.824219 496.988281 220.324219 498.125 215.007812 499.234375 C 212.125 499.832031 209.136719 500.453125 206.132812 500.929688 C 205.488281 501.035156 204.851562 501.140625 204.203125 501.246094 C 196.535156 502.5 188.601562 503.796875 181.648438 501.574219 Z M 193.691406 476.097656 C 193.878906 476.175781 194.074219 476.253906 194.261719 476.332031 L 179.796875 501.617188 C 179.675781 501.8125 179.664062 502.050781 179.742188 502.277344 C 179.820312 502.5 179.992188 502.660156 180.207031 502.753906 C 187.753906 505.542969 196.246094 504.152344 204.441406 502.804688 C 205.089844 502.699219 205.738281 502.59375 206.371094 502.488281 C 209.414062 502 212.414062 501.378906 215.324219 500.78125 C 220.824219 499.644531 226.019531 498.5625 231.640625 498.285156 C 239.242188 497.886719 248.222656 498.945312 252.757812 509.507812 C 250.550781 507.234375 247.8125 505.355469 244.664062 503.996094 C 240.460938 502.15625 235.59375 501.285156 230.964844 501.523438 C 225.253906 501.8125 218.195312 503.292969 211.371094 504.722656 C 207.667969 505.488281 204.175781 506.230469 201.148438 506.707031 C 190.890625 508.34375 183.046875 508.121094 176.609375 505.964844 L 192.050781 478.976562 L 192.066406 478.976562 L 192.066406 478.9375 Z M 251.011719 513 C 249.625 511.453125 248.078125 510.105469 246.382812 508.992188 C 237.800781 503.375 228.242188 505.410156 217.164062 507.777344 C 210.90625 509.113281 203.832031 510.621094 195.992188 510.949219 C 187.847656 511.292969 179.476562 510.316406 171.054688 508.027344 L 188.390625 478.582031 L 190.347656 478.78125 L 174.785156 505.980469 C 174.664062 506.175781 174.652344 506.414062 174.730469 506.640625 C 174.808594 506.851562 174.984375 507.023438 175.195312 507.117188 C 182.070312 509.65625 190.398438 510.011719 201.414062 508.238281 C 204.480469 507.75 208 507.011719 211.714844 506.242188 C 218.484375 504.828125 225.492188 503.359375 231.074219 503.082031 C 238.121094 502.726562 248.078125 505.132812 253.65625 513 Z M 264.789062 508 C 262.476562 509.335938 260.359375 511.015625 258.496094 513 L 256.300781 513 C 261.578125 505.621094 271.492188 502.6875 279.253906 503.082031 C 284.835938 503.375 291.84375 504.828125 298.613281 506.242188 C 302.328125 507.023438 305.832031 507.75 308.914062 508.238281 C 319.925781 510.011719 328.257812 509.640625 335.132812 507.117188 C 335.34375 507.035156 335.515625 506.863281 335.597656 506.640625 C 335.675781 506.429688 335.648438 506.175781 335.542969 505.980469 L 319.992188 478.792969 L 322.335938 478.582031 L 339.617188 507.9375 C 333.730469 509.285156 327.847656 510.039062 322.082031 510.171875 C 311.214844 510.433594 302.234375 508.582031 294.316406 506.957031 C 283.339844 504.710938 273.886719 502.753906 264.789062 508 Z M 264.789062 508 " fill-opacity="1" fill-rule="nonzero"/><path fill="#00a0e3" d="M 322.148438 514.109375 C 329.039062 513.9375 336.097656 512.945312 343.121094 511.136719 C 343.714844 510.976562 344.203125 510.554688 344.441406 509.984375 C 344.679688 509.417969 344.628906 508.769531 344.324219 508.238281 L 325.070312 475.527344 C 324.6875 474.867188 323.945312 474.496094 323.195312 474.5625 L 317.851562 475.050781 L 317.851562 475.117188 L 317.613281 474.695312 C 317.402344 474.335938 316.964844 474.191406 316.582031 474.378906 C 316.144531 474.589844 315.695312 474.785156 315.234375 474.957031 L 312.574219 470.316406 C 312.363281 469.960938 311.929688 469.816406 311.542969 470 C 306.558594 472.40625 300.449219 472.738281 292.332031 471.03125 C 290.214844 470.582031 288.074219 470.039062 286 469.511719 C 281.636719 468.398438 277.125 467.261719 272.550781 466.945312 C 269.5625 466.746094 266.285156 467.566406 262.804688 469.378906 C 259.59375 471.058594 256.921875 473.214844 255.125 474.894531 C 253.324219 473.214844 250.65625 471.058594 247.441406 469.378906 C 243.976562 467.566406 240.699219 466.746094 237.695312 466.945312 C 233.109375 467.25 228.613281 468.398438 224.25 469.511719 C 222.171875 470.039062 220.03125 470.582031 217.914062 471.03125 C 209.796875 472.738281 203.6875 472.40625 198.703125 470 C 198.332031 469.816406 197.882812 469.960938 197.671875 470.316406 L 195.054688 474.945312 C 194.589844 474.761719 194.140625 474.574219 193.707031 474.363281 C 193.335938 474.179688 192.886719 474.324219 192.675781 474.679688 L 192.449219 475.078125 L 192.449219 475.039062 L 187.503906 474.550781 C 186.738281 474.46875 185.996094 474.851562 185.613281 475.515625 L 166.363281 508.226562 C 166.058594 508.742188 166.003906 509.375 166.230469 509.945312 C 166.453125 510.515625 166.917969 510.9375 167.5 511.109375 C 177.136719 514.019531 186.777344 515.289062 196.152344 514.890625 C 204.324219 514.546875 211.582031 513 217.980469 511.625 C 228.625 509.351562 237.023438 507.566406 244.230469 512.285156 C 245.84375 513.34375 247.324219 514.664062 248.59375 516.214844 C 248.960938 516.664062 249.519531 516.925781 250.113281 516.925781 L 259.367188 516.925781 C 259.9375 516.925781 260.464844 516.6875 260.847656 516.265625 C 262.582031 514.308594 264.566406 512.667969 266.773438 511.414062 C 274.585938 506.917969 282.945312 508.636719 293.523438 510.816406 C 301.613281 512.484375 310.832031 514.375 322.148438 514.109375 Z M 316.609375 476.097656 L 318.207031 478.898438 L 318.207031 478.964844 L 318.234375 478.964844 L 333.679688 505.953125 C 327.226562 508.109375 319.398438 508.34375 309.136719 506.691406 C 306.109375 506.203125 302.605469 505.476562 298.917969 504.710938 C 292.082031 503.28125 285.019531 501.800781 279.320312 501.507812 C 274.667969 501.273438 269.734375 502.144531 265.4375 503.980469 C 262.355469 505.292969 259.671875 507.0625 257.492188 509.191406 C 262.289062 499.644531 271.402344 497.898438 278.660156 498.269531 C 284.265625 498.5625 289.464844 499.632812 294.976562 500.769531 C 297.886719 501.363281 300.886719 501.984375 303.929688 502.476562 C 304.5625 502.582031 305.210938 502.6875 305.859375 502.792969 C 314.058594 504.128906 322.546875 505.515625 330.09375 502.738281 C 330.308594 502.660156 330.480469 502.488281 330.558594 502.261719 C 330.636719 502.050781 330.613281 501.800781 330.503906 501.601562 L 316.039062 476.332031 C 316.238281 476.253906 316.421875 476.175781 316.609375 476.097656 Z M 272.472656 468.519531 C 276.914062 468.824219 281.34375 469.949219 285.640625 471.03125 C 287.730469 471.5625 289.898438 472.117188 292.042969 472.566406 C 300.160156 474.269531 306.402344 474.007812 311.597656 471.71875 L 328.679688 501.5625 C 321.726562 503.785156 313.804688 502.488281 306.125 501.230469 C 305.476562 501.125 304.828125 501.019531 304.191406 500.914062 C 301.179688 500.4375 298.203125 499.816406 295.308594 499.222656 C 289.992188 498.125 284.492188 496.988281 278.753906 496.683594 C 273.332031 496.40625 268.597656 497.332031 264.695312 499.433594 C 260.796875 501.535156 257.808594 504.789062 255.785156 509.125 L 255.957031 476.308594 C 258.296875 474.085938 265.398438 468.042969 272.472656 468.519531 Z M 198.71875 471.71875 C 203.898438 474.007812 210.140625 474.269531 218.273438 472.566406 C 220.429688 472.117188 222.582031 471.5625 224.671875 471.03125 C 228.957031 469.949219 233.398438 468.808594 237.84375 468.519531 C 244.917969 468.042969 252.003906 474.074219 254.371094 476.308594 L 254.199219 508.847656 C 252.226562 504.261719 249.292969 500.941406 245.445312 498.972656 C 241.703125 497.054688 237.523438 496.628906 234.113281 496.628906 C 233.199219 496.628906 232.339844 496.65625 231.5625 496.695312 C 225.824219 496.988281 220.324219 498.125 215.007812 499.234375 C 212.125 499.832031 209.136719 500.453125 206.132812 500.929688 C 205.488281 501.035156 204.851562 501.140625 204.203125 501.246094 C 196.535156 502.5 188.601562 503.796875 181.648438 501.574219 Z M 193.691406 476.097656 C 193.878906 476.175781 194.074219 476.253906 194.261719 476.332031 L 179.796875 501.617188 C 179.675781 501.8125 179.664062 502.050781 179.742188 502.277344 C 179.820312 502.5 179.992188 502.660156 180.207031 502.753906 C 187.753906 505.542969 196.246094 504.152344 204.441406 502.804688 C 205.089844 502.699219 205.738281 502.59375 206.371094 502.488281 C 209.414062 502 212.414062 501.378906 215.324219 500.78125 C 220.824219 499.644531 226.019531 498.5625 231.640625 498.285156 C 239.242188 497.886719 248.222656 498.945312 252.757812 509.507812 C 250.550781 507.234375 247.8125 505.355469 244.664062 503.996094 C 240.460938 502.15625 235.59375 501.285156 230.964844 501.523438 C 225.253906 501.8125 218.195312 503.292969 211.371094 504.722656 C 207.667969 505.488281 204.175781 506.230469 201.148438 506.707031 C 190.890625 508.34375 183.046875 508.121094 176.609375 505.964844 L 192.050781 478.976562 L 192.066406 478.976562 L 192.066406 478.9375 Z M 251.011719 513 C 249.625 511.453125 248.078125 510.105469 246.382812 508.992188 C 237.800781 503.375 228.242188 505.410156 217.164062 507.777344 C 210.90625 509.113281 203.832031 510.621094 195.992188 510.949219 C 187.847656 511.292969 179.476562 510.316406 171.054688 508.027344 L 188.390625 478.582031 L 190.347656 478.78125 L 174.785156 505.980469 C 174.664062 506.175781 174.652344 506.414062 174.730469 506.640625 C 174.808594 506.851562 174.984375 507.023438 175.195312 507.117188 C 182.070312 509.65625 190.398438 510.011719 201.414062 508.238281 C 204.480469 507.75 208 507.011719 211.714844 506.242188 C 218.484375 504.828125 225.492188 503.359375 231.074219 503.082031 C 238.121094 502.726562 248.078125 505.132812 253.65625 513 Z M 264.789062 508 C 262.476562 509.335938 260.359375 511.015625 258.496094 513 L 256.300781 513 C 261.578125 505.621094 271.492188 502.6875 279.253906 503.082031 C 284.835938 503.375 291.84375 504.828125 298.613281 506.242188 C 302.328125 507.023438 305.832031 507.75 308.914062 508.238281 C 319.925781 510.011719 328.257812 509.640625 335.132812 507.117188 C 335.34375 507.035156 335.515625 506.863281 335.597656 506.640625 C 335.675781 506.429688 335.648438 506.175781 335.542969 505.980469 L 319.992188 478.792969 L 322.335938 478.582031 L 339.617188 507.9375 C 333.730469 509.285156 327.847656 510.039062 322.082031 510.171875 C 311.214844 510.433594 302.234375 508.582031 294.316406 506.957031 C 283.339844 504.710938 273.886719 502.753906 264.789062 508 Z M 264.789062 508 " fill-opacity="1" fill-rule="nonzero"/></g><g clip-path="url(#2115ed0016)"><g clip-path="url(#e038acf77f)"><g clip-path="url(#755b5673bf)"><path fill="#ff6a00" d="M 176.074219 483.542969 C 141.875 454.707031 129.675781 405.761719 144.945312 363.746094 C 145.550781 362.101562 146.191406 360.46875 146.871094 358.851562 C 147.550781 357.234375 148.269531 355.632812 149.023438 354.046875 C 149.777344 352.464844 150.566406 350.898438 151.394531 349.351562 C 152.222656 347.800781 153.085938 346.273438 153.984375 344.769531 C 154.882812 343.261719 155.816406 341.773438 156.78125 340.3125 C 157.75 338.847656 158.75 337.40625 159.785156 335.988281 C 160.820312 334.570312 161.886719 333.179688 162.988281 331.8125 C 164.085938 330.445312 165.21875 329.101562 166.378906 327.789062 C 167.542969 326.472656 168.734375 325.1875 169.957031 323.925781 C 171.175781 322.667969 172.425781 321.4375 173.707031 320.234375 C 174.984375 319.035156 176.292969 317.863281 177.625 316.722656 C 178.960938 315.582031 180.320312 314.472656 181.703125 313.398438 C 183.089844 312.320312 184.5 311.273438 185.933594 310.261719 C 187.367188 309.253906 188.824219 308.273438 190.300781 307.332031 C 191.78125 306.386719 193.28125 305.476562 194.804688 304.605469 C 196.324219 303.730469 197.867188 302.890625 199.425781 302.089844 C 200.988281 301.289062 202.566406 300.523438 204.164062 299.792969 C 205.757812 299.066406 207.371094 298.375 209 297.71875 C 210.628906 297.066406 212.269531 296.453125 213.929688 295.875 C 215.585938 295.296875 217.253906 294.757812 218.9375 294.257812 C 220.617188 293.761719 222.3125 293.300781 224.015625 292.878906 C 225.71875 292.457031 227.429688 292.078125 229.152344 291.738281 C 230.875 291.394531 232.601562 291.09375 234.335938 290.835938 C 236.074219 290.574219 237.8125 290.355469 239.558594 290.175781 C 241.304688 289.996094 243.054688 289.855469 244.804688 289.757812 C 246.558594 289.660156 248.3125 289.601562 250.066406 289.585938 C 251.820312 289.570312 253.574219 289.59375 255.328125 289.660156 C 257.082031 289.726562 258.832031 289.832031 260.582031 289.976562 C 262.328125 290.125 264.074219 290.3125 265.8125 290.539062 C 267.554688 290.769531 269.285156 291.035156 271.015625 291.34375 C 272.742188 291.652344 274.460938 292.003906 276.171875 292.390625 C 277.882812 292.78125 279.585938 293.207031 281.277344 293.675781 C 363.226562 316.828125 391.972656 419.285156 330.179688 479.296875 C 331.957031 476.996094 335.84375 471.984375 337.414062 469.675781 L 342.679688 461.289062 C 349.339844 449.027344 353.65625 435.996094 355.625 422.183594 C 355.949219 419.796875 356.195312 417.402344 356.359375 414.996094 C 356.523438 412.59375 356.605469 410.1875 356.609375 407.78125 C 356.609375 405.371094 356.53125 402.964844 356.371094 400.5625 C 356.210938 398.15625 355.96875 395.761719 355.648438 393.375 C 355.324219 390.988281 354.925781 388.613281 354.441406 386.253906 C 353.960938 383.894531 353.398438 381.550781 352.757812 379.230469 C 352.117188 376.90625 351.402344 374.609375 350.605469 372.335938 C 349.8125 370.0625 348.941406 367.816406 347.996094 365.601562 C 347.046875 363.386719 346.027344 361.207031 344.933594 359.058594 C 343.839844 356.914062 342.675781 354.804688 341.441406 352.738281 C 340.203125 350.671875 338.902344 348.648438 337.527344 346.667969 C 336.15625 344.6875 334.71875 342.757812 333.214844 340.871094 C 331.714844 338.988281 330.148438 337.160156 328.523438 335.382812 C 326.898438 333.605469 325.214844 331.886719 323.472656 330.222656 C 321.730469 328.558594 319.933594 326.953125 318.082031 325.410156 C 316.234375 323.867188 314.332031 322.390625 312.382812 320.976562 C 310.195312 319.40625 307.949219 317.921875 305.644531 316.523438 C 303.339844 315.125 300.988281 313.816406 298.585938 312.601562 C 296.179688 311.382812 293.734375 310.257812 291.246094 309.230469 C 288.753906 308.199219 286.230469 307.265625 283.667969 306.429688 C 281.105469 305.59375 278.515625 304.855469 275.898438 304.21875 C 273.28125 303.582031 270.644531 303.042969 267.984375 302.609375 C 265.324219 302.171875 262.652344 301.839844 259.96875 301.609375 C 257.285156 301.378906 254.59375 301.25 251.902344 301.226562 C 249.207031 301.203125 246.515625 301.28125 243.828125 301.460938 C 241.140625 301.644531 238.460938 301.929688 235.796875 302.316406 C 233.128906 302.703125 230.480469 303.191406 227.851562 303.78125 C 225.222656 304.371094 222.621094 305.058594 220.046875 305.851562 C 217.46875 306.640625 214.925781 307.527344 212.417969 308.511719 C 209.910156 309.496094 207.445312 310.574219 205.019531 311.746094 C 202.59375 312.921875 200.214844 314.183594 197.886719 315.539062 C 195.558594 316.894531 193.285156 318.339844 191.070312 319.871094 C 188.964844 321.34375 186.917969 322.890625 184.925781 324.515625 C 182.933594 326.136719 181 327.828125 179.128906 329.589844 C 177.261719 331.351562 175.453125 333.175781 173.714844 335.066406 C 171.976562 336.957031 170.308594 338.90625 168.707031 340.917969 C 167.109375 342.929688 165.585938 344.996094 164.136719 347.117188 C 162.683594 349.238281 161.3125 351.40625 160.019531 353.625 C 158.726562 355.84375 157.511719 358.109375 156.378906 360.414062 C 155.25 362.722656 154.203125 365.066406 153.238281 367.449219 C 152.277344 369.828125 151.402344 372.242188 150.613281 374.6875 C 149.824219 377.132812 149.125 379.601562 148.511719 382.097656 C 147.902344 384.59375 147.378906 387.105469 146.949219 389.640625 C 146.519531 392.171875 146.179688 394.71875 145.933594 397.273438 C 145.683594 399.832031 145.53125 402.394531 145.46875 404.960938 C 145.402344 407.53125 145.433594 410.097656 145.554688 412.664062 C 145.675781 415.230469 145.890625 417.789062 146.195312 420.339844 C 146.503906 422.890625 146.898438 425.425781 147.386719 427.949219 C 150.125 441.628906 155.148438 454.40625 162.46875 466.28125 C 164.085938 468.640625 166.597656 472.03125 168.183594 474.367188 C 169.773438 476.699219 174.132812 481.332031 175.9375 483.574219 Z M 176.074219 483.542969 " fill-opacity="1" fill-rule="nonzero"/></g></g></g><g clip-path="url(#b79dadf890)"><path fill="#00a0e3" d="M 544.40625 477.863281 C 627.339844 439.746094 719.808594 453.710938 807.207031 463.800781 C 872.785156 471.203125 939.085938 477.148438 1004.820312 468.394531 C 1026.6875 465.667969 1048.375 461.378906 1069.921875 456.234375 C 1043.730469 465.246094 1016.554688 471.746094 989.085938 475.785156 C 928.410156 484.761719 866.765625 480.058594 806.148438 473.414062 C 718.34375 463.023438 630.242188 447.328125 544.40625 477.863281 Z M 544.40625 477.863281 " fill-opacity="1" fill-rule="nonzero"/></g><g fill="#ff6a00" fill-opacity="0.149"><g transform="translate(458.24469, 437.196386)"><g><path d="M 69.84375 -60.328125 C 69.84375 -51.921875 67.265625 -45.554688 62.109375 -41.234375 C 56.953125 -36.910156 49.578125 -34.75 39.984375 -34.75 L 24.515625 -34.75 L 24.515625 0 L 8.09375 0 L 8.09375 -85.90625 L 39.859375 -85.90625 C 49.453125 -85.90625 56.847656 -83.742188 62.046875 -79.421875 C 67.242188 -75.097656 69.84375 -68.734375 69.84375 -60.328125 Z M 53.421875 -60.328125 C 53.421875 -64.691406 52.148438 -67.820312 49.609375 -69.71875 C 47.078125 -71.625 43.234375 -72.578125 38.078125 -72.578125 L 24.515625 -72.578125 L 24.515625 -48.0625 L 38.078125 -48.0625 C 43.234375 -48.0625 47.078125 -49.015625 49.609375 -50.921875 C 52.148438 -52.828125 53.421875 -55.960938 53.421875 -60.328125 Z M 53.421875 -60.328125 "/></g></g></g><g fill="#ff6a00" fill-opacity="0.149"><g transform="translate(530.944305, 437.196386)"><g><path d="M 54.96875 -34.984375 L 54.96875 -28.5625 L 17.609375 -28.5625 C 17.691406 -22.925781 18.863281 -18.539062 21.125 -15.40625 C 23.382812 -12.269531 26.492188 -10.703125 30.453125 -10.703125 C 33.234375 -10.703125 35.632812 -11.21875 37.65625 -12.25 C 39.675781 -13.28125 41.878906 -15.222656 44.265625 -18.078125 L 54.96875 -11.421875 C 52.113281 -7.140625 48.582031 -3.96875 44.375 -1.90625 C 40.175781 0.15625 35.101562 1.1875 29.15625 1.1875 C 23.832031 1.1875 19.1875 -0.117188 15.21875 -2.734375 C 11.257812 -5.347656 8.207031 -9.070312 6.0625 -13.90625 C 3.925781 -18.75 2.859375 -24.425781 2.859375 -30.9375 C 2.859375 -40.769531 5.253906 -48.582031 10.046875 -54.375 C 14.847656 -60.164062 21.453125 -63.0625 29.859375 -63.0625 C 35.335938 -63.0625 39.957031 -61.671875 43.71875 -58.890625 C 47.488281 -56.117188 50.304688 -52.570312 52.171875 -48.25 C 54.035156 -43.925781 54.96875 -39.503906 54.96875 -34.984375 Z M 29.515625 -52.109375 C 25.941406 -52.109375 23.101562 -50.9375 21 -48.59375 C 18.894531 -46.257812 17.765625 -42.910156 17.609375 -38.546875 L 41.40625 -38.546875 C 41.320312 -42.753906 40.207031 -46.066406 38.0625 -48.484375 C 35.925781 -50.898438 33.078125 -52.109375 29.515625 -52.109375 Z M 29.515625 -52.109375 "/></g></g></g><g fill="#ff6a00" fill-opacity="0.149"><g transform="translate(590.43661, 437.196386)"><g><path d="M 9.15625 0 L 9.15625 -85.90625 L 23.921875 -85.90625 L 23.921875 0 Z M 9.15625 0 "/></g></g></g><g fill="#ff6a00" fill-opacity="0.149"><g transform="translate(623.514347, 437.196386)"><g><path d="M 56.640625 -30.9375 C 56.640625 -21.101562 54.238281 -13.289062 49.4375 -7.5 C 44.632812 -1.707031 38.070312 1.1875 29.75 1.1875 C 24.269531 1.1875 19.507812 -0.117188 15.46875 -2.734375 C 11.425781 -5.347656 8.3125 -9.070312 6.125 -13.90625 C 3.945312 -18.75 2.859375 -24.425781 2.859375 -30.9375 C 2.859375 -40.925781 5.296875 -48.773438 10.171875 -54.484375 C 15.046875 -60.203125 21.570312 -63.0625 29.75 -63.0625 C 38.070312 -63.0625 44.632812 -60.203125 49.4375 -54.484375 C 54.238281 -48.773438 56.640625 -40.925781 56.640625 -30.9375 Z M 29.75 -10.703125 C 33.875 -10.703125 36.925781 -12.328125 38.90625 -15.578125 C 40.882812 -18.835938 41.875 -23.957031 41.875 -30.9375 C 41.875 -37.757812 40.882812 -42.832031 38.90625 -46.15625 C 36.925781 -49.488281 33.875 -51.15625 29.75 -51.15625 C 25.539062 -51.15625 22.460938 -49.46875 20.515625 -46.09375 C 18.578125 -42.726562 17.609375 -37.675781 17.609375 -30.9375 C 17.609375 -23.957031 18.597656 -18.835938 20.578125 -15.578125 C 22.566406 -12.328125 25.625 -10.703125 29.75 -10.703125 Z M 29.75 -10.703125 "/></g></g></g><g fill="#ff6a00" fill-opacity="0.149"><g transform="translate(683.006651, 437.196386)"><g><path d="M 36.890625 -61.875 L 36.890625 -49.96875 L 24.75 -49.96875 L 24.75 -14.75 C 24.75 -13.320312 25.144531 -12.289062 25.9375 -11.65625 C 26.726562 -11.019531 28.117188 -10.703125 30.109375 -10.703125 C 31.453125 -10.703125 33.710938 -11.101562 36.890625 -11.90625 L 36.890625 0.234375 C 31.648438 0.867188 27.757812 1.1875 25.21875 1.1875 C 15.070312 1.1875 10 -3.53125 10 -12.96875 L 10 -49.96875 L 1.421875 -49.96875 L 1.421875 -61.875 L 10 -61.875 L 10 -82.34375 L 24.75 -82.34375 L 24.75 -61.875 Z M 36.890625 -61.875 "/></g></g></g><g fill="#ff6a00" fill-opacity="0.149"><g transform="translate(722.62853, 437.196386)"><g><path d="M 52.359375 -38.671875 L 52.359375 -8.453125 C 52.359375 -4.960938 52.753906 -2.144531 53.546875 0 L 39.140625 0 L 38.1875 -5.359375 C 31.925781 -0.992188 25.539062 1.1875 19.03125 1.1875 C 13.875 1.1875 9.769531 -0.359375 6.71875 -3.453125 C 3.664062 -6.546875 2.140625 -10.472656 2.140625 -15.234375 C 2.140625 -22.210938 5.050781 -27.664062 10.875 -31.59375 C 16.707031 -35.519531 25.613281 -38.15625 37.59375 -39.5 L 37.59375 -44.734375 C 37.59375 -47.035156 36.757812 -48.835938 35.09375 -50.140625 C 33.4375 -51.453125 31.21875 -52.109375 28.4375 -52.109375 C 23.125 -52.109375 18.640625 -49.570312 14.984375 -44.5 L 5.46875 -51.765625 C 7.53125 -55.015625 10.644531 -57.707031 14.8125 -59.84375 C 18.976562 -61.988281 23.363281 -63.0625 27.96875 -63.0625 C 36.6875 -63.0625 42.929688 -61.15625 46.703125 -57.34375 C 50.472656 -53.539062 52.359375 -47.316406 52.359375 -38.671875 Z M 24.03125 -9.75 C 25.851562 -9.75 28.015625 -10.363281 30.515625 -11.59375 C 33.015625 -12.820312 35.375 -14.390625 37.59375 -16.296875 L 37.59375 -29.625 C 29.90625 -28.351562 24.53125 -26.726562 21.46875 -24.75 C 18.414062 -22.769531 16.890625 -20.191406 16.890625 -17.015625 C 16.890625 -14.710938 17.546875 -12.925781 18.859375 -11.65625 C 20.171875 -10.382812 21.894531 -9.75 24.03125 -9.75 Z M 24.03125 -9.75 "/></g></g></g><g fill="#ff6a00" fill-opacity="0.149"><g transform="translate(782.120834, 437.196386)"><g><path d="M 47 -53.65625 L 37.71875 -45.578125 C 33.675781 -49.929688 29.828125 -52.109375 26.171875 -52.109375 C 23.398438 -52.109375 21.316406 -51.570312 19.921875 -50.5 C 18.535156 -49.4375 17.84375 -47.953125 17.84375 -46.046875 C 17.84375 -44.378906 18.695312 -42.910156 20.40625 -41.640625 C 22.113281 -40.367188 24.945312 -39.101562 28.90625 -37.84375 C 36.289062 -35.382812 41.445312 -32.566406 44.375 -29.390625 C 47.3125 -26.210938 48.78125 -22.164062 48.78125 -17.25 C 48.78125 -11.382812 46.773438 -6.84375 42.765625 -3.625 C 38.765625 -0.414062 33.195312 1.1875 26.0625 1.1875 C 16.144531 1.1875 8.332031 -2.972656 2.625 -11.296875 L 12.5 -18.6875 C 16.78125 -12.726562 21.578125 -9.75 26.890625 -9.75 C 29.503906 -9.75 31.625 -10.40625 33.25 -11.71875 C 34.882812 -13.03125 35.703125 -14.71875 35.703125 -16.78125 C 35.703125 -18.519531 34.804688 -20.023438 33.015625 -21.296875 C 31.234375 -22.566406 28.316406 -23.914062 24.265625 -25.34375 C 17.046875 -27.800781 11.988281 -30.554688 9.09375 -33.609375 C 6.207031 -36.660156 4.765625 -40.488281 4.765625 -45.09375 C 4.765625 -48.664062 5.675781 -51.816406 7.5 -54.546875 C 9.320312 -57.285156 11.796875 -59.390625 14.921875 -60.859375 C 18.054688 -62.328125 21.488281 -63.0625 25.21875 -63.0625 C 29.507812 -63.0625 33.554688 -62.25 37.359375 -60.625 C 41.171875 -59 44.382812 -56.675781 47 -53.65625 Z M 47 -53.65625 "/></g></g></g><g fill="#ff6a00" fill-opacity="0.149"><g transform="translate(834.949996, 437.196386)"><g/></g></g><g fill="#ff6a00" fill-opacity="0.149"><g transform="translate(871.240302, 437.196386)"><g><path d="M 60.796875 -27.359375 L 60.796875 -85.90625 L 76.265625 -85.90625 L 76.265625 0 L 60.4375 0 L 25.34375 -61.15625 L 25.109375 -61.15625 L 25.109375 0 L 9.640625 0 L 9.640625 -85.90625 L 26.765625 -85.90625 L 60.5625 -27.359375 Z M 60.796875 -27.359375 "/></g></g></g><g fill="#ff6a00" fill-opacity="0.149"><g transform="translate(957.147174, 437.196386)"><g><path d="M 56.640625 -30.9375 C 56.640625 -21.101562 54.238281 -13.289062 49.4375 -7.5 C 44.632812 -1.707031 38.070312 1.1875 29.75 1.1875 C 24.269531 1.1875 19.507812 -0.117188 15.46875 -2.734375 C 11.425781 -5.347656 8.3125 -9.070312 6.125 -13.90625 C 3.945312 -18.75 2.859375 -24.425781 2.859375 -30.9375 C 2.859375 -40.925781 5.296875 -48.773438 10.171875 -54.484375 C 15.046875 -60.203125 21.570312 -63.0625 29.75 -63.0625 C 38.070312 -63.0625 44.632812 -60.203125 49.4375 -54.484375 C 54.238281 -48.773438 56.640625 -40.925781 56.640625 -30.9375 Z M 29.75 -10.703125 C 33.875 -10.703125 36.925781 -12.328125 38.90625 -15.578125 C 40.882812 -18.835938 41.875 -23.957031 41.875 -30.9375 C 41.875 -37.757812 40.882812 -42.832031 38.90625 -46.15625 C 36.925781 -49.488281 33.875 -51.15625 29.75 -51.15625 C 25.539062 -51.15625 22.460938 -49.46875 20.515625 -46.09375 C 18.578125 -42.726562 17.609375 -37.675781 17.609375 -30.9375 C 17.609375 -23.957031 18.597656 -18.835938 20.578125 -15.578125 C 22.566406 -12.328125 25.625 -10.703125 29.75 -10.703125 Z M 29.75 -10.703125 "/></g></g></g><g fill="#ff6a00" fill-opacity="0.149"><g transform="translate(1016.639505, 437.196386)"><g><path d="M 35.09375 -47.59375 C 33.03125 -47.59375 30.945312 -46.9375 28.84375 -45.625 C 26.75 -44.320312 24.988281 -42.816406 23.5625 -41.109375 C 22.132812 -39.398438 21.421875 -38.148438 21.421875 -37.359375 L 21.421875 0 L 6.65625 0 L 6.65625 -61.875 L 20.234375 -61.875 L 20.234375 -51.28125 L 20.46875 -51.28125 C 22.375 -55.164062 24.710938 -58.078125 27.484375 -60.015625 C 30.265625 -61.960938 33.71875 -62.976562 37.84375 -63.0625 L 37.84375 -47.46875 C 37.675781 -47.46875 37.414062 -47.488281 37.0625 -47.53125 C 36.707031 -47.570312 36.050781 -47.59375 35.09375 -47.59375 Z M 35.09375 -47.59375 "/></g></g></g><g fill="#ff6a00" fill-opacity="0.149"><g transform="translate(1056.261384, 437.196386)"><g><path d="M 36.890625 -61.875 L 36.890625 -49.96875 L 24.75 -49.96875 L 24.75 -14.75 C 24.75 -13.320312 25.144531 -12.289062 25.9375 -11.65625 C 26.726562 -11.019531 28.117188 -10.703125 30.109375 -10.703125 C 31.453125 -10.703125 33.710938 -11.101562 36.890625 -11.90625 L 36.890625 0.234375 C 31.648438 0.867188 27.757812 1.1875 25.21875 1.1875 C 15.070312 1.1875 10 -3.53125 10 -12.96875 L 10 -49.96875 L 1.421875 -49.96875 L 1.421875 -61.875 L 10 -61.875 L 10 -82.34375 L 24.75 -82.34375 L 24.75 -61.875 Z M 36.890625 -61.875 "/></g></g></g><g fill="#ff6a00" fill-opacity="0.149"><g transform="translate(1095.883262, 437.196386)"><g><path d="M 54.96875 -34.984375 L 54.96875 -28.5625 L 17.609375 -28.5625 C 17.691406 -22.925781 18.863281 -18.539062 21.125 -15.40625 C 23.382812 -12.269531 26.492188 -10.703125 30.453125 -10.703125 C 33.234375 -10.703125 35.632812 -11.21875 37.65625 -12.25 C 39.675781 -13.28125 41.878906 -15.222656 44.265625 -18.078125 L 54.96875 -11.421875 C 52.113281 -7.140625 48.582031 -3.96875 44.375 -1.90625 C 40.175781 0.15625 35.101562 1.1875 29.15625 1.1875 C 23.832031 1.1875 19.1875 -0.117188 15.21875 -2.734375 C 11.257812 -5.347656 8.207031 -9.070312 6.0625 -13.90625 C 3.925781 -18.75 2.859375 -24.425781 2.859375 -30.9375 C 2.859375 -40.769531 5.253906 -48.582031 10.046875 -54.375 C 14.847656 -60.164062 21.453125 -63.0625 29.859375 -63.0625 C 35.335938 -63.0625 39.957031 -61.671875 43.71875 -58.890625 C 47.488281 -56.117188 50.304688 -52.570312 52.171875 -48.25 C 54.035156 -43.925781 54.96875 -39.503906 54.96875 -34.984375 Z M 29.515625 -52.109375 C 25.941406 -52.109375 23.101562 -50.9375 21 -48.59375 C 18.894531 -46.257812 17.765625 -42.910156 17.609375 -38.546875 L 41.40625 -38.546875 C 41.320312 -42.753906 40.207031 -46.066406 38.0625 -48.484375 C 35.925781 -50.898438 33.078125 -52.109375 29.515625 -52.109375 Z M 29.515625 -52.109375 "/></g></g></g><g fill="#ff6a00" fill-opacity="1"><g transform="translate(452.88033, 431.832012)"><g><path d="M 69.84375 -60.328125 C 69.84375 -51.921875 67.265625 -45.554688 62.109375 -41.234375 C 56.953125 -36.910156 49.578125 -34.75 39.984375 -34.75 L 24.515625 -34.75 L 24.515625 0 L 8.09375 0 L 8.09375 -85.90625 L 39.859375 -85.90625 C 49.453125 -85.90625 56.847656 -83.742188 62.046875 -79.421875 C 67.242188 -75.097656 69.84375 -68.734375 69.84375 -60.328125 Z M 53.421875 -60.328125 C 53.421875 -64.691406 52.148438 -67.820312 49.609375 -69.71875 C 47.078125 -71.625 43.234375 -72.578125 38.078125 -72.578125 L 24.515625 -72.578125 L 24.515625 -48.0625 L 38.078125 -48.0625 C 43.234375 -48.0625 47.078125 -49.015625 49.609375 -50.921875 C 52.148438 -52.828125 53.421875 -55.960938 53.421875 -60.328125 Z M 53.421875 -60.328125 "/></g></g></g><g fill="#ff6a00" fill-opacity="1"><g transform="translate(525.579946, 431.832012)"><g><path d="M 54.96875 -34.984375 L 54.96875 -28.5625 L 17.609375 -28.5625 C 17.691406 -22.925781 18.863281 -18.539062 21.125 -15.40625 C 23.382812 -12.269531 26.492188 -10.703125 30.453125 -10.703125 C 33.234375 -10.703125 35.632812 -11.21875 37.65625 -12.25 C 39.675781 -13.28125 41.878906 -15.222656 44.265625 -18.078125 L 54.96875 -11.421875 C 52.113281 -7.140625 48.582031 -3.96875 44.375 -1.90625 C 40.175781 0.15625 35.101562 1.1875 29.15625 1.1875 C 23.832031 1.1875 19.1875 -0.117188 15.21875 -2.734375 C 11.257812 -5.347656 8.207031 -9.070312 6.0625 -13.90625 C 3.925781 -18.75 2.859375 -24.425781 2.859375 -30.9375 C 2.859375 -40.769531 5.253906 -48.582031 10.046875 -54.375 C 14.847656 -60.164062 21.453125 -63.0625 29.859375 -63.0625 C 35.335938 -63.0625 39.957031 -61.671875 43.71875 -58.890625 C 47.488281 -56.117188 50.304688 -52.570312 52.171875 -48.25 C 54.035156 -43.925781 54.96875 -39.503906 54.96875 -34.984375 Z M 29.515625 -52.109375 C 25.941406 -52.109375 23.101562 -50.9375 21 -48.59375 C 18.894531 -46.257812 17.765625 -42.910156 17.609375 -38.546875 L 41.40625 -38.546875 C 41.320312 -42.753906 40.207031 -46.066406 38.0625 -48.484375 C 35.925781 -50.898438 33.078125 -52.109375 29.515625 -52.109375 Z M 29.515625 -52.109375 "/></g></g></g><g fill="#ff6a00" fill-opacity="1"><g transform="translate(585.07225, 431.832012)"><g><path d="M 9.15625 0 L 9.15625 -85.90625 L 23.921875 -85.90625 L 23.921875 0 Z M 9.15625 0 "/></g></g></g><g fill="#ff6a00" fill-opacity="1"><g transform="translate(618.149987, 431.832012)"><g><path d="M 56.640625 -30.9375 C 56.640625 -21.101562 54.238281 -13.289062 49.4375 -7.5 C 44.632812 -1.707031 38.070312 1.1875 29.75 1.1875 C 24.269531 1.1875 19.507812 -0.117188 15.46875 -2.734375 C 11.425781 -5.347656 8.3125 -9.070312 6.125 -13.90625 C 3.945312 -18.75 2.859375 -24.425781 2.859375 -30.9375 C 2.859375 -40.925781 5.296875 -48.773438 10.171875 -54.484375 C 15.046875 -60.203125 21.570312 -63.0625 29.75 -63.0625 C 38.070312 -63.0625 44.632812 -60.203125 49.4375 -54.484375 C 54.238281 -48.773438 56.640625 -40.925781 56.640625 -30.9375 Z M 29.75 -10.703125 C 33.875 -10.703125 36.925781 -12.328125 38.90625 -15.578125 C 40.882812 -18.835938 41.875 -23.957031 41.875 -30.9375 C 41.875 -37.757812 40.882812 -42.832031 38.90625 -46.15625 C 36.925781 -49.488281 33.875 -51.15625 29.75 -51.15625 C 25.539062 -51.15625 22.460938 -49.46875 20.515625 -46.09375 C 18.578125 -42.726562 17.609375 -37.675781 17.609375 -30.9375 C 17.609375 -23.957031 18.597656 -18.835938 20.578125 -15.578125 C 22.566406 -12.328125 25.625 -10.703125 29.75 -10.703125 Z M 29.75 -10.703125 "/></g></g></g><g fill="#ff6a00" fill-opacity="1"><g transform="translate(677.642292, 431.832012)"><g><path d="M 36.890625 -61.875 L 36.890625 -49.96875 L 24.75 -49.96875 L 24.75 -14.75 C 24.75 -13.320312 25.144531 -12.289062 25.9375 -11.65625 C 26.726562 -11.019531 28.117188 -10.703125 30.109375 -10.703125 C 31.453125 -10.703125 33.710938 -11.101562 36.890625 -11.90625 L 36.890625 0.234375 C 31.648438 0.867188 27.757812 1.1875 25.21875 1.1875 C 15.070312 1.1875 10 -3.53125 10 -12.96875 L 10 -49.96875 L 1.421875 -49.96875 L 1.421875 -61.875 L 10 -61.875 L 10 -82.34375 L 24.75 -82.34375 L 24.75 -61.875 Z M 36.890625 -61.875 "/></g></g></g><g fill="#ff6a00" fill-opacity="1"><g transform="translate(717.26417, 431.832012)"><g><path d="M 52.359375 -38.671875 L 52.359375 -8.453125 C 52.359375 -4.960938 52.753906 -2.144531 53.546875 0 L 39.140625 0 L 38.1875 -5.359375 C 31.925781 -0.992188 25.539062 1.1875 19.03125 1.1875 C 13.875 1.1875 9.769531 -0.359375 6.71875 -3.453125 C 3.664062 -6.546875 2.140625 -10.472656 2.140625 -15.234375 C 2.140625 -22.210938 5.050781 -27.664062 10.875 -31.59375 C 16.707031 -35.519531 25.613281 -38.15625 37.59375 -39.5 L 37.59375 -44.734375 C 37.59375 -47.035156 36.757812 -48.835938 35.09375 -50.140625 C 33.4375 -51.453125 31.21875 -52.109375 28.4375 -52.109375 C 23.125 -52.109375 18.640625 -49.570312 14.984375 -44.5 L 5.46875 -51.765625 C 7.53125 -55.015625 10.644531 -57.707031 14.8125 -59.84375 C 18.976562 -61.988281 23.363281 -63.0625 27.96875 -63.0625 C 36.6875 -63.0625 42.929688 -61.15625 46.703125 -57.34375 C 50.472656 -53.539062 52.359375 -47.316406 52.359375 -38.671875 Z M 24.03125 -9.75 C 25.851562 -9.75 28.015625 -10.363281 30.515625 -11.59375 C 33.015625 -12.820312 35.375 -14.390625 37.59375 -16.296875 L 37.59375 -29.625 C 29.90625 -28.351562 24.53125 -26.726562 21.46875 -24.75 C 18.414062 -22.769531 16.890625 -20.191406 16.890625 -17.015625 C 16.890625 -14.710938 17.546875 -12.925781 18.859375 -11.65625 C 20.171875 -10.382812 21.894531 -9.75 24.03125 -9.75 Z M 24.03125 -9.75 "/></g></g></g><g fill="#ff6a00" fill-opacity="1"><g transform="translate(776.756475, 431.832012)"><g><path d="M 47 -53.65625 L 37.71875 -45.578125 C 33.675781 -49.929688 29.828125 -52.109375 26.171875 -52.109375 C 23.398438 -52.109375 21.316406 -51.570312 19.921875 -50.5 C 18.535156 -49.4375 17.84375 -47.953125 17.84375 -46.046875 C 17.84375 -44.378906 18.695312 -42.910156 20.40625 -41.640625 C 22.113281 -40.367188 24.945312 -39.101562 28.90625 -37.84375 C 36.289062 -35.382812 41.445312 -32.566406 44.375 -29.390625 C 47.3125 -26.210938 48.78125 -22.164062 48.78125 -17.25 C 48.78125 -11.382812 46.773438 -6.84375 42.765625 -3.625 C 38.765625 -0.414062 33.195312 1.1875 26.0625 1.1875 C 16.144531 1.1875 8.332031 -2.972656 2.625 -11.296875 L 12.5 -18.6875 C 16.78125 -12.726562 21.578125 -9.75 26.890625 -9.75 C 29.503906 -9.75 31.625 -10.40625 33.25 -11.71875 C 34.882812 -13.03125 35.703125 -14.71875 35.703125 -16.78125 C 35.703125 -18.519531 34.804688 -20.023438 33.015625 -21.296875 C 31.234375 -22.566406 28.316406 -23.914062 24.265625 -25.34375 C 17.046875 -27.800781 11.988281 -30.554688 9.09375 -33.609375 C 6.207031 -36.660156 4.765625 -40.488281 4.765625 -45.09375 C 4.765625 -48.664062 5.675781 -51.816406 7.5 -54.546875 C 9.320312 -57.285156 11.796875 -59.390625 14.921875 -60.859375 C 18.054688 -62.328125 21.488281 -63.0625 25.21875 -63.0625 C 29.507812 -63.0625 33.554688 -62.25 37.359375 -60.625 C 41.171875 -59 44.382812 -56.675781 47 -53.65625 Z M 47 -53.65625 "/></g></g></g><g fill="#ff6a00" fill-opacity="1"><g transform="translate(829.585636, 431.832012)"><g/></g></g><g fill="#ff6a00" fill-opacity="1"><g transform="translate(865.875943, 431.832012)"><g><path d="M 60.796875 -27.359375 L 60.796875 -85.90625 L 76.265625 -85.90625 L 76.265625 0 L 60.4375 0 L 25.34375 -61.15625 L 25.109375 -61.15625 L 25.109375 0 L 9.640625 0 L 9.640625 -85.90625 L 26.765625 -85.90625 L 60.5625 -27.359375 Z M 60.796875 -27.359375 "/></g></g></g><g fill="#ff6a00" fill-opacity="1"><g transform="translate(951.782814, 431.832012)"><g><path d="M 56.640625 -30.9375 C 56.640625 -21.101562 54.238281 -13.289062 49.4375 -7.5 C 44.632812 -1.707031 38.070312 1.1875 29.75 1.1875 C 24.269531 1.1875 19.507812 -0.117188 15.46875 -2.734375 C 11.425781 -5.347656 8.3125 -9.070312 6.125 -13.90625 C 3.945312 -18.75 2.859375 -24.425781 2.859375 -30.9375 C 2.859375 -40.925781 5.296875 -48.773438 10.171875 -54.484375 C 15.046875 -60.203125 21.570312 -63.0625 29.75 -63.0625 C 38.070312 -63.0625 44.632812 -60.203125 49.4375 -54.484375 C 54.238281 -48.773438 56.640625 -40.925781 56.640625 -30.9375 Z M 29.75 -10.703125 C 33.875 -10.703125 36.925781 -12.328125 38.90625 -15.578125 C 40.882812 -18.835938 41.875 -23.957031 41.875 -30.9375 C 41.875 -37.757812 40.882812 -42.832031 38.90625 -46.15625 C 36.925781 -49.488281 33.875 -51.15625 29.75 -51.15625 C 25.539062 -51.15625 22.460938 -49.46875 20.515625 -46.09375 C 18.578125 -42.726562 17.609375 -37.675781 17.609375 -30.9375 C 17.609375 -23.957031 18.597656 -18.835938 20.578125 -15.578125 C 22.566406 -12.328125 25.625 -10.703125 29.75 -10.703125 Z M 29.75 -10.703125 "/></g></g></g><g fill="#ff6a00" fill-opacity="1"><g transform="translate(1011.275146, 431.832012)"><g><path d="M 35.09375 -47.59375 C 33.03125 -47.59375 30.945312 -46.9375 28.84375 -45.625 C 26.75 -44.320312 24.988281 -42.816406 23.5625 -41.109375 C 22.132812 -39.398438 21.421875 -38.148438 21.421875 -37.359375 L 21.421875 0 L 6.65625 0 L 6.65625 -61.875 L 20.234375 -61.875 L 20.234375 -51.28125 L 20.46875 -51.28125 C 22.375 -55.164062 24.710938 -58.078125 27.484375 -60.015625 C 30.265625 -61.960938 33.71875 -62.976562 37.84375 -63.0625 L 37.84375 -47.46875 C 37.675781 -47.46875 37.414062 -47.488281 37.0625 -47.53125 C 36.707031 -47.570312 36.050781 -47.59375 35.09375 -47.59375 Z M 35.09375 -47.59375 "/></g></g></g><g fill="#ff6a00" fill-opacity="1"><g transform="translate(1050.897024, 431.832012)"><g><path d="M 36.890625 -61.875 L 36.890625 -49.96875 L 24.75 -49.96875 L 24.75 -14.75 C 24.75 -13.320312 25.144531 -12.289062 25.9375 -11.65625 C 26.726562 -11.019531 28.117188 -10.703125 30.109375 -10.703125 C 31.453125 -10.703125 33.710938 -11.101562 36.890625 -11.90625 L 36.890625 0.234375 C 31.648438 0.867188 27.757812 1.1875 25.21875 1.1875 C 15.070312 1.1875 10 -3.53125 10 -12.96875 L 10 -49.96875 L 1.421875 -49.96875 L 1.421875 -61.875 L 10 -61.875 L 10 -82.34375 L 24.75 -82.34375 L 24.75 -61.875 Z M 36.890625 -61.875 "/></g></g></g><g fill="#ff6a00" fill-opacity="1"><g transform="translate(1090.518903, 431.832012)"><g><path d="M 54.96875 -34.984375 L 54.96875 -28.5625 L 17.609375 -28.5625 C 17.691406 -22.925781 18.863281 -18.539062 21.125 -15.40625 C 23.382812 -12.269531 26.492188 -10.703125 30.453125 -10.703125 C 33.234375 -10.703125 35.632812 -11.21875 37.65625 -12.25 C 39.675781 -13.28125 41.878906 -15.222656 44.265625 -18.078125 L 54.96875 -11.421875 C 52.113281 -7.140625 48.582031 -3.96875 44.375 -1.90625 C 40.175781 0.15625 35.101562 1.1875 29.15625 1.1875 C 23.832031 1.1875 19.1875 -0.117188 15.21875 -2.734375 C 11.257812 -5.347656 8.207031 -9.070312 6.0625 -13.90625 C 3.925781 -18.75 2.859375 -24.425781 2.859375 -30.9375 C 2.859375 -40.769531 5.253906 -48.582031 10.046875 -54.375 C 14.847656 -60.164062 21.453125 -63.0625 29.859375 -63.0625 C 35.335938 -63.0625 39.957031 -61.671875 43.71875 -58.890625 C 47.488281 -56.117188 50.304688 -52.570312 52.171875 -48.25 C 54.035156 -43.925781 54.96875 -39.503906 54.96875 -34.984375 Z M 29.515625 -52.109375 C 25.941406 -52.109375 23.101562 -50.9375 21 -48.59375 C 18.894531 -46.257812 17.765625 -42.910156 17.609375 -38.546875 L 41.40625 -38.546875 C 41.320312 -42.753906 40.207031 -46.066406 38.0625 -48.484375 C 35.925781 -50.898438 33.078125 -52.109375 29.515625 -52.109375 Z M 29.515625 -52.109375 "/></g></g></g><g fill="#00a0e3" fill-opacity="1"><g transform="translate(592.643832, 326.157288)"><g><path d="M 11.1875 -26.546875 C 11.625 -26.617188 12.257812 -26.65625 13.09375 -26.65625 C 13.425781 -26.65625 14.03125 -26.640625 14.90625 -26.609375 C 15.78125 -26.585938 16.253906 -26.515625 16.328125 -26.390625 C 16.484375 -26.265625 17.53125 -23.648438 19.46875 -18.546875 C 21.414062 -13.441406 22.921875 -9.367188 23.984375 -6.328125 C 24.773438 -4.085938 25.347656 -2.507812 25.703125 -1.59375 L 26.34375 0.03125 L 19.84375 -0.03125 L 17.59375 -6.46875 L 14.203125 -6.515625 C 11.765625 -6.515625 10.40625 -6.523438 10.125 -6.546875 L 9.4375 -6.546875 L 6.515625 -0.03125 L 3.46875 0 C 2.78125 0 2.207031 0 1.75 0 C 0.832031 0 0.375 -0.0078125 0.375 -0.03125 C 0.375 -0.34375 2.140625 -5.066406 5.671875 -14.203125 C 6.304688 -15.804688 7.144531 -18.003906 8.1875 -20.796875 C 9.101562 -23.128906 9.710938 -24.660156 10.015625 -25.390625 C 10.265625 -25.929688 10.429688 -26.242188 10.515625 -26.328125 C 10.609375 -26.421875 10.832031 -26.492188 11.1875 -26.546875 Z M 14.4375 -15.390625 C 13.851562 -17.160156 13.535156 -18.097656 13.484375 -18.203125 C 13.453125 -18.203125 13.359375 -18 13.203125 -17.59375 C 13.054688 -17.1875 12.867188 -16.632812 12.640625 -15.9375 C 12.410156 -15.238281 12.15625 -14.484375 11.875 -13.671875 L 11.390625 -12.21875 L 13.359375 -12.21875 C 14.679688 -12.21875 15.34375 -12.269531 15.34375 -12.375 C 15.34375 -12.53125 15.039062 -13.535156 14.4375 -15.390625 Z M 14.4375 -15.390625 "/></g></g></g><g fill="#00a0e3" fill-opacity="1"><g transform="translate(619.370243, 326.157288)"><g><path d="M 8.15625 -26.84375 C 8.65625 -26.914062 9.804688 -26.953125 11.609375 -26.953125 C 12.804688 -26.929688 13.613281 -26.894531 14.03125 -26.84375 C 14.445312 -26.789062 14.9375 -26.664062 15.5 -26.46875 C 17.269531 -25.9375 18.25 -25.398438 18.4375 -24.859375 C 18.476562 -24.679688 18.5 -24.554688 18.5 -24.484375 C 18.5 -24.460938 18.5 -24.4375 18.5 -24.40625 C 18.457031 -24.332031 18.28125 -23.582031 17.96875 -22.15625 C 17.664062 -20.707031 17.488281 -19.945312 17.4375 -19.875 C 17.4375 -19.851562 17.398438 -19.84375 17.328125 -19.84375 C 17.148438 -19.84375 16.691406 -20.019531 15.953125 -20.375 C 15.117188 -20.78125 14.382812 -21.0625 13.75 -21.21875 C 13.113281 -21.382812 12.453125 -21.46875 11.765625 -21.46875 C 10.316406 -21.46875 9.265625 -21.113281 8.609375 -20.40625 C 8.273438 -20.03125 8.101562 -19.757812 8.09375 -19.59375 C 8.082031 -19.425781 8.078125 -19.34375 8.078125 -19.34375 C 8.078125 -19.007812 8.253906 -18.65625 8.609375 -18.28125 C 8.890625 -17.925781 9.28125 -17.632812 9.78125 -17.40625 C 10.289062 -17.175781 11.242188 -16.859375 12.640625 -16.453125 C 14.015625 -16.046875 14.878906 -15.738281 15.234375 -15.53125 C 16.148438 -15.15625 17.03125 -14.546875 17.875 -13.703125 C 18.726562 -12.867188 19.28125 -12.097656 19.53125 -11.390625 C 19.738281 -10.847656 19.859375 -10.25 19.890625 -9.59375 C 19.929688 -8.9375 19.953125 -8.457031 19.953125 -8.15625 C 19.953125 -7.5625 19.914062 -7.050781 19.84375 -6.625 C 19.53125 -5.101562 18.8125 -3.757812 17.6875 -2.59375 C 16.5625 -1.425781 15.207031 -0.613281 13.625 -0.15625 C 12.4375 0.175781 11.003906 0.34375 9.328125 0.34375 C 7.648438 0.34375 6.109375 0.210938 4.703125 -0.046875 C 3.296875 -0.316406 2.335938 -0.71875 1.828125 -1.25 C 1.671875 -1.40625 1.585938 -1.679688 1.578125 -2.078125 C 1.566406 -2.472656 1.5625 -2.691406 1.5625 -2.734375 C 1.5625 -3.398438 1.625 -4.164062 1.75 -5.03125 C 1.851562 -5.9375 1.957031 -6.390625 2.0625 -6.390625 C 2.082031 -6.390625 2.128906 -6.351562 2.203125 -6.28125 C 2.285156 -6.207031 2.414062 -6.171875 2.59375 -6.171875 C 2.644531 -6.171875 2.691406 -6.171875 2.734375 -6.171875 C 2.960938 -6.171875 3.570312 -6.09375 4.5625 -5.9375 C 5.601562 -5.707031 6.898438 -5.59375 8.453125 -5.59375 C 9.597656 -5.59375 10.320312 -5.613281 10.625 -5.65625 C 10.925781 -5.695312 11.269531 -5.816406 11.65625 -6.015625 C 12.113281 -6.242188 12.488281 -6.539062 12.78125 -6.90625 C 13.070312 -7.28125 13.242188 -7.695312 13.296875 -8.15625 C 13.296875 -8.226562 13.296875 -8.300781 13.296875 -8.375 C 13.296875 -8.5 13.273438 -8.617188 13.234375 -8.734375 C 13.191406 -8.847656 13.070312 -9.035156 12.875 -9.296875 C 12.539062 -9.703125 12.085938 -10.035156 11.515625 -10.296875 C 10.941406 -10.566406 9.894531 -10.914062 8.375 -11.34375 C 6.644531 -11.90625 5.539062 -12.300781 5.0625 -12.53125 C 4.582031 -12.78125 4.070312 -13.160156 3.53125 -13.671875 C 3 -14.179688 2.597656 -14.675781 2.328125 -15.15625 C 1.835938 -16.09375 1.566406 -16.914062 1.515625 -17.625 C 1.472656 -18.34375 1.453125 -18.828125 1.453125 -19.078125 C 1.453125 -20.015625 1.609375 -21 1.921875 -22.03125 C 2.242188 -23.0625 2.742188 -23.957031 3.421875 -24.71875 C 3.828125 -25.144531 4.5 -25.566406 5.4375 -25.984375 C 6.382812 -26.398438 7.289062 -26.6875 8.15625 -26.84375 Z M 8.15625 -26.84375 "/></g></g></g><g fill="#00a0e3" fill-opacity="1"><g transform="translate(640.766603, 326.157288)"><g><path d="M 8.15625 -26.84375 C 8.65625 -26.914062 9.804688 -26.953125 11.609375 -26.953125 C 12.804688 -26.929688 13.613281 -26.894531 14.03125 -26.84375 C 14.445312 -26.789062 14.9375 -26.664062 15.5 -26.46875 C 17.269531 -25.9375 18.25 -25.398438 18.4375 -24.859375 C 18.476562 -24.679688 18.5 -24.554688 18.5 -24.484375 C 18.5 -24.460938 18.5 -24.4375 18.5 -24.40625 C 18.457031 -24.332031 18.28125 -23.582031 17.96875 -22.15625 C 17.664062 -20.707031 17.488281 -19.945312 17.4375 -19.875 C 17.4375 -19.851562 17.398438 -19.84375 17.328125 -19.84375 C 17.148438 -19.84375 16.691406 -20.019531 15.953125 -20.375 C 15.117188 -20.78125 14.382812 -21.0625 13.75 -21.21875 C 13.113281 -21.382812 12.453125 -21.46875 11.765625 -21.46875 C 10.316406 -21.46875 9.265625 -21.113281 8.609375 -20.40625 C 8.273438 -20.03125 8.101562 -19.757812 8.09375 -19.59375 C 8.082031 -19.425781 8.078125 -19.34375 8.078125 -19.34375 C 8.078125 -19.007812 8.253906 -18.65625 8.609375 -18.28125 C 8.890625 -17.925781 9.28125 -17.632812 9.78125 -17.40625 C 10.289062 -17.175781 11.242188 -16.859375 12.640625 -16.453125 C 14.015625 -16.046875 14.878906 -15.738281 15.234375 -15.53125 C 16.148438 -15.15625 17.03125 -14.546875 17.875 -13.703125 C 18.726562 -12.867188 19.28125 -12.097656 19.53125 -11.390625 C 19.738281 -10.847656 19.859375 -10.25 19.890625 -9.59375 C 19.929688 -8.9375 19.953125 -8.457031 19.953125 -8.15625 C 19.953125 -7.5625 19.914062 -7.050781 19.84375 -6.625 C 19.53125 -5.101562 18.8125 -3.757812 17.6875 -2.59375 C 16.5625 -1.425781 15.207031 -0.613281 13.625 -0.15625 C 12.4375 0.175781 11.003906 0.34375 9.328125 0.34375 C 7.648438 0.34375 6.109375 0.210938 4.703125 -0.046875 C 3.296875 -0.316406 2.335938 -0.71875 1.828125 -1.25 C 1.671875 -1.40625 1.585938 -1.679688 1.578125 -2.078125 C 1.566406 -2.472656 1.5625 -2.691406 1.5625 -2.734375 C 1.5625 -3.398438 1.625 -4.164062 1.75 -5.03125 C 1.851562 -5.9375 1.957031 -6.390625 2.0625 -6.390625 C 2.082031 -6.390625 2.128906 -6.351562 2.203125 -6.28125 C 2.285156 -6.207031 2.414062 -6.171875 2.59375 -6.171875 C 2.644531 -6.171875 2.691406 -6.171875 2.734375 -6.171875 C 2.960938 -6.171875 3.570312 -6.09375 4.5625 -5.9375 C 5.601562 -5.707031 6.898438 -5.59375 8.453125 -5.59375 C 9.597656 -5.59375 10.320312 -5.613281 10.625 -5.65625 C 10.925781 -5.695312 11.269531 -5.816406 11.65625 -6.015625 C 12.113281 -6.242188 12.488281 -6.539062 12.78125 -6.90625 C 13.070312 -7.28125 13.242188 -7.695312 13.296875 -8.15625 C 13.296875 -8.226562 13.296875 -8.300781 13.296875 -8.375 C 13.296875 -8.5 13.273438 -8.617188 13.234375 -8.734375 C 13.191406 -8.847656 13.070312 -9.035156 12.875 -9.296875 C 12.539062 -9.703125 12.085938 -10.035156 11.515625 -10.296875 C 10.941406 -10.566406 9.894531 -10.914062 8.375 -11.34375 C 6.644531 -11.90625 5.539062 -12.300781 5.0625 -12.53125 C 4.582031 -12.78125 4.070312 -13.160156 3.53125 -13.671875 C 3 -14.179688 2.597656 -14.675781 2.328125 -15.15625 C 1.835938 -16.09375 1.566406 -16.914062 1.515625 -17.625 C 1.472656 -18.34375 1.453125 -18.828125 1.453125 -19.078125 C 1.453125 -20.015625 1.609375 -21 1.921875 -22.03125 C 2.242188 -23.0625 2.742188 -23.957031 3.421875 -24.71875 C 3.828125 -25.144531 4.5 -25.566406 5.4375 -25.984375 C 6.382812 -26.398438 7.289062 -26.6875 8.15625 -26.84375 Z M 8.15625 -26.84375 "/></g></g></g><g fill="#00a0e3" fill-opacity="1"><g transform="translate(662.162963, 326.157288)"><g><path d="M 3.28125 -26.28125 C 3.8125 -26.320312 6.519531 -26.34375 11.40625 -26.34375 C 16.289062 -26.34375 18.925781 -26.320312 19.3125 -26.28125 L 20.0625 -26.203125 L 19.984375 -21.671875 L 13.671875 -21.671875 L 8.453125 -21.703125 L 8.453125 -5.03125 L 20.296875 -5.03125 L 20.296875 -0.234375 L 2.671875 -0.234375 L 2.671875 -26.234375 Z M 12.296875 -16.328125 L 12.71875 -16.328125 C 12.875 -16.328125 13.015625 -16.328125 13.140625 -16.328125 L 13.40625 -16.328125 C 13.53125 -16.328125 13.644531 -16.328125 13.75 -16.328125 L 14.125 -16.328125 C 14.195312 -16.328125 14.273438 -16.328125 14.359375 -16.328125 L 14.578125 -16.328125 C 14.660156 -16.328125 14.726562 -16.328125 14.78125 -16.328125 L 15.390625 -16.328125 C 15.429688 -16.328125 15.492188 -16.328125 15.578125 -16.328125 L 15.71875 -16.328125 C 15.769531 -16.328125 15.820312 -16.328125 15.875 -16.328125 L 17.21875 -16.328125 C 17.238281 -16.328125 17.257812 -16.328125 17.28125 -16.328125 L 19.109375 -16.328125 L 19.15625 -15.65625 C 19.15625 -15.476562 19.15625 -15.273438 19.15625 -15.046875 C 19.15625 -14.554688 19.140625 -13.945312 19.109375 -13.21875 L 19 -11.46875 L 14.3125 -11.46875 C 11.601562 -11.46875 10.082031 -11.503906 9.75 -11.578125 L 9.328125 -11.65625 L 9.328125 -16.296875 Z M 12.296875 -16.328125 "/></g></g></g><g fill="#00a0e3" fill-opacity="1"><g transform="translate(684.092336, 326.157288)"><g><path d="M 3.125 -26.046875 C 3.351562 -26.242188 3.601562 -26.351562 3.875 -26.375 C 4.15625 -26.40625 4.984375 -26.421875 6.359375 -26.421875 C 8.160156 -26.421875 9.238281 -26.394531 9.59375 -26.34375 C 9.769531 -26.300781 9.925781 -26.207031 10.0625 -26.0625 C 10.207031 -25.925781 10.40625 -25.664062 10.65625 -25.28125 C 11.726562 -23.632812 13 -21.238281 14.46875 -18.09375 C 15.28125 -16.363281 15.722656 -15.460938 15.796875 -15.390625 C 15.847656 -15.390625 15.988281 -15.597656 16.21875 -16.015625 C 16.445312 -16.429688 16.757812 -17.015625 17.15625 -17.765625 C 17.550781 -18.515625 17.960938 -19.34375 18.390625 -20.25 C 19.359375 -22.15625 20.054688 -23.507812 20.484375 -24.3125 C 20.921875 -25.113281 21.25 -25.613281 21.46875 -25.8125 L 22.046875 -26.34375 L 25.28125 -26.390625 C 26.320312 -26.410156 27.082031 -26.421875 27.5625 -26.421875 C 27.820312 -26.421875 28.046875 -26.414062 28.234375 -26.40625 C 28.421875 -26.394531 28.539062 -26.3125 28.59375 -26.15625 C 28.625 -26.050781 28.65625 -25.988281 28.6875 -25.96875 C 28.726562 -25.945312 28.757812 -25.9375 28.78125 -25.9375 C 28.8125 -25.9375 28.828125 -25.9375 28.828125 -25.9375 C 28.847656 -25.9375 28.863281 -25.488281 28.875 -24.59375 C 28.894531 -23.707031 28.910156 -22.394531 28.921875 -20.65625 C 28.929688 -18.914062 28.9375 -16.914062 28.9375 -14.65625 L 28.9375 -0.765625 L 28.5625 -0.5 C 28.28125 -0.289062 28.0625 -0.1875 27.90625 -0.1875 C 27.757812 -0.1875 27.660156 -0.125 27.609375 0 C 27.554688 0.0507812 27.328125 0.078125 26.921875 0.078125 C 26.640625 0.078125 26.128906 0.0546875 25.390625 0.015625 C 24.660156 -0.015625 24.164062 -0.0976562 23.90625 -0.234375 C 23.601562 -0.378906 23.425781 -0.503906 23.375 -0.609375 C 23.226562 -0.859375 23.140625 -2.671875 23.109375 -6.046875 L 23.109375 -6.203125 C 23.109375 -6.234375 23.109375 -6.257812 23.109375 -6.28125 L 23.109375 -6.703125 C 23.109375 -6.753906 23.109375 -6.804688 23.109375 -6.859375 L 23.109375 -7.46875 C 23.109375 -7.519531 23.109375 -7.554688 23.109375 -7.578125 L 23.109375 -10.578125 L 23.15625 -17.75 L 22.65625 -16.828125 C 19.882812 -11.878906 18.320312 -9.148438 17.96875 -8.640625 L 17.59375 -8.1875 L 15.6875 -8.1875 C 14.769531 -8.1875 14.207031 -8.203125 14 -8.234375 C 13.800781 -8.273438 13.628906 -8.382812 13.484375 -8.5625 C 13.222656 -8.820312 12.332031 -10.472656 10.8125 -13.515625 L 8.53125 -18.09375 L 8.375 -0.640625 L 7.765625 -0.296875 C 7.484375 -0.148438 7.265625 -0.0664062 7.109375 -0.046875 C 6.960938 -0.0351562 6.789062 -0.03125 6.59375 -0.03125 C 6.382812 -0.03125 6.113281 -0.03125 5.78125 -0.03125 C 4.03125 -0.113281 3.054688 -0.253906 2.859375 -0.453125 C 2.773438 -0.535156 2.722656 -1.71875 2.703125 -4 C 2.679688 -6.28125 2.671875 -9.796875 2.671875 -14.546875 L 2.671875 -25.703125 Z M 3.125 -26.046875 "/></g></g></g><g fill="#00a0e3" fill-opacity="1"><g transform="translate(715.691942, 326.157288)"><g><path d="M 2.671875 0 L 2.671875 -26.65625 L 8.953125 -26.578125 C 11.941406 -26.554688 13.789062 -26.519531 14.5 -26.46875 C 15.21875 -26.414062 15.828125 -26.328125 16.328125 -26.203125 C 17.472656 -25.847656 18.453125 -25.363281 19.265625 -24.75 C 20.078125 -24.144531 20.648438 -23.484375 20.984375 -22.765625 C 21.335938 -22.035156 21.523438 -21.394531 21.546875 -20.84375 C 21.578125 -20.300781 21.59375 -19.96875 21.59375 -19.84375 C 21.59375 -19.050781 21.460938 -18.351562 21.203125 -17.75 C 21.003906 -17.238281 20.554688 -16.644531 19.859375 -15.96875 C 19.160156 -15.300781 18.378906 -14.703125 17.515625 -14.171875 C 17.441406 -14.140625 17.40625 -14.097656 17.40625 -14.046875 C 17.40625 -13.992188 17.453125 -13.945312 17.546875 -13.90625 C 17.679688 -13.851562 17.863281 -13.773438 18.09375 -13.671875 C 19 -13.285156 19.84375 -12.738281 20.625 -12.03125 C 21.414062 -11.320312 21.925781 -10.613281 22.15625 -9.90625 C 22.382812 -9.1875 22.5 -8.4375 22.5 -7.65625 C 22.5 -7.5 22.484375 -7.144531 22.453125 -6.59375 C 22.429688 -6.050781 22.21875 -5.375 21.8125 -4.5625 C 21.539062 -3.976562 21.066406 -3.335938 20.390625 -2.640625 C 19.710938 -1.941406 19.082031 -1.441406 18.5 -1.140625 C 17.613281 -0.679688 16.816406 -0.398438 16.109375 -0.296875 C 15.398438 -0.203125 14.191406 -0.128906 12.484375 -0.078125 C 10.890625 -0.0234375 9.738281 0 9.03125 0 C 8.800781 0 8.617188 0 8.484375 0 Z M 8.953125 -5.25 L 10.46875 -5.328125 C 12.320312 -5.429688 13.644531 -5.632812 14.4375 -5.9375 C 14.863281 -6.164062 15.222656 -6.5 15.515625 -6.9375 C 15.804688 -7.382812 15.953125 -7.835938 15.953125 -8.296875 C 15.953125 -9.191406 15.550781 -9.878906 14.75 -10.359375 C 13.957031 -10.835938 12.660156 -11.140625 10.859375 -11.265625 L 9.703125 -11.34375 L 9.703125 -16.1875 L 11.265625 -16.265625 C 12.304688 -16.304688 13.128906 -16.476562 13.734375 -16.78125 C 14.347656 -17.09375 14.804688 -17.566406 15.109375 -18.203125 C 15.242188 -18.429688 15.3125 -18.660156 15.3125 -18.890625 C 15.3125 -19.140625 15.203125 -19.453125 14.984375 -19.828125 C 14.765625 -20.210938 14.335938 -20.570312 13.703125 -20.90625 C 13.328125 -21.101562 12.773438 -21.265625 12.046875 -21.390625 C 11.328125 -21.523438 10.648438 -21.59375 10.015625 -21.59375 L 8.90625 -21.59375 Z M 8.953125 -5.25 "/></g></g></g><g fill="#00a0e3" fill-opacity="1"><g transform="translate(739.562977, 326.157288)"><g><path d="M 4.03125 -26.546875 C 5.25 -26.585938 6.203125 -26.609375 6.890625 -26.609375 C 7.578125 -26.609375 7.984375 -26.585938 8.109375 -26.546875 L 8.453125 -26.46875 L 8.453125 -5.21875 L 19.953125 -5.140625 L 19.984375 -3.3125 C 19.984375 -2.925781 19.984375 -2.570312 19.984375 -2.25 C 19.984375 -1.613281 19.972656 -1.101562 19.953125 -0.71875 L 19.84375 0.03125 L 10.703125 -0.03125 C 9.359375 -0.03125 8.0625 -0.0351562 6.8125 -0.046875 C 5.570312 -0.0664062 4.601562 -0.0859375 3.90625 -0.109375 C 3.207031 -0.140625 2.84375 -0.164062 2.8125 -0.1875 C 2.757812 -0.238281 2.722656 -2.941406 2.703125 -8.296875 C 2.679688 -13.648438 2.671875 -17.269531 2.671875 -19.15625 C 2.671875 -22.882812 2.691406 -24.988281 2.734375 -25.46875 L 2.8125 -26.46875 Z M 4.03125 -26.546875 "/></g></g></g><g fill="#00a0e3" fill-opacity="1"><g transform="translate(760.388273, 326.157288)"><g><path d="M 3.28125 -26.28125 C 3.8125 -26.320312 6.519531 -26.34375 11.40625 -26.34375 C 16.289062 -26.34375 18.925781 -26.320312 19.3125 -26.28125 L 20.0625 -26.203125 L 19.984375 -21.671875 L 13.671875 -21.671875 L 8.453125 -21.703125 L 8.453125 -5.03125 L 20.296875 -5.03125 L 20.296875 -0.234375 L 2.671875 -0.234375 L 2.671875 -26.234375 Z M 12.296875 -16.328125 L 12.71875 -16.328125 C 12.875 -16.328125 13.015625 -16.328125 13.140625 -16.328125 L 13.40625 -16.328125 C 13.53125 -16.328125 13.644531 -16.328125 13.75 -16.328125 L 14.125 -16.328125 C 14.195312 -16.328125 14.273438 -16.328125 14.359375 -16.328125 L 14.578125 -16.328125 C 14.660156 -16.328125 14.726562 -16.328125 14.78125 -16.328125 L 15.390625 -16.328125 C 15.429688 -16.328125 15.492188 -16.328125 15.578125 -16.328125 L 15.71875 -16.328125 C 15.769531 -16.328125 15.820312 -16.328125 15.875 -16.328125 L 17.21875 -16.328125 C 17.238281 -16.328125 17.257812 -16.328125 17.28125 -16.328125 L 19.109375 -16.328125 L 19.15625 -15.65625 C 19.15625 -15.476562 19.15625 -15.273438 19.15625 -15.046875 C 19.15625 -14.554688 19.140625 -13.945312 19.109375 -13.21875 L 19 -11.46875 L 14.3125 -11.46875 C 11.601562 -11.46875 10.082031 -11.503906 9.75 -11.578125 L 9.328125 -11.65625 L 9.328125 -16.296875 Z M 12.296875 -16.328125 "/></g></g></g><g fill="#00a0e3" fill-opacity="1"><g transform="translate(782.317646, 326.157288)"><g><path d="M 2.703125 -26.546875 C 2.703125 -26.566406 2.753906 -26.585938 2.859375 -26.609375 C 3.140625 -26.660156 4.039062 -26.6875 5.5625 -26.6875 L 8.53125 -26.6875 L 8.484375 -14.390625 L 8.484375 -0.03125 L 6.046875 0 C 5.441406 0.0195312 4.925781 0.03125 4.5 0.03125 C 3.863281 0.03125 3.429688 0.0078125 3.203125 -0.03125 L 2.703125 -0.15625 L 2.78125 -14.234375 C 2.800781 -16.929688 2.8125 -19.179688 2.8125 -20.984375 C 2.8125 -24.609375 2.773438 -26.460938 2.703125 -26.546875 Z M 2.703125 -26.546875 "/></g></g></g><g fill="#00a0e3" fill-opacity="1"><g transform="translate(793.510761, 326.157288)"><g><path d="M 11.1875 -26.546875 C 11.625 -26.617188 12.257812 -26.65625 13.09375 -26.65625 C 13.425781 -26.65625 14.03125 -26.640625 14.90625 -26.609375 C 15.78125 -26.585938 16.253906 -26.515625 16.328125 -26.390625 C 16.484375 -26.265625 17.53125 -23.648438 19.46875 -18.546875 C 21.414062 -13.441406 22.921875 -9.367188 23.984375 -6.328125 C 24.773438 -4.085938 25.347656 -2.507812 25.703125 -1.59375 L 26.34375 0.03125 L 19.84375 -0.03125 L 17.59375 -6.46875 L 14.203125 -6.515625 C 11.765625 -6.515625 10.40625 -6.523438 10.125 -6.546875 L 9.4375 -6.546875 L 6.515625 -0.03125 L 3.46875 0 C 2.78125 0 2.207031 0 1.75 0 C 0.832031 0 0.375 -0.0078125 0.375 -0.03125 C 0.375 -0.34375 2.140625 -5.066406 5.671875 -14.203125 C 6.304688 -15.804688 7.144531 -18.003906 8.1875 -20.796875 C 9.101562 -23.128906 9.710938 -24.660156 10.015625 -25.390625 C 10.265625 -25.929688 10.429688 -26.242188 10.515625 -26.328125 C 10.609375 -26.421875 10.832031 -26.492188 11.1875 -26.546875 Z M 14.4375 -15.390625 C 13.851562 -17.160156 13.535156 -18.097656 13.484375 -18.203125 C 13.453125 -18.203125 13.359375 -18 13.203125 -17.59375 C 13.054688 -17.1875 12.867188 -16.632812 12.640625 -15.9375 C 12.410156 -15.238281 12.15625 -14.484375 11.875 -13.671875 L 11.390625 -12.21875 L 13.359375 -12.21875 C 14.679688 -12.21875 15.34375 -12.269531 15.34375 -12.375 C 15.34375 -12.53125 15.039062 -13.535156 14.4375 -15.390625 Z M 14.4375 -15.390625 "/></g></g></g><g fill="#00a0e3" fill-opacity="1"><g transform="translate(820.237172, 326.157288)"><g/></g></g><g fill="#00a0e3" fill-opacity="1"><g transform="translate(831.658729, 326.157288)"><g><path d="M 4.90625 -26.578125 C 5.894531 -26.648438 7.179688 -26.6875 8.765625 -26.6875 C 9.546875 -26.6875 10.40625 -26.675781 11.34375 -26.65625 C 13.425781 -26.625 14.757812 -26.582031 15.34375 -26.53125 C 15.925781 -26.488281 16.484375 -26.40625 17.015625 -26.28125 C 17.734375 -26.050781 18.472656 -25.738281 19.234375 -25.34375 C 19.992188 -24.945312 20.445312 -24.648438 20.59375 -24.453125 C 20.769531 -24.191406 20.898438 -24.0625 20.984375 -24.0625 C 21.128906 -24.0625 21.46875 -23.726562 22 -23.0625 C 22.539062 -22.40625 22.960938 -21.8125 23.265625 -21.28125 C 23.847656 -20.1875 24.28125 -18.953125 24.5625 -17.578125 C 24.84375 -16.210938 24.984375 -14.921875 24.984375 -13.703125 C 24.984375 -13.398438 24.96875 -13.097656 24.9375 -12.796875 C 24.832031 -10.554688 24.328125 -8.507812 23.421875 -6.65625 C 22.523438 -4.8125 21.304688 -3.316406 19.765625 -2.171875 C 18.953125 -1.585938 18.164062 -1.132812 17.40625 -0.8125 C 16.644531 -0.5 15.664062 -0.226562 14.46875 0 C 13.9375 0.101562 13.414062 0.164062 12.90625 0.1875 C 12.394531 0.21875 11.835938 0.234375 11.234375 0.234375 C 10.648438 0.234375 9.914062 0.21875 9.03125 0.1875 C 6.257812 0.113281 4.835938 0.0507812 4.765625 0 C 4.679688 -0.0195312 4.320312 -0.0546875 3.6875 -0.109375 L 2.671875 -0.109375 L 2.671875 -13.171875 C 2.671875 -21.878906 2.734375 -26.269531 2.859375 -26.34375 C 2.929688 -26.425781 3.613281 -26.503906 4.90625 -26.578125 Z M 13.625 -21.0625 C 13.25 -21.132812 12.75 -21.179688 12.125 -21.203125 C 11.5 -21.234375 11.007812 -21.25 10.65625 -21.25 C 10.28125 -21.25 9.859375 -21.234375 9.390625 -21.203125 C 8.921875 -21.179688 8.6875 -21.132812 8.6875 -21.0625 C 8.738281 -20.925781 8.773438 -20.515625 8.796875 -19.828125 C 8.816406 -19.148438 8.828125 -16.628906 8.828125 -12.265625 L 8.875 -5.515625 L 10.734375 -5.5625 C 12.253906 -5.632812 13.476562 -5.90625 14.40625 -6.375 C 15.332031 -6.84375 16.140625 -7.546875 16.828125 -8.484375 C 17.535156 -9.503906 17.988281 -10.523438 18.1875 -11.546875 C 18.394531 -12.578125 18.5 -13.425781 18.5 -14.09375 C 18.5 -14.800781 18.382812 -15.648438 18.15625 -16.640625 C 17.9375 -17.628906 17.46875 -18.503906 16.75 -19.265625 C 15.84375 -20.203125 14.800781 -20.800781 13.625 -21.0625 Z M 13.625 -21.0625 "/></g></g></g><g fill="#00a0e3" fill-opacity="1"><g transform="translate(858.347089, 326.157288)"><g><path d="M 3.28125 -26.28125 C 3.8125 -26.320312 6.519531 -26.34375 11.40625 -26.34375 C 16.289062 -26.34375 18.925781 -26.320312 19.3125 -26.28125 L 20.0625 -26.203125 L 19.984375 -21.671875 L 13.671875 -21.671875 L 8.453125 -21.703125 L 8.453125 -5.03125 L 20.296875 -5.03125 L 20.296875 -0.234375 L 2.671875 -0.234375 L 2.671875 -26.234375 Z M 12.296875 -16.328125 L 12.71875 -16.328125 C 12.875 -16.328125 13.015625 -16.328125 13.140625 -16.328125 L 13.40625 -16.328125 C 13.53125 -16.328125 13.644531 -16.328125 13.75 -16.328125 L 14.125 -16.328125 C 14.195312 -16.328125 14.273438 -16.328125 14.359375 -16.328125 L 14.578125 -16.328125 C 14.660156 -16.328125 14.726562 -16.328125 14.78125 -16.328125 L 15.390625 -16.328125 C 15.429688 -16.328125 15.492188 -16.328125 15.578125 -16.328125 L 15.71875 -16.328125 C 15.769531 -16.328125 15.820312 -16.328125 15.875 -16.328125 L 17.21875 -16.328125 C 17.238281 -16.328125 17.257812 -16.328125 17.28125 -16.328125 L 19.109375 -16.328125 L 19.15625 -15.65625 C 19.15625 -15.476562 19.15625 -15.273438 19.15625 -15.046875 C 19.15625 -14.554688 19.140625 -13.945312 19.109375 -13.21875 L 19 -11.46875 L 14.3125 -11.46875 C 11.601562 -11.46875 10.082031 -11.503906 9.75 -11.578125 L 9.328125 -11.65625 L 9.328125 -16.296875 Z M 12.296875 -16.328125 "/></g></g></g><g fill="#00a0e3" fill-opacity="1"><g transform="translate(880.276462, 326.157288)"><g/></g></g><g fill="#00a0e3" fill-opacity="1"><g transform="translate(891.698019, 326.157288)"><g><path d="M 4.90625 -26.578125 C 5.894531 -26.648438 7.179688 -26.6875 8.765625 -26.6875 C 9.546875 -26.6875 10.40625 -26.675781 11.34375 -26.65625 C 13.425781 -26.625 14.757812 -26.582031 15.34375 -26.53125 C 15.925781 -26.488281 16.484375 -26.40625 17.015625 -26.28125 C 17.734375 -26.050781 18.472656 -25.738281 19.234375 -25.34375 C 19.992188 -24.945312 20.445312 -24.648438 20.59375 -24.453125 C 20.769531 -24.191406 20.898438 -24.0625 20.984375 -24.0625 C 21.128906 -24.0625 21.46875 -23.726562 22 -23.0625 C 22.539062 -22.40625 22.960938 -21.8125 23.265625 -21.28125 C 23.847656 -20.1875 24.28125 -18.953125 24.5625 -17.578125 C 24.84375 -16.210938 24.984375 -14.921875 24.984375 -13.703125 C 24.984375 -13.398438 24.96875 -13.097656 24.9375 -12.796875 C 24.832031 -10.554688 24.328125 -8.507812 23.421875 -6.65625 C 22.523438 -4.8125 21.304688 -3.316406 19.765625 -2.171875 C 18.953125 -1.585938 18.164062 -1.132812 17.40625 -0.8125 C 16.644531 -0.5 15.664062 -0.226562 14.46875 0 C 13.9375 0.101562 13.414062 0.164062 12.90625 0.1875 C 12.394531 0.21875 11.835938 0.234375 11.234375 0.234375 C 10.648438 0.234375 9.914062 0.21875 9.03125 0.1875 C 6.257812 0.113281 4.835938 0.0507812 4.765625 0 C 4.679688 -0.0195312 4.320312 -0.0546875 3.6875 -0.109375 L 2.671875 -0.109375 L 2.671875 -13.171875 C 2.671875 -21.878906 2.734375 -26.269531 2.859375 -26.34375 C 2.929688 -26.425781 3.613281 -26.503906 4.90625 -26.578125 Z M 13.625 -21.0625 C 13.25 -21.132812 12.75 -21.179688 12.125 -21.203125 C 11.5 -21.234375 11.007812 -21.25 10.65625 -21.25 C 10.28125 -21.25 9.859375 -21.234375 9.390625 -21.203125 C 8.921875 -21.179688 8.6875 -21.132812 8.6875 -21.0625 C 8.738281 -20.925781 8.773438 -20.515625 8.796875 -19.828125 C 8.816406 -19.148438 8.828125 -16.628906 8.828125 -12.265625 L 8.875 -5.515625 L 10.734375 -5.5625 C 12.253906 -5.632812 13.476562 -5.90625 14.40625 -6.375 C 15.332031 -6.84375 16.140625 -7.546875 16.828125 -8.484375 C 17.535156 -9.503906 17.988281 -10.523438 18.1875 -11.546875 C 18.394531 -12.578125 18.5 -13.425781 18.5 -14.09375 C 18.5 -14.800781 18.382812 -15.648438 18.15625 -16.640625 C 17.9375 -17.628906 17.46875 -18.503906 16.75 -19.265625 C 15.84375 -20.203125 14.800781 -20.800781 13.625 -21.0625 Z M 13.625 -21.0625 "/></g></g></g><g fill="#00a0e3" fill-opacity="1"><g transform="translate(918.386379, 326.157288)"><g><path d="M 3.28125 -26.28125 C 3.8125 -26.320312 6.519531 -26.34375 11.40625 -26.34375 C 16.289062 -26.34375 18.925781 -26.320312 19.3125 -26.28125 L 20.0625 -26.203125 L 19.984375 -21.671875 L 13.671875 -21.671875 L 8.453125 -21.703125 L 8.453125 -5.03125 L 20.296875 -5.03125 L 20.296875 -0.234375 L 2.671875 -0.234375 L 2.671875 -26.234375 Z M 12.296875 -16.328125 L 12.71875 -16.328125 C 12.875 -16.328125 13.015625 -16.328125 13.140625 -16.328125 L 13.40625 -16.328125 C 13.53125 -16.328125 13.644531 -16.328125 13.75 -16.328125 L 14.125 -16.328125 C 14.195312 -16.328125 14.273438 -16.328125 14.359375 -16.328125 L 14.578125 -16.328125 C 14.660156 -16.328125 14.726562 -16.328125 14.78125 -16.328125 L 15.390625 -16.328125 C 15.429688 -16.328125 15.492188 -16.328125 15.578125 -16.328125 L 15.71875 -16.328125 C 15.769531 -16.328125 15.820312 -16.328125 15.875 -16.328125 L 17.21875 -16.328125 C 17.238281 -16.328125 17.257812 -16.328125 17.28125 -16.328125 L 19.109375 -16.328125 L 19.15625 -15.65625 C 19.15625 -15.476562 19.15625 -15.273438 19.15625 -15.046875 C 19.15625 -14.554688 19.140625 -13.945312 19.109375 -13.21875 L 19 -11.46875 L 14.3125 -11.46875 C 11.601562 -11.46875 10.082031 -11.503906 9.75 -11.578125 L 9.328125 -11.65625 L 9.328125 -16.296875 Z M 12.296875 -16.328125 "/></g></g></g><g fill="#00a0e3" fill-opacity="1"><g transform="translate(940.315752, 326.157288)"><g><path d="M 2.515625 -17.671875 L 2.46875 -26.578125 L 8.765625 -26.578125 L 8.640625 -18.65625 L 8.640625 -18.546875 C 8.640625 -18.492188 8.640625 -18.441406 8.640625 -18.390625 L 8.640625 -18.203125 C 8.640625 -18.171875 8.640625 -18.132812 8.640625 -18.09375 L 8.640625 -17.828125 C 8.640625 -17.691406 8.640625 -17.578125 8.640625 -17.484375 L 8.640625 -17.359375 C 8.640625 -17.304688 8.640625 -17.269531 8.640625 -17.25 L 8.640625 -17.140625 C 8.640625 -16.984375 8.640625 -16.828125 8.640625 -16.671875 L 8.640625 -15.84375 C 8.640625 -15.789062 8.640625 -15.75 8.640625 -15.71875 L 8.640625 -15.421875 C 8.640625 -15.398438 8.640625 -15.375 8.640625 -15.34375 L 8.640625 -15.234375 C 8.640625 -15.203125 8.640625 -15.1875 8.640625 -15.1875 L 8.640625 -15 C 8.640625 -14.925781 8.640625 -14.863281 8.640625 -14.8125 L 8.640625 -14.734375 C 8.640625 -14.710938 8.640625 -14.6875 8.640625 -14.65625 L 8.640625 -14.578125 C 8.640625 -14.484375 8.640625 -14.382812 8.640625 -14.28125 L 8.640625 -13.5625 C 8.640625 -13.53125 8.640625 -13.488281 8.640625 -13.4375 L 8.640625 -13.21875 C 8.640625 -12.40625 8.660156 -11.828125 8.703125 -11.484375 C 8.742188 -11.140625 8.765625 -10.78125 8.765625 -10.40625 C 8.765625 -10.039062 8.8125 -9.742188 8.90625 -9.515625 C 9.007812 -9.285156 9.078125 -9.082031 9.109375 -8.90625 C 9.148438 -8.726562 9.25 -8.5 9.40625 -8.21875 C 9.65625 -7.71875 9.988281 -7.25 10.40625 -6.8125 C 10.832031 -6.382812 11.285156 -6.066406 11.765625 -5.859375 C 12.347656 -5.628906 12.929688 -5.515625 13.515625 -5.515625 C 13.972656 -5.515625 14.585938 -5.632812 15.359375 -5.875 C 16.140625 -6.125 16.859375 -6.664062 17.515625 -7.5 C 17.515625 -7.53125 17.523438 -7.566406 17.546875 -7.609375 C 17.984375 -8.296875 18.242188 -9.023438 18.328125 -9.796875 C 18.421875 -10.578125 18.476562 -13.023438 18.5 -17.140625 C 18.53125 -17.546875 18.546875 -17.875 18.546875 -18.125 L 18.625 -26.578125 L 24.59375 -26.578125 L 24.59375 -17.9375 C 24.59375 -16.6875 24.597656 -15.765625 24.609375 -15.171875 C 24.628906 -14.578125 24.640625 -14.128906 24.640625 -13.828125 C 24.640625 -13.265625 24.628906 -12.753906 24.609375 -12.296875 C 24.597656 -11.835938 24.59375 -11.457031 24.59375 -11.15625 C 24.59375 -10.851562 24.59375 -10.613281 24.59375 -10.4375 C 24.59375 -10.257812 24.59375 -10.117188 24.59375 -10.015625 C 24.59375 -9.660156 24.554688 -9.285156 24.484375 -8.890625 C 24.410156 -8.492188 24.359375 -8.171875 24.328125 -7.921875 C 24.304688 -7.671875 24.25 -7.390625 24.15625 -7.078125 C 24.070312 -6.773438 23.976562 -6.523438 23.875 -6.328125 C 23.769531 -6.140625 23.644531 -5.867188 23.5 -5.515625 C 23.289062 -5.035156 23.078125 -4.617188 22.859375 -4.265625 C 22.648438 -3.910156 22.34375 -3.492188 21.9375 -3.015625 C 21.582031 -2.628906 21.207031 -2.28125 20.8125 -1.96875 C 20.414062 -1.664062 20.117188 -1.453125 19.921875 -1.328125 C 19.128906 -0.867188 18.09375 -0.472656 16.8125 -0.140625 C 15.53125 0.179688 14.378906 0.34375 13.359375 0.34375 C 12.804688 0.34375 12.078125 0.257812 11.171875 0.09375 C 10.273438 -0.0703125 9.597656 -0.226562 9.140625 -0.375 C 8.378906 -0.65625 7.710938 -0.976562 7.140625 -1.34375 C 6.566406 -1.71875 6 -2.207031 5.4375 -2.8125 C 4.78125 -3.53125 4.253906 -4.238281 3.859375 -4.9375 C 3.472656 -5.632812 3.140625 -6.503906 2.859375 -7.546875 C 2.703125 -8.128906 2.609375 -8.875 2.578125 -9.78125 C 2.554688 -10.695312 2.535156 -13.328125 2.515625 -17.671875 Z M 2.515625 -17.671875 "/></g></g></g><g fill="#00a0e3" fill-opacity="1"><g transform="translate(967.42289, 326.157288)"><g><path d="M 8.15625 -26.84375 C 8.65625 -26.914062 9.804688 -26.953125 11.609375 -26.953125 C 12.804688 -26.929688 13.613281 -26.894531 14.03125 -26.84375 C 14.445312 -26.789062 14.9375 -26.664062 15.5 -26.46875 C 17.269531 -25.9375 18.25 -25.398438 18.4375 -24.859375 C 18.476562 -24.679688 18.5 -24.554688 18.5 -24.484375 C 18.5 -24.460938 18.5 -24.4375 18.5 -24.40625 C 18.457031 -24.332031 18.28125 -23.582031 17.96875 -22.15625 C 17.664062 -20.707031 17.488281 -19.945312 17.4375 -19.875 C 17.4375 -19.851562 17.398438 -19.84375 17.328125 -19.84375 C 17.148438 -19.84375 16.691406 -20.019531 15.953125 -20.375 C 15.117188 -20.78125 14.382812 -21.0625 13.75 -21.21875 C 13.113281 -21.382812 12.453125 -21.46875 11.765625 -21.46875 C 10.316406 -21.46875 9.265625 -21.113281 8.609375 -20.40625 C 8.273438 -20.03125 8.101562 -19.757812 8.09375 -19.59375 C 8.082031 -19.425781 8.078125 -19.34375 8.078125 -19.34375 C 8.078125 -19.007812 8.253906 -18.65625 8.609375 -18.28125 C 8.890625 -17.925781 9.28125 -17.632812 9.78125 -17.40625 C 10.289062 -17.175781 11.242188 -16.859375 12.640625 -16.453125 C 14.015625 -16.046875 14.878906 -15.738281 15.234375 -15.53125 C 16.148438 -15.15625 17.03125 -14.546875 17.875 -13.703125 C 18.726562 -12.867188 19.28125 -12.097656 19.53125 -11.390625 C 19.738281 -10.847656 19.859375 -10.25 19.890625 -9.59375 C 19.929688 -8.9375 19.953125 -8.457031 19.953125 -8.15625 C 19.953125 -7.5625 19.914062 -7.050781 19.84375 -6.625 C 19.53125 -5.101562 18.8125 -3.757812 17.6875 -2.59375 C 16.5625 -1.425781 15.207031 -0.613281 13.625 -0.15625 C 12.4375 0.175781 11.003906 0.34375 9.328125 0.34375 C 7.648438 0.34375 6.109375 0.210938 4.703125 -0.046875 C 3.296875 -0.316406 2.335938 -0.71875 1.828125 -1.25 C 1.671875 -1.40625 1.585938 -1.679688 1.578125 -2.078125 C 1.566406 -2.472656 1.5625 -2.691406 1.5625 -2.734375 C 1.5625 -3.398438 1.625 -4.164062 1.75 -5.03125 C 1.851562 -5.9375 1.957031 -6.390625 2.0625 -6.390625 C 2.082031 -6.390625 2.128906 -6.351562 2.203125 -6.28125 C 2.285156 -6.207031 2.414062 -6.171875 2.59375 -6.171875 C 2.644531 -6.171875 2.691406 -6.171875 2.734375 -6.171875 C 2.960938 -6.171875 3.570312 -6.09375 4.5625 -5.9375 C 5.601562 -5.707031 6.898438 -5.59375 8.453125 -5.59375 C 9.597656 -5.59375 10.320312 -5.613281 10.625 -5.65625 C 10.925781 -5.695312 11.269531 -5.816406 11.65625 -6.015625 C 12.113281 -6.242188 12.488281 -6.539062 12.78125 -6.90625 C 13.070312 -7.28125 13.242188 -7.695312 13.296875 -8.15625 C 13.296875 -8.226562 13.296875 -8.300781 13.296875 -8.375 C 13.296875 -8.5 13.273438 -8.617188 13.234375 -8.734375 C 13.191406 -8.847656 13.070312 -9.035156 12.875 -9.296875 C 12.539062 -9.703125 12.085938 -10.035156 11.515625 -10.296875 C 10.941406 -10.566406 9.894531 -10.914062 8.375 -11.34375 C 6.644531 -11.90625 5.539062 -12.300781 5.0625 -12.53125 C 4.582031 -12.78125 4.070312 -13.160156 3.53125 -13.671875 C 3 -14.179688 2.597656 -14.675781 2.328125 -15.15625 C 1.835938 -16.09375 1.566406 -16.914062 1.515625 -17.625 C 1.472656 -18.34375 1.453125 -18.828125 1.453125 -19.078125 C 1.453125 -20.015625 1.609375 -21 1.921875 -22.03125 C 2.242188 -23.0625 2.742188 -23.957031 3.421875 -24.71875 C 3.828125 -25.144531 4.5 -25.566406 5.4375 -25.984375 C 6.382812 -26.398438 7.289062 -26.6875 8.15625 -26.84375 Z M 8.15625 -26.84375 "/></g></g></g></svg>