<svg xmlns="http://www.w3.org/2000/svg" xmlns:xlink="http://www.w3.org/1999/xlink" width="500" zoomAndPan="magnify" viewBox="0 0 375 374.999991" height="500" preserveAspectRatio="xMidYMid meet" version="1.0"><defs><g/><clipPath id="2c0b9c40d9"><path d="M 157.160156 89.753906 L 213 89.753906 L 213 172 L 157.160156 172 Z M 157.160156 89.753906 " clip-rule="nonzero"/></clipPath><clipPath id="7116be67cc"><path d="M 180 100 L 211 100 L 211 172.253906 L 180 172.253906 Z M 180 100 " clip-rule="nonzero"/></clipPath><clipPath id="c193ca945c"><path d="M 134.460938 172.261719 L 240.210938 172.261719 L 240.210938 202.261719 L 134.460938 202.261719 Z M 134.460938 172.261719 " clip-rule="nonzero"/></clipPath><clipPath id="e5b1ea3ff7"><path d="M 118 67 L 252 67 L 252 183 L 118 183 Z M 118 67 " clip-rule="nonzero"/></clipPath><clipPath id="59b9058b80"><path d="M 291.007812 120.460938 L 187.902344 229.40625 L 83.859375 130.945312 L 186.960938 21.996094 Z M 291.007812 120.460938 " clip-rule="nonzero"/></clipPath><clipPath id="54ffadb693"><path d="M 291.007812 120.460938 L 187.902344 229.40625 L 83.859375 130.945312 L 186.960938 21.996094 Z M 291.007812 120.460938 " clip-rule="nonzero"/></clipPath><clipPath id="21cacc2d2d"><path d="M 83.992188 273 L 304.492188 273 L 304.492188 286 L 83.992188 286 Z M 83.992188 273 " clip-rule="nonzero"/></clipPath></defs><g clip-path="url(#2c0b9c40d9)"><path fill="#00a0e3" d="M 185.703125 89.769531 L 191.441406 89.769531 L 191.441406 107.238281 L 212.113281 107.238281 L 212.113281 120.917969 L 196.050781 120.917969 C 195.808594 120.78125 195.566406 120.648438 195.328125 120.515625 C 181.46875 112.925781 184.878906 103.179688 185.703125 89.769531 M 177.761719 89.769531 L 184.539062 89.769531 C 182.226562 95.671875 178.851562 102.460938 178.792969 108.804688 C 178.757812 112.847656 179.769531 116.722656 181.144531 120.492188 C 182.851562 125.171875 185.082031 129.78125 187.183594 134.296875 C 193.859375 148.613281 188.140625 159.765625 178.347656 170.710938 L 177.761719 171.367188 L 177.761719 120.917969 L 157.089844 120.917969 L 157.089844 107.238281 L 177.761719 107.238281 Z M 177.761719 89.769531 " fill-opacity="1" fill-rule="evenodd"/></g><g clip-path="url(#7116be67cc)"><path fill="#ff6a00" d="M 182.746094 100.609375 C 178.707031 110.933594 182.410156 118.65625 189.253906 133.335938 C 196.289062 148.417969 190.613281 160.429688 180.050781 172.234375 C 203.363281 168.132812 226.910156 140.414062 194.230469 122.515625 C 195.882812 125.855469 197.015625 129.085938 197.570312 132.214844 C 190.9375 121.152344 181.742188 117 182.746094 100.609375 " fill-opacity="1" fill-rule="evenodd"/></g><g clip-path="url(#c193ca945c)"><path fill="#00a0e3" d="M 227.160156 200.398438 C 231.25 200.296875 235.441406 199.707031 239.613281 198.632812 C 239.964844 198.535156 240.253906 198.285156 240.394531 197.949219 C 240.539062 197.609375 240.507812 197.226562 240.324219 196.910156 L 228.894531 177.492188 C 228.667969 177.097656 228.230469 176.878906 227.78125 176.917969 L 224.609375 177.207031 L 224.609375 177.246094 L 224.46875 176.996094 C 224.34375 176.785156 224.085938 176.699219 223.855469 176.808594 C 223.597656 176.933594 223.332031 177.050781 223.054688 177.152344 L 221.476562 174.398438 C 221.351562 174.1875 221.09375 174.097656 220.867188 174.210938 C 217.90625 175.636719 214.277344 175.835938 209.460938 174.820312 C 208.203125 174.554688 206.929688 174.234375 205.699219 173.917969 C 203.109375 173.257812 200.433594 172.585938 197.714844 172.394531 C 195.941406 172.277344 193.996094 172.765625 191.929688 173.839844 C 190.023438 174.835938 188.4375 176.117188 187.371094 177.113281 C 186.300781 176.117188 184.714844 174.835938 182.808594 173.839844 C 180.75 172.765625 178.804688 172.277344 177.023438 172.394531 C 174.296875 172.578125 171.628906 173.257812 169.039062 173.917969 C 167.808594 174.234375 166.535156 174.554688 165.277344 174.820312 C 160.460938 175.835938 156.832031 175.636719 153.871094 174.210938 C 153.652344 174.097656 153.386719 174.1875 153.261719 174.398438 L 151.707031 177.144531 C 151.429688 177.035156 151.164062 176.925781 150.90625 176.800781 C 150.6875 176.691406 150.417969 176.777344 150.292969 176.988281 L 150.160156 177.222656 L 150.160156 177.199219 L 147.222656 176.910156 C 146.769531 176.863281 146.328125 177.089844 146.101562 177.484375 L 134.671875 196.902344 C 134.492188 197.210938 134.460938 197.585938 134.59375 197.925781 C 134.726562 198.261719 135 198.511719 135.347656 198.617188 C 141.070312 200.34375 146.792969 201.097656 152.359375 200.859375 C 157.210938 200.65625 161.519531 199.738281 165.316406 198.921875 C 171.636719 197.570312 176.621094 196.511719 180.902344 199.3125 C 181.859375 199.941406 182.738281 200.726562 183.492188 201.644531 C 183.710938 201.914062 184.039062 202.070312 184.394531 202.070312 L 189.890625 202.070312 C 190.226562 202.070312 190.539062 201.929688 190.769531 201.675781 C 191.796875 200.515625 192.972656 199.542969 194.285156 198.796875 C 198.925781 196.125 203.886719 197.148438 210.164062 198.441406 C 214.96875 199.433594 220.441406 200.554688 227.160156 200.398438 Z M 223.871094 177.828125 L 224.820312 179.492188 L 224.820312 179.53125 L 224.835938 179.53125 L 234.007812 195.554688 C 230.175781 196.832031 225.527344 196.976562 219.4375 195.992188 C 217.640625 195.703125 215.558594 195.269531 213.367188 194.816406 C 209.308594 193.96875 205.117188 193.089844 201.734375 192.917969 C 198.972656 192.773438 196.042969 193.292969 193.492188 194.382812 C 191.664062 195.160156 190.070312 196.214844 188.773438 197.476562 C 191.625 191.808594 197.03125 190.773438 201.34375 190.992188 C 204.671875 191.164062 207.753906 191.800781 211.03125 192.476562 C 212.757812 192.828125 214.539062 193.199219 216.34375 193.488281 C 216.71875 193.550781 217.105469 193.613281 217.488281 193.675781 C 222.355469 194.46875 227.398438 195.292969 231.878906 193.644531 C 232.003906 193.597656 232.105469 193.496094 232.152344 193.363281 C 232.199219 193.238281 232.183594 193.089844 232.121094 192.972656 L 223.535156 177.96875 C 223.652344 177.921875 223.761719 177.875 223.871094 177.828125 Z M 197.667969 173.332031 C 200.304688 173.511719 202.9375 174.179688 205.488281 174.820312 C 206.726562 175.136719 208.015625 175.464844 209.285156 175.730469 C 214.105469 176.746094 217.8125 176.589844 220.898438 175.230469 L 231.039062 192.949219 C 226.910156 194.265625 222.207031 193.496094 217.648438 192.75 C 217.261719 192.6875 216.878906 192.625 216.5 192.5625 C 214.710938 192.28125 212.945312 191.910156 211.226562 191.558594 C 208.070312 190.90625 204.804688 190.230469 201.398438 190.050781 C 198.179688 189.886719 195.367188 190.433594 193.050781 191.683594 C 190.738281 192.933594 188.960938 194.863281 187.761719 197.4375 L 187.863281 177.953125 C 189.253906 176.636719 193.46875 173.046875 197.667969 173.332031 Z M 153.878906 175.230469 C 156.957031 176.589844 160.664062 176.746094 165.492188 175.730469 C 166.769531 175.464844 168.050781 175.136719 169.289062 174.820312 C 171.832031 174.179688 174.472656 173.503906 177.109375 173.332031 C 181.308594 173.046875 185.515625 176.628906 186.921875 177.953125 L 186.820312 197.273438 C 185.648438 194.550781 183.90625 192.578125 181.621094 191.410156 C 179.402344 190.269531 176.921875 190.019531 174.894531 190.019531 C 174.355469 190.019531 173.84375 190.035156 173.378906 190.058594 C 169.972656 190.230469 166.707031 190.90625 163.550781 191.566406 C 161.839844 191.917969 160.066406 192.289062 158.285156 192.570312 C 157.898438 192.632812 157.523438 192.695312 157.136719 192.757812 C 152.585938 193.503906 147.875 194.273438 143.746094 192.957031 Z M 150.898438 177.828125 C 151.007812 177.875 151.125 177.921875 151.234375 177.96875 L 142.648438 192.980469 C 142.578125 193.097656 142.570312 193.238281 142.617188 193.371094 C 142.664062 193.503906 142.765625 193.597656 142.890625 193.652344 C 147.375 195.308594 152.414062 194.484375 157.28125 193.683594 C 157.664062 193.621094 158.050781 193.558594 158.425781 193.496094 C 160.230469 193.207031 162.011719 192.835938 163.742188 192.484375 C 167.007812 191.808594 170.089844 191.164062 173.425781 191 C 177.941406 190.765625 183.269531 191.394531 185.964844 197.664062 C 184.652344 196.316406 183.027344 195.199219 181.160156 194.390625 C 178.664062 193.300781 175.773438 192.78125 173.027344 192.925781 C 169.636719 193.097656 165.445312 193.976562 161.394531 194.824219 C 159.195312 195.277344 157.121094 195.71875 155.324219 196 C 149.234375 196.976562 144.578125 196.839844 140.753906 195.5625 L 149.925781 179.539062 L 149.933594 179.539062 L 149.933594 179.515625 Z M 184.929688 199.738281 C 184.105469 198.820312 183.183594 198.019531 182.179688 197.359375 C 177.085938 194.023438 171.410156 195.230469 164.832031 196.636719 C 161.117188 197.429688 156.917969 198.324219 152.261719 198.519531 C 147.429688 198.726562 142.457031 198.144531 137.457031 196.785156 L 147.75 179.304688 L 148.910156 179.421875 L 139.671875 195.570312 C 139.601562 195.6875 139.59375 195.828125 139.640625 195.960938 C 139.6875 196.085938 139.789062 196.191406 139.914062 196.246094 C 143.996094 197.75 148.941406 197.964844 155.480469 196.910156 C 157.304688 196.621094 159.390625 196.183594 161.597656 195.726562 C 165.617188 194.886719 169.777344 194.015625 173.089844 193.851562 C 177.273438 193.636719 183.183594 195.066406 186.496094 199.738281 Z M 193.109375 196.769531 C 191.734375 197.5625 190.476562 198.558594 189.371094 199.738281 L 188.066406 199.738281 C 191.199219 195.359375 197.085938 193.613281 201.695312 193.851562 C 205.007812 194.023438 209.167969 194.886719 213.1875 195.726562 C 215.394531 196.191406 217.472656 196.621094 219.304688 196.910156 C 225.84375 197.964844 230.789062 197.742188 234.871094 196.246094 C 234.996094 196.199219 235.097656 196.09375 235.144531 195.960938 C 235.191406 195.835938 235.175781 195.6875 235.113281 195.570312 L 225.882812 179.429688 L 227.269531 179.304688 L 237.53125 196.730469 C 234.039062 197.53125 230.542969 197.980469 227.121094 198.058594 C 220.667969 198.214844 215.339844 197.117188 210.636719 196.148438 C 204.121094 194.816406 198.507812 193.652344 193.109375 196.769531 Z M 193.109375 196.769531 " fill-opacity="1" fill-rule="nonzero"/><path fill="#00a0e3" d="M 227.160156 200.398438 C 231.25 200.296875 235.441406 199.707031 239.613281 198.632812 C 239.964844 198.535156 240.253906 198.285156 240.394531 197.949219 C 240.539062 197.609375 240.507812 197.226562 240.324219 196.910156 L 228.894531 177.492188 C 228.667969 177.097656 228.230469 176.878906 227.78125 176.917969 L 224.609375 177.207031 L 224.609375 177.246094 L 224.46875 176.996094 C 224.34375 176.785156 224.085938 176.699219 223.855469 176.808594 C 223.597656 176.933594 223.332031 177.050781 223.054688 177.152344 L 221.476562 174.398438 C 221.351562 174.1875 221.09375 174.097656 220.867188 174.210938 C 217.90625 175.636719 214.277344 175.835938 209.460938 174.820312 C 208.203125 174.554688 206.929688 174.234375 205.699219 173.917969 C 203.109375 173.257812 200.433594 172.585938 197.714844 172.394531 C 195.941406 172.277344 193.996094 172.765625 191.929688 173.839844 C 190.023438 174.835938 188.4375 176.117188 187.371094 177.113281 C 186.300781 176.117188 184.714844 174.835938 182.808594 173.839844 C 180.75 172.765625 178.804688 172.277344 177.023438 172.394531 C 174.296875 172.578125 171.628906 173.257812 169.039062 173.917969 C 167.808594 174.234375 166.535156 174.554688 165.277344 174.820312 C 160.460938 175.835938 156.832031 175.636719 153.871094 174.210938 C 153.652344 174.097656 153.386719 174.1875 153.261719 174.398438 L 151.707031 177.144531 C 151.429688 177.035156 151.164062 176.925781 150.90625 176.800781 C 150.6875 176.691406 150.417969 176.777344 150.292969 176.988281 L 150.160156 177.222656 L 150.160156 177.199219 L 147.222656 176.910156 C 146.769531 176.863281 146.328125 177.089844 146.101562 177.484375 L 134.671875 196.902344 C 134.492188 197.210938 134.460938 197.585938 134.59375 197.925781 C 134.726562 198.261719 135 198.511719 135.347656 198.617188 C 141.070312 200.34375 146.792969 201.097656 152.359375 200.859375 C 157.210938 200.65625 161.519531 199.738281 165.316406 198.921875 C 171.636719 197.570312 176.621094 196.511719 180.902344 199.3125 C 181.859375 199.941406 182.738281 200.726562 183.492188 201.644531 C 183.710938 201.914062 184.039062 202.070312 184.394531 202.070312 L 189.890625 202.070312 C 190.226562 202.070312 190.539062 201.929688 190.769531 201.675781 C 191.796875 200.515625 192.972656 199.542969 194.285156 198.796875 C 198.925781 196.125 203.886719 197.148438 210.164062 198.441406 C 214.96875 199.433594 220.441406 200.554688 227.160156 200.398438 Z M 223.871094 177.828125 L 224.820312 179.492188 L 224.820312 179.53125 L 224.835938 179.53125 L 234.007812 195.554688 C 230.175781 196.832031 225.527344 196.976562 219.4375 195.992188 C 217.640625 195.703125 215.558594 195.269531 213.367188 194.816406 C 209.308594 193.96875 205.117188 193.089844 201.734375 192.917969 C 198.972656 192.773438 196.042969 193.292969 193.492188 194.382812 C 191.664062 195.160156 190.070312 196.214844 188.773438 197.476562 C 191.625 191.808594 197.03125 190.773438 201.34375 190.992188 C 204.671875 191.164062 207.753906 191.800781 211.03125 192.476562 C 212.757812 192.828125 214.539062 193.199219 216.34375 193.488281 C 216.71875 193.550781 217.105469 193.613281 217.488281 193.675781 C 222.355469 194.46875 227.398438 195.292969 231.878906 193.644531 C 232.003906 193.597656 232.105469 193.496094 232.152344 193.363281 C 232.199219 193.238281 232.183594 193.089844 232.121094 192.972656 L 223.535156 177.96875 C 223.652344 177.921875 223.761719 177.875 223.871094 177.828125 Z M 197.667969 173.332031 C 200.304688 173.511719 202.9375 174.179688 205.488281 174.820312 C 206.726562 175.136719 208.015625 175.464844 209.285156 175.730469 C 214.105469 176.746094 217.8125 176.589844 220.898438 175.230469 L 231.039062 192.949219 C 226.910156 194.265625 222.207031 193.496094 217.648438 192.75 C 217.261719 192.6875 216.878906 192.625 216.5 192.5625 C 214.710938 192.28125 212.945312 191.910156 211.226562 191.558594 C 208.070312 190.90625 204.804688 190.230469 201.398438 190.050781 C 198.179688 189.886719 195.367188 190.433594 193.050781 191.683594 C 190.738281 192.933594 188.960938 194.863281 187.761719 197.4375 L 187.863281 177.953125 C 189.253906 176.636719 193.46875 173.046875 197.667969 173.332031 Z M 153.878906 175.230469 C 156.957031 176.589844 160.664062 176.746094 165.492188 175.730469 C 166.769531 175.464844 168.050781 175.136719 169.289062 174.820312 C 171.832031 174.179688 174.472656 173.503906 177.109375 173.332031 C 181.308594 173.046875 185.515625 176.628906 186.921875 177.953125 L 186.820312 197.273438 C 185.648438 194.550781 183.90625 192.578125 181.621094 191.410156 C 179.402344 190.269531 176.921875 190.019531 174.894531 190.019531 C 174.355469 190.019531 173.84375 190.035156 173.378906 190.058594 C 169.972656 190.230469 166.707031 190.90625 163.550781 191.566406 C 161.839844 191.917969 160.066406 192.289062 158.285156 192.570312 C 157.898438 192.632812 157.523438 192.695312 157.136719 192.757812 C 152.585938 193.503906 147.875 194.273438 143.746094 192.957031 Z M 150.898438 177.828125 C 151.007812 177.875 151.125 177.921875 151.234375 177.96875 L 142.648438 192.980469 C 142.578125 193.097656 142.570312 193.238281 142.617188 193.371094 C 142.664062 193.503906 142.765625 193.597656 142.890625 193.652344 C 147.375 195.308594 152.414062 194.484375 157.28125 193.683594 C 157.664062 193.621094 158.050781 193.558594 158.425781 193.496094 C 160.230469 193.207031 162.011719 192.835938 163.742188 192.484375 C 167.007812 191.808594 170.089844 191.164062 173.425781 191 C 177.941406 190.765625 183.269531 191.394531 185.964844 197.664062 C 184.652344 196.316406 183.027344 195.199219 181.160156 194.390625 C 178.664062 193.300781 175.773438 192.78125 173.027344 192.925781 C 169.636719 193.097656 165.445312 193.976562 161.394531 194.824219 C 159.195312 195.277344 157.121094 195.71875 155.324219 196 C 149.234375 196.976562 144.578125 196.839844 140.753906 195.5625 L 149.925781 179.539062 L 149.933594 179.539062 L 149.933594 179.515625 Z M 184.929688 199.738281 C 184.105469 198.820312 183.183594 198.019531 182.179688 197.359375 C 177.085938 194.023438 171.410156 195.230469 164.832031 196.636719 C 161.117188 197.429688 156.917969 198.324219 152.261719 198.519531 C 147.429688 198.726562 142.457031 198.144531 137.457031 196.785156 L 147.75 179.304688 L 148.910156 179.421875 L 139.671875 195.570312 C 139.601562 195.6875 139.59375 195.828125 139.640625 195.960938 C 139.6875 196.085938 139.789062 196.191406 139.914062 196.246094 C 143.996094 197.75 148.941406 197.964844 155.480469 196.910156 C 157.304688 196.621094 159.390625 196.183594 161.597656 195.726562 C 165.617188 194.886719 169.777344 194.015625 173.089844 193.851562 C 177.273438 193.636719 183.183594 195.066406 186.496094 199.738281 Z M 193.109375 196.769531 C 191.734375 197.5625 190.476562 198.558594 189.371094 199.738281 L 188.066406 199.738281 C 191.199219 195.359375 197.085938 193.613281 201.695312 193.851562 C 205.007812 194.023438 209.167969 194.886719 213.1875 195.726562 C 215.394531 196.191406 217.472656 196.621094 219.304688 196.910156 C 225.84375 197.964844 230.789062 197.742188 234.871094 196.246094 C 234.996094 196.199219 235.097656 196.09375 235.144531 195.960938 C 235.191406 195.835938 235.175781 195.6875 235.113281 195.570312 L 225.882812 179.429688 L 227.269531 179.304688 L 237.53125 196.730469 C 234.039062 197.53125 230.542969 197.980469 227.121094 198.058594 C 220.667969 198.214844 215.339844 197.117188 210.636719 196.148438 C 204.121094 194.816406 198.507812 193.652344 193.109375 196.769531 Z M 193.109375 196.769531 " fill-opacity="1" fill-rule="nonzero"/></g><g clip-path="url(#e5b1ea3ff7)"><g clip-path="url(#59b9058b80)"><g clip-path="url(#54ffadb693)"><path fill="#ff6a00" d="M 140.4375 182.253906 C 120.136719 165.132812 112.890625 136.074219 121.957031 111.132812 C 122.675781 109.175781 123.480469 107.257812 124.378906 105.375 C 125.273438 103.492188 126.257812 101.65625 127.324219 99.863281 C 128.390625 98.074219 129.539062 96.335938 130.769531 94.652344 C 131.996094 92.96875 133.300781 91.347656 134.683594 89.785156 C 136.0625 88.222656 137.511719 86.726562 139.03125 85.300781 C 140.550781 83.875 142.136719 82.519531 143.78125 81.238281 C 145.425781 79.960938 147.128906 78.761719 148.886719 77.640625 C 150.644531 76.519531 152.449219 75.480469 154.304688 74.527344 C 156.15625 73.574219 158.050781 72.710938 159.984375 71.933594 C 161.921875 71.15625 163.886719 70.472656 165.886719 69.878906 C 167.882812 69.285156 169.90625 68.785156 171.949219 68.382812 C 173.996094 67.976562 176.054688 67.667969 178.128906 67.453125 C 180.203125 67.242188 182.28125 67.125 184.367188 67.105469 C 186.449219 67.085938 188.53125 67.164062 190.609375 67.335938 C 192.6875 67.511719 194.75 67.78125 196.804688 68.148438 C 198.855469 68.515625 200.886719 68.976562 202.894531 69.53125 C 251.550781 83.277344 268.613281 144.105469 231.929688 179.734375 C 232.984375 178.367188 235.292969 175.390625 236.222656 174.019531 L 239.347656 169.042969 C 243.304688 161.761719 245.867188 154.023438 247.035156 145.824219 C 247.421875 142.988281 247.617188 140.136719 247.621094 137.273438 C 247.621094 134.410156 247.433594 131.558594 247.050781 128.722656 C 246.667969 125.882812 246.09375 123.085938 245.335938 120.324219 C 244.574219 117.5625 243.628906 114.867188 242.503906 112.234375 C 241.378906 109.601562 240.082031 107.054688 238.613281 104.597656 C 237.144531 102.140625 235.519531 99.789062 233.730469 97.550781 C 231.945312 95.3125 230.019531 93.207031 227.945312 91.230469 C 225.875 89.25 223.683594 87.421875 221.363281 85.738281 C 220.0625 84.808594 218.730469 83.925781 217.363281 83.097656 C 215.996094 82.265625 214.597656 81.492188 213.171875 80.769531 C 211.746094 80.042969 210.292969 79.378906 208.8125 78.765625 C 207.335938 78.15625 205.835938 77.601562 204.316406 77.105469 C 202.792969 76.609375 201.257812 76.171875 199.703125 75.792969 C 198.148438 75.414062 196.582031 75.09375 195.003906 74.835938 C 193.425781 74.578125 191.839844 74.378906 190.246094 74.242188 C 188.652344 74.105469 187.054688 74.03125 185.457031 74.015625 C 183.855469 74 182.257812 74.046875 180.664062 74.15625 C 179.066406 74.261719 177.476562 74.429688 175.894531 74.660156 C 174.3125 74.890625 172.738281 75.179688 171.179688 75.53125 C 169.617188 75.882812 168.074219 76.289062 166.542969 76.757812 C 165.015625 77.226562 163.503906 77.753906 162.015625 78.339844 C 160.527344 78.921875 159.0625 79.5625 157.621094 80.261719 C 156.183594 80.957031 154.769531 81.707031 153.390625 82.511719 C 152.007812 83.316406 150.65625 84.175781 149.339844 85.082031 C 148.089844 85.957031 146.875 86.878906 145.691406 87.839844 C 144.511719 88.804688 143.363281 89.808594 142.253906 90.851562 C 141.140625 91.898438 140.070312 92.984375 139.039062 94.105469 C 138.007812 95.226562 137.015625 96.386719 136.066406 97.578125 C 135.117188 98.773438 134.210938 100 133.351562 101.257812 C 132.488281 102.519531 131.675781 103.804688 130.90625 105.125 C 130.136719 106.441406 129.417969 107.785156 128.746094 109.15625 C 128.074219 110.523438 127.453125 111.914062 126.882812 113.328125 C 126.308594 114.742188 125.789062 116.175781 125.320312 117.628906 C 124.855469 119.078125 124.4375 120.546875 124.074219 122.027344 C 123.710938 123.507812 123.402344 125 123.148438 126.503906 C 122.890625 128.007812 122.691406 129.519531 122.542969 131.039062 C 122.398438 132.554688 122.304688 134.078125 122.265625 135.601562 C 122.230469 137.125 122.246094 138.652344 122.320312 140.175781 C 122.390625 141.699219 122.519531 143.214844 122.699219 144.730469 C 122.882812 146.246094 123.117188 147.75 123.40625 149.25 C 125.03125 157.371094 128.015625 164.957031 132.359375 172.007812 C 133.320312 173.40625 134.8125 175.421875 135.753906 176.804688 C 136.699219 178.191406 139.285156 180.941406 140.359375 182.273438 Z M 140.4375 182.253906 " fill-opacity="1" fill-rule="nonzero"/></g></g></g><g clip-path="url(#21cacc2d2d)"><path fill="#00a0e3" d="M 83.992188 284.441406 C 118.839844 268.425781 157.6875 274.292969 194.40625 278.53125 C 221.960938 281.640625 249.816406 284.140625 277.433594 280.460938 C 286.621094 279.316406 295.734375 277.511719 304.785156 275.351562 C 293.78125 279.136719 282.363281 281.871094 270.824219 283.566406 C 245.332031 287.335938 219.433594 285.363281 193.964844 282.570312 C 157.074219 278.203125 120.058594 271.609375 83.992188 284.441406 Z M 83.992188 284.441406 " fill-opacity="1" fill-rule="nonzero"/></g><g fill="#ff6a00" fill-opacity="0.149"><g transform="translate(47.792945, 267.353918)"><g><path d="M 29.34375 -25.34375 C 29.34375 -21.8125 28.257812 -19.132812 26.09375 -17.3125 C 23.925781 -15.5 20.828125 -14.59375 16.796875 -14.59375 L 10.296875 -14.59375 L 10.296875 0 L 3.40625 0 L 3.40625 -36.09375 L 16.75 -36.09375 C 20.78125 -36.09375 23.882812 -35.1875 26.0625 -33.375 C 28.25 -31.5625 29.34375 -28.882812 29.34375 -25.34375 Z M 22.453125 -25.34375 C 22.453125 -27.175781 21.914062 -28.492188 20.84375 -29.296875 C 19.78125 -30.097656 18.164062 -30.5 16 -30.5 L 10.296875 -30.5 L 10.296875 -20.203125 L 16 -20.203125 C 18.164062 -20.203125 19.78125 -20.597656 20.84375 -21.390625 C 21.914062 -22.191406 22.453125 -23.507812 22.453125 -25.34375 Z M 22.453125 -25.34375 "/></g></g></g><g fill="#ff6a00" fill-opacity="0.149"><g transform="translate(78.33822, 267.353918)"><g><path d="M 23.09375 -14.703125 L 23.09375 -12 L 7.40625 -12 C 7.4375 -9.632812 7.925781 -7.789062 8.875 -6.46875 C 9.820312 -5.15625 11.128906 -4.5 12.796875 -4.5 C 13.960938 -4.5 14.96875 -4.710938 15.8125 -5.140625 C 16.664062 -5.578125 17.59375 -6.394531 18.59375 -7.59375 L 23.09375 -4.796875 C 21.894531 -2.992188 20.410156 -1.660156 18.640625 -0.796875 C 16.878906 0.0664062 14.75 0.5 12.25 0.5 C 10.019531 0.5 8.070312 -0.046875 6.40625 -1.140625 C 4.738281 -2.242188 3.453125 -3.8125 2.546875 -5.84375 C 1.648438 -7.882812 1.203125 -10.269531 1.203125 -13 C 1.203125 -17.132812 2.207031 -20.414062 4.21875 -22.84375 C 6.238281 -25.28125 9.015625 -26.5 12.546875 -26.5 C 14.847656 -26.5 16.789062 -25.914062 18.375 -24.75 C 19.957031 -23.582031 21.140625 -22.085938 21.921875 -20.265625 C 22.703125 -18.453125 23.09375 -16.597656 23.09375 -14.703125 Z M 12.40625 -21.90625 C 10.90625 -21.90625 9.710938 -21.410156 8.828125 -20.421875 C 7.941406 -19.441406 7.46875 -18.035156 7.40625 -16.203125 L 17.40625 -16.203125 C 17.363281 -17.960938 16.894531 -19.351562 16 -20.375 C 15.101562 -21.394531 13.90625 -21.90625 12.40625 -21.90625 Z M 12.40625 -21.90625 "/></g></g></g><g fill="#ff6a00" fill-opacity="0.149"><g transform="translate(103.334347, 267.353918)"><g><path d="M 3.84375 0 L 3.84375 -36.09375 L 10.046875 -36.09375 L 10.046875 0 Z M 3.84375 0 "/></g></g></g><g fill="#ff6a00" fill-opacity="0.149"><g transform="translate(117.2322, 267.353918)"><g><path d="M 23.796875 -13 C 23.796875 -8.863281 22.785156 -5.578125 20.765625 -3.140625 C 18.753906 -0.710938 16 0.5 12.5 0.5 C 10.195312 0.5 8.195312 -0.046875 6.5 -1.140625 C 4.800781 -2.242188 3.492188 -3.8125 2.578125 -5.84375 C 1.660156 -7.882812 1.203125 -10.269531 1.203125 -13 C 1.203125 -17.195312 2.222656 -20.492188 4.265625 -22.890625 C 6.316406 -25.296875 9.0625 -26.5 12.5 -26.5 C 16 -26.5 18.753906 -25.296875 20.765625 -22.890625 C 22.785156 -20.492188 23.796875 -17.195312 23.796875 -13 Z M 12.5 -4.5 C 14.226562 -4.5 15.507812 -5.179688 16.34375 -6.546875 C 17.175781 -7.910156 17.59375 -10.0625 17.59375 -13 C 17.59375 -15.863281 17.175781 -17.992188 16.34375 -19.390625 C 15.507812 -20.796875 14.226562 -21.5 12.5 -21.5 C 10.726562 -21.5 9.4375 -20.789062 8.625 -19.375 C 7.8125 -17.957031 7.40625 -15.832031 7.40625 -13 C 7.40625 -10.0625 7.820312 -7.910156 8.65625 -6.546875 C 9.488281 -5.179688 10.769531 -4.5 12.5 -4.5 Z M 12.5 -4.5 "/></g></g></g><g fill="#ff6a00" fill-opacity="0.149"><g transform="translate(142.228327, 267.353918)"><g><path d="M 15.5 -26 L 15.5 -21 L 10.40625 -21 L 10.40625 -6.203125 C 10.40625 -5.597656 10.570312 -5.160156 10.90625 -4.890625 C 11.238281 -4.628906 11.820312 -4.5 12.65625 -4.5 C 13.21875 -4.5 14.164062 -4.664062 15.5 -5 L 15.5 0.09375 C 13.300781 0.363281 11.664062 0.5 10.59375 0.5 C 6.332031 0.5 4.203125 -1.484375 4.203125 -5.453125 L 4.203125 -21 L 0.59375 -21 L 0.59375 -26 L 4.203125 -26 L 4.203125 -34.59375 L 10.40625 -34.59375 L 10.40625 -26 Z M 15.5 -26 "/></g></g></g><g fill="#ff6a00" fill-opacity="0.149"><g transform="translate(158.875748, 267.353918)"><g><path d="M 22 -16.25 L 22 -3.546875 C 22 -2.078125 22.164062 -0.894531 22.5 0 L 16.453125 0 L 16.046875 -2.25 C 13.410156 -0.414062 10.726562 0.5 8 0.5 C 5.832031 0.5 4.109375 -0.148438 2.828125 -1.453125 C 1.546875 -2.753906 0.90625 -4.40625 0.90625 -6.40625 C 0.90625 -9.332031 2.128906 -11.617188 4.578125 -13.265625 C 7.023438 -14.921875 10.765625 -16.03125 15.796875 -16.59375 L 15.796875 -18.796875 C 15.796875 -19.765625 15.445312 -20.523438 14.75 -21.078125 C 14.050781 -21.628906 13.117188 -21.90625 11.953125 -21.90625 C 9.710938 -21.90625 7.828125 -20.835938 6.296875 -18.703125 L 2.296875 -21.75 C 3.160156 -23.113281 4.46875 -24.242188 6.21875 -25.140625 C 7.96875 -26.046875 9.8125 -26.5 11.75 -26.5 C 15.414062 -26.5 18.039062 -25.695312 19.625 -24.09375 C 21.207031 -22.5 22 -19.882812 22 -16.25 Z M 10.09375 -4.09375 C 10.863281 -4.09375 11.773438 -4.351562 12.828125 -4.875 C 13.878906 -5.394531 14.867188 -6.050781 15.796875 -6.84375 L 15.796875 -12.453125 C 12.566406 -11.921875 10.304688 -11.238281 9.015625 -10.40625 C 7.734375 -9.570312 7.09375 -8.488281 7.09375 -7.15625 C 7.09375 -6.1875 7.367188 -5.429688 7.921875 -4.890625 C 8.472656 -4.359375 9.195312 -4.09375 10.09375 -4.09375 Z M 10.09375 -4.09375 "/></g></g></g><g fill="#ff6a00" fill-opacity="0.149"><g transform="translate(183.871875, 267.353918)"><g><path d="M 19.75 -22.546875 L 15.84375 -19.15625 C 14.144531 -20.988281 12.53125 -21.90625 11 -21.90625 C 9.832031 -21.90625 8.957031 -21.675781 8.375 -21.21875 C 7.789062 -20.769531 7.5 -20.144531 7.5 -19.34375 C 7.5 -18.644531 7.859375 -18.03125 8.578125 -17.5 C 9.296875 -16.96875 10.488281 -16.4375 12.15625 -15.90625 C 15.25 -14.863281 17.410156 -13.675781 18.640625 -12.34375 C 19.878906 -11.007812 20.5 -9.3125 20.5 -7.25 C 20.5 -4.78125 19.65625 -2.867188 17.96875 -1.515625 C 16.289062 -0.171875 13.953125 0.5 10.953125 0.5 C 6.785156 0.5 3.5 -1.25 1.09375 -4.75 L 5.25 -7.84375 C 7.050781 -5.34375 9.066406 -4.09375 11.296875 -4.09375 C 12.398438 -4.09375 13.289062 -4.367188 13.96875 -4.921875 C 14.65625 -5.472656 15 -6.179688 15 -7.046875 C 15 -7.785156 14.625 -8.421875 13.875 -8.953125 C 13.125 -9.484375 11.898438 -10.050781 10.203125 -10.65625 C 7.171875 -11.6875 5.046875 -12.84375 3.828125 -14.125 C 2.609375 -15.40625 2 -17.015625 2 -18.953125 C 2 -20.453125 2.378906 -21.773438 3.140625 -22.921875 C 3.910156 -24.078125 4.953125 -24.960938 6.265625 -25.578125 C 7.585938 -26.191406 9.03125 -26.5 10.59375 -26.5 C 12.394531 -26.5 14.09375 -26.15625 15.6875 -25.46875 C 17.289062 -24.789062 18.644531 -23.816406 19.75 -22.546875 Z M 19.75 -22.546875 "/></g></g></g><g fill="#ff6a00" fill-opacity="0.149"><g transform="translate(206.068433, 267.353918)"><g/></g></g><g fill="#ff6a00" fill-opacity="0.149"><g transform="translate(221.316071, 267.353918)"><g><path d="M 25.546875 -11.5 L 25.546875 -36.09375 L 32.046875 -36.09375 L 32.046875 0 L 25.40625 0 L 10.65625 -25.703125 L 10.546875 -25.703125 L 10.546875 0 L 4.046875 0 L 4.046875 -36.09375 L 11.25 -36.09375 L 25.453125 -11.5 Z M 25.546875 -11.5 "/></g></g></g><g fill="#ff6a00" fill-opacity="0.149"><g transform="translate(257.410471, 267.353918)"><g><path d="M 23.796875 -13 C 23.796875 -8.863281 22.785156 -5.578125 20.765625 -3.140625 C 18.753906 -0.710938 16 0.5 12.5 0.5 C 10.195312 0.5 8.195312 -0.046875 6.5 -1.140625 C 4.800781 -2.242188 3.492188 -3.8125 2.578125 -5.84375 C 1.660156 -7.882812 1.203125 -10.269531 1.203125 -13 C 1.203125 -17.195312 2.222656 -20.492188 4.265625 -22.890625 C 6.316406 -25.296875 9.0625 -26.5 12.5 -26.5 C 16 -26.5 18.753906 -25.296875 20.765625 -22.890625 C 22.785156 -20.492188 23.796875 -17.195312 23.796875 -13 Z M 12.5 -4.5 C 14.226562 -4.5 15.507812 -5.179688 16.34375 -6.546875 C 17.175781 -7.910156 17.59375 -10.0625 17.59375 -13 C 17.59375 -15.863281 17.175781 -17.992188 16.34375 -19.390625 C 15.507812 -20.796875 14.226562 -21.5 12.5 -21.5 C 10.726562 -21.5 9.4375 -20.789062 8.625 -19.375 C 7.8125 -17.957031 7.40625 -15.832031 7.40625 -13 C 7.40625 -10.0625 7.820312 -7.910156 8.65625 -6.546875 C 9.488281 -5.179688 10.769531 -4.5 12.5 -4.5 Z M 12.5 -4.5 "/></g></g></g><g fill="#ff6a00" fill-opacity="0.149"><g transform="translate(282.406609, 267.353918)"><g><path d="M 14.75 -20 C 13.882812 -20 13.007812 -19.722656 12.125 -19.171875 C 11.238281 -18.617188 10.492188 -17.984375 9.890625 -17.265625 C 9.296875 -16.554688 9 -16.035156 9 -15.703125 L 9 0 L 2.796875 0 L 2.796875 -26 L 8.5 -26 L 8.5 -21.546875 L 8.59375 -21.546875 C 9.394531 -23.179688 10.378906 -24.40625 11.546875 -25.21875 C 12.710938 -26.039062 14.164062 -26.46875 15.90625 -26.5 L 15.90625 -19.953125 C 15.832031 -19.953125 15.71875 -19.957031 15.5625 -19.96875 C 15.414062 -19.988281 15.144531 -20 14.75 -20 Z M 14.75 -20 "/></g></g></g><g fill="#ff6a00" fill-opacity="0.149"><g transform="translate(299.054031, 267.353918)"><g><path d="M 15.5 -26 L 15.5 -21 L 10.40625 -21 L 10.40625 -6.203125 C 10.40625 -5.597656 10.570312 -5.160156 10.90625 -4.890625 C 11.238281 -4.628906 11.820312 -4.5 12.65625 -4.5 C 13.21875 -4.5 14.164062 -4.664062 15.5 -5 L 15.5 0.09375 C 13.300781 0.363281 11.664062 0.5 10.59375 0.5 C 6.332031 0.5 4.203125 -1.484375 4.203125 -5.453125 L 4.203125 -21 L 0.59375 -21 L 0.59375 -26 L 4.203125 -26 L 4.203125 -34.59375 L 10.40625 -34.59375 L 10.40625 -26 Z M 15.5 -26 "/></g></g></g><g fill="#ff6a00" fill-opacity="0.149"><g transform="translate(315.701453, 267.353918)"><g><path d="M 23.09375 -14.703125 L 23.09375 -12 L 7.40625 -12 C 7.4375 -9.632812 7.925781 -7.789062 8.875 -6.46875 C 9.820312 -5.15625 11.128906 -4.5 12.796875 -4.5 C 13.960938 -4.5 14.96875 -4.710938 15.8125 -5.140625 C 16.664062 -5.578125 17.59375 -6.394531 18.59375 -7.59375 L 23.09375 -4.796875 C 21.894531 -2.992188 20.410156 -1.660156 18.640625 -0.796875 C 16.878906 0.0664062 14.75 0.5 12.25 0.5 C 10.019531 0.5 8.070312 -0.046875 6.40625 -1.140625 C 4.738281 -2.242188 3.453125 -3.8125 2.546875 -5.84375 C 1.648438 -7.882812 1.203125 -10.269531 1.203125 -13 C 1.203125 -17.132812 2.207031 -20.414062 4.21875 -22.84375 C 6.238281 -25.28125 9.015625 -26.5 12.546875 -26.5 C 14.847656 -26.5 16.789062 -25.914062 18.375 -24.75 C 19.957031 -23.582031 21.140625 -22.085938 21.921875 -20.265625 C 22.703125 -18.453125 23.09375 -16.597656 23.09375 -14.703125 Z M 12.40625 -21.90625 C 10.90625 -21.90625 9.710938 -21.410156 8.828125 -20.421875 C 7.941406 -19.441406 7.46875 -18.035156 7.40625 -16.203125 L 17.40625 -16.203125 C 17.363281 -17.960938 16.894531 -19.351562 16 -20.375 C 15.101562 -21.394531 13.90625 -21.90625 12.40625 -21.90625 Z M 12.40625 -21.90625 "/></g></g></g><g fill="#ff6a00" fill-opacity="1"><g transform="translate(45.539065, 265.100037)"><g><path d="M 29.34375 -25.34375 C 29.34375 -21.8125 28.257812 -19.132812 26.09375 -17.3125 C 23.925781 -15.5 20.828125 -14.59375 16.796875 -14.59375 L 10.296875 -14.59375 L 10.296875 0 L 3.40625 0 L 3.40625 -36.09375 L 16.75 -36.09375 C 20.78125 -36.09375 23.882812 -35.1875 26.0625 -33.375 C 28.25 -31.5625 29.34375 -28.882812 29.34375 -25.34375 Z M 22.453125 -25.34375 C 22.453125 -27.175781 21.914062 -28.492188 20.84375 -29.296875 C 19.78125 -30.097656 18.164062 -30.5 16 -30.5 L 10.296875 -30.5 L 10.296875 -20.203125 L 16 -20.203125 C 18.164062 -20.203125 19.78125 -20.597656 20.84375 -21.390625 C 21.914062 -22.191406 22.453125 -23.507812 22.453125 -25.34375 Z M 22.453125 -25.34375 "/></g></g></g><g fill="#ff6a00" fill-opacity="1"><g transform="translate(76.08434, 265.100037)"><g><path d="M 23.09375 -14.703125 L 23.09375 -12 L 7.40625 -12 C 7.4375 -9.632812 7.925781 -7.789062 8.875 -6.46875 C 9.820312 -5.15625 11.128906 -4.5 12.796875 -4.5 C 13.960938 -4.5 14.96875 -4.710938 15.8125 -5.140625 C 16.664062 -5.578125 17.59375 -6.394531 18.59375 -7.59375 L 23.09375 -4.796875 C 21.894531 -2.992188 20.410156 -1.660156 18.640625 -0.796875 C 16.878906 0.0664062 14.75 0.5 12.25 0.5 C 10.019531 0.5 8.070312 -0.046875 6.40625 -1.140625 C 4.738281 -2.242188 3.453125 -3.8125 2.546875 -5.84375 C 1.648438 -7.882812 1.203125 -10.269531 1.203125 -13 C 1.203125 -17.132812 2.207031 -20.414062 4.21875 -22.84375 C 6.238281 -25.28125 9.015625 -26.5 12.546875 -26.5 C 14.847656 -26.5 16.789062 -25.914062 18.375 -24.75 C 19.957031 -23.582031 21.140625 -22.085938 21.921875 -20.265625 C 22.703125 -18.453125 23.09375 -16.597656 23.09375 -14.703125 Z M 12.40625 -21.90625 C 10.90625 -21.90625 9.710938 -21.410156 8.828125 -20.421875 C 7.941406 -19.441406 7.46875 -18.035156 7.40625 -16.203125 L 17.40625 -16.203125 C 17.363281 -17.960938 16.894531 -19.351562 16 -20.375 C 15.101562 -21.394531 13.90625 -21.90625 12.40625 -21.90625 Z M 12.40625 -21.90625 "/></g></g></g><g fill="#ff6a00" fill-opacity="1"><g transform="translate(101.080466, 265.100037)"><g><path d="M 3.84375 0 L 3.84375 -36.09375 L 10.046875 -36.09375 L 10.046875 0 Z M 3.84375 0 "/></g></g></g><g fill="#ff6a00" fill-opacity="1"><g transform="translate(114.978319, 265.100037)"><g><path d="M 23.796875 -13 C 23.796875 -8.863281 22.785156 -5.578125 20.765625 -3.140625 C 18.753906 -0.710938 16 0.5 12.5 0.5 C 10.195312 0.5 8.195312 -0.046875 6.5 -1.140625 C 4.800781 -2.242188 3.492188 -3.8125 2.578125 -5.84375 C 1.660156 -7.882812 1.203125 -10.269531 1.203125 -13 C 1.203125 -17.195312 2.222656 -20.492188 4.265625 -22.890625 C 6.316406 -25.296875 9.0625 -26.5 12.5 -26.5 C 16 -26.5 18.753906 -25.296875 20.765625 -22.890625 C 22.785156 -20.492188 23.796875 -17.195312 23.796875 -13 Z M 12.5 -4.5 C 14.226562 -4.5 15.507812 -5.179688 16.34375 -6.546875 C 17.175781 -7.910156 17.59375 -10.0625 17.59375 -13 C 17.59375 -15.863281 17.175781 -17.992188 16.34375 -19.390625 C 15.507812 -20.796875 14.226562 -21.5 12.5 -21.5 C 10.726562 -21.5 9.4375 -20.789062 8.625 -19.375 C 7.8125 -17.957031 7.40625 -15.832031 7.40625 -13 C 7.40625 -10.0625 7.820312 -7.910156 8.65625 -6.546875 C 9.488281 -5.179688 10.769531 -4.5 12.5 -4.5 Z M 12.5 -4.5 "/></g></g></g><g fill="#ff6a00" fill-opacity="1"><g transform="translate(139.974446, 265.100037)"><g><path d="M 15.5 -26 L 15.5 -21 L 10.40625 -21 L 10.40625 -6.203125 C 10.40625 -5.597656 10.570312 -5.160156 10.90625 -4.890625 C 11.238281 -4.628906 11.820312 -4.5 12.65625 -4.5 C 13.21875 -4.5 14.164062 -4.664062 15.5 -5 L 15.5 0.09375 C 13.300781 0.363281 11.664062 0.5 10.59375 0.5 C 6.332031 0.5 4.203125 -1.484375 4.203125 -5.453125 L 4.203125 -21 L 0.59375 -21 L 0.59375 -26 L 4.203125 -26 L 4.203125 -34.59375 L 10.40625 -34.59375 L 10.40625 -26 Z M 15.5 -26 "/></g></g></g><g fill="#ff6a00" fill-opacity="1"><g transform="translate(156.621868, 265.100037)"><g><path d="M 22 -16.25 L 22 -3.546875 C 22 -2.078125 22.164062 -0.894531 22.5 0 L 16.453125 0 L 16.046875 -2.25 C 13.410156 -0.414062 10.726562 0.5 8 0.5 C 5.832031 0.5 4.109375 -0.148438 2.828125 -1.453125 C 1.546875 -2.753906 0.90625 -4.40625 0.90625 -6.40625 C 0.90625 -9.332031 2.128906 -11.617188 4.578125 -13.265625 C 7.023438 -14.921875 10.765625 -16.03125 15.796875 -16.59375 L 15.796875 -18.796875 C 15.796875 -19.765625 15.445312 -20.523438 14.75 -21.078125 C 14.050781 -21.628906 13.117188 -21.90625 11.953125 -21.90625 C 9.710938 -21.90625 7.828125 -20.835938 6.296875 -18.703125 L 2.296875 -21.75 C 3.160156 -23.113281 4.46875 -24.242188 6.21875 -25.140625 C 7.96875 -26.046875 9.8125 -26.5 11.75 -26.5 C 15.414062 -26.5 18.039062 -25.695312 19.625 -24.09375 C 21.207031 -22.5 22 -19.882812 22 -16.25 Z M 10.09375 -4.09375 C 10.863281 -4.09375 11.773438 -4.351562 12.828125 -4.875 C 13.878906 -5.394531 14.867188 -6.050781 15.796875 -6.84375 L 15.796875 -12.453125 C 12.566406 -11.921875 10.304688 -11.238281 9.015625 -10.40625 C 7.734375 -9.570312 7.09375 -8.488281 7.09375 -7.15625 C 7.09375 -6.1875 7.367188 -5.429688 7.921875 -4.890625 C 8.472656 -4.359375 9.195312 -4.09375 10.09375 -4.09375 Z M 10.09375 -4.09375 "/></g></g></g><g fill="#ff6a00" fill-opacity="1"><g transform="translate(181.617994, 265.100037)"><g><path d="M 19.75 -22.546875 L 15.84375 -19.15625 C 14.144531 -20.988281 12.53125 -21.90625 11 -21.90625 C 9.832031 -21.90625 8.957031 -21.675781 8.375 -21.21875 C 7.789062 -20.769531 7.5 -20.144531 7.5 -19.34375 C 7.5 -18.644531 7.859375 -18.03125 8.578125 -17.5 C 9.296875 -16.96875 10.488281 -16.4375 12.15625 -15.90625 C 15.25 -14.863281 17.410156 -13.675781 18.640625 -12.34375 C 19.878906 -11.007812 20.5 -9.3125 20.5 -7.25 C 20.5 -4.78125 19.65625 -2.867188 17.96875 -1.515625 C 16.289062 -0.171875 13.953125 0.5 10.953125 0.5 C 6.785156 0.5 3.5 -1.25 1.09375 -4.75 L 5.25 -7.84375 C 7.050781 -5.34375 9.066406 -4.09375 11.296875 -4.09375 C 12.398438 -4.09375 13.289062 -4.367188 13.96875 -4.921875 C 14.65625 -5.472656 15 -6.179688 15 -7.046875 C 15 -7.785156 14.625 -8.421875 13.875 -8.953125 C 13.125 -9.484375 11.898438 -10.050781 10.203125 -10.65625 C 7.171875 -11.6875 5.046875 -12.84375 3.828125 -14.125 C 2.609375 -15.40625 2 -17.015625 2 -18.953125 C 2 -20.453125 2.378906 -21.773438 3.140625 -22.921875 C 3.910156 -24.078125 4.953125 -24.960938 6.265625 -25.578125 C 7.585938 -26.191406 9.03125 -26.5 10.59375 -26.5 C 12.394531 -26.5 14.09375 -26.15625 15.6875 -25.46875 C 17.289062 -24.789062 18.644531 -23.816406 19.75 -22.546875 Z M 19.75 -22.546875 "/></g></g></g><g fill="#ff6a00" fill-opacity="1"><g transform="translate(203.814553, 265.100037)"><g/></g></g><g fill="#ff6a00" fill-opacity="1"><g transform="translate(219.06219, 265.100037)"><g><path d="M 25.546875 -11.5 L 25.546875 -36.09375 L 32.046875 -36.09375 L 32.046875 0 L 25.40625 0 L 10.65625 -25.703125 L 10.546875 -25.703125 L 10.546875 0 L 4.046875 0 L 4.046875 -36.09375 L 11.25 -36.09375 L 25.453125 -11.5 Z M 25.546875 -11.5 "/></g></g></g><g fill="#ff6a00" fill-opacity="1"><g transform="translate(255.156591, 265.100037)"><g><path d="M 23.796875 -13 C 23.796875 -8.863281 22.785156 -5.578125 20.765625 -3.140625 C 18.753906 -0.710938 16 0.5 12.5 0.5 C 10.195312 0.5 8.195312 -0.046875 6.5 -1.140625 C 4.800781 -2.242188 3.492188 -3.8125 2.578125 -5.84375 C 1.660156 -7.882812 1.203125 -10.269531 1.203125 -13 C 1.203125 -17.195312 2.222656 -20.492188 4.265625 -22.890625 C 6.316406 -25.296875 9.0625 -26.5 12.5 -26.5 C 16 -26.5 18.753906 -25.296875 20.765625 -22.890625 C 22.785156 -20.492188 23.796875 -17.195312 23.796875 -13 Z M 12.5 -4.5 C 14.226562 -4.5 15.507812 -5.179688 16.34375 -6.546875 C 17.175781 -7.910156 17.59375 -10.0625 17.59375 -13 C 17.59375 -15.863281 17.175781 -17.992188 16.34375 -19.390625 C 15.507812 -20.796875 14.226562 -21.5 12.5 -21.5 C 10.726562 -21.5 9.4375 -20.789062 8.625 -19.375 C 7.8125 -17.957031 7.40625 -15.832031 7.40625 -13 C 7.40625 -10.0625 7.820312 -7.910156 8.65625 -6.546875 C 9.488281 -5.179688 10.769531 -4.5 12.5 -4.5 Z M 12.5 -4.5 "/></g></g></g><g fill="#ff6a00" fill-opacity="1"><g transform="translate(280.152728, 265.100037)"><g><path d="M 14.75 -20 C 13.882812 -20 13.007812 -19.722656 12.125 -19.171875 C 11.238281 -18.617188 10.492188 -17.984375 9.890625 -17.265625 C 9.296875 -16.554688 9 -16.035156 9 -15.703125 L 9 0 L 2.796875 0 L 2.796875 -26 L 8.5 -26 L 8.5 -21.546875 L 8.59375 -21.546875 C 9.394531 -23.179688 10.378906 -24.40625 11.546875 -25.21875 C 12.710938 -26.039062 14.164062 -26.46875 15.90625 -26.5 L 15.90625 -19.953125 C 15.832031 -19.953125 15.71875 -19.957031 15.5625 -19.96875 C 15.414062 -19.988281 15.144531 -20 14.75 -20 Z M 14.75 -20 "/></g></g></g><g fill="#ff6a00" fill-opacity="1"><g transform="translate(296.80015, 265.100037)"><g><path d="M 15.5 -26 L 15.5 -21 L 10.40625 -21 L 10.40625 -6.203125 C 10.40625 -5.597656 10.570312 -5.160156 10.90625 -4.890625 C 11.238281 -4.628906 11.820312 -4.5 12.65625 -4.5 C 13.21875 -4.5 14.164062 -4.664062 15.5 -5 L 15.5 0.09375 C 13.300781 0.363281 11.664062 0.5 10.59375 0.5 C 6.332031 0.5 4.203125 -1.484375 4.203125 -5.453125 L 4.203125 -21 L 0.59375 -21 L 0.59375 -26 L 4.203125 -26 L 4.203125 -34.59375 L 10.40625 -34.59375 L 10.40625 -26 Z M 15.5 -26 "/></g></g></g><g fill="#ff6a00" fill-opacity="1"><g transform="translate(313.447572, 265.100037)"><g><path d="M 23.09375 -14.703125 L 23.09375 -12 L 7.40625 -12 C 7.4375 -9.632812 7.925781 -7.789062 8.875 -6.46875 C 9.820312 -5.15625 11.128906 -4.5 12.796875 -4.5 C 13.960938 -4.5 14.96875 -4.710938 15.8125 -5.140625 C 16.664062 -5.578125 17.59375 -6.394531 18.59375 -7.59375 L 23.09375 -4.796875 C 21.894531 -2.992188 20.410156 -1.660156 18.640625 -0.796875 C 16.878906 0.0664062 14.75 0.5 12.25 0.5 C 10.019531 0.5 8.070312 -0.046875 6.40625 -1.140625 C 4.738281 -2.242188 3.453125 -3.8125 2.546875 -5.84375 C 1.648438 -7.882812 1.203125 -10.269531 1.203125 -13 C 1.203125 -17.132812 2.207031 -20.414062 4.21875 -22.84375 C 6.238281 -25.28125 9.015625 -26.5 12.546875 -26.5 C 14.847656 -26.5 16.789062 -25.914062 18.375 -24.75 C 19.957031 -23.582031 21.140625 -22.085938 21.921875 -20.265625 C 22.703125 -18.453125 23.09375 -16.597656 23.09375 -14.703125 Z M 12.40625 -21.90625 C 10.90625 -21.90625 9.710938 -21.410156 8.828125 -20.421875 C 7.941406 -19.441406 7.46875 -18.035156 7.40625 -16.203125 L 17.40625 -16.203125 C 17.363281 -17.960938 16.894531 -19.351562 16 -20.375 C 15.101562 -21.394531 13.90625 -21.90625 12.40625 -21.90625 Z M 12.40625 -21.90625 "/></g></g></g><g fill="#00a0e3" fill-opacity="1"><g transform="translate(104.261717, 220.700011)"><g><path d="M 4.703125 -11.15625 C 4.878906 -11.1875 5.144531 -11.203125 5.5 -11.203125 C 5.644531 -11.203125 5.898438 -11.195312 6.265625 -11.1875 C 6.628906 -11.175781 6.828125 -11.144531 6.859375 -11.09375 C 6.921875 -11.039062 7.359375 -9.941406 8.171875 -7.796875 C 8.992188 -5.648438 9.628906 -3.9375 10.078125 -2.65625 C 10.410156 -1.71875 10.648438 -1.054688 10.796875 -0.671875 L 11.078125 0.015625 L 8.34375 -0.015625 L 7.390625 -2.71875 L 5.96875 -2.734375 C 4.945312 -2.734375 4.375 -2.738281 4.25 -2.75 L 3.96875 -2.75 L 2.734375 -0.015625 L 1.453125 0 C 1.171875 0 0.929688 0 0.734375 0 C 0.347656 0 0.15625 -0.00390625 0.15625 -0.015625 C 0.15625 -0.140625 0.898438 -2.125 2.390625 -5.96875 C 2.648438 -6.632812 3 -7.554688 3.4375 -8.734375 C 3.820312 -9.710938 4.078125 -10.359375 4.203125 -10.671875 C 4.316406 -10.898438 4.390625 -11.03125 4.421875 -11.0625 C 4.460938 -11.101562 4.554688 -11.132812 4.703125 -11.15625 Z M 6.0625 -6.46875 C 5.820312 -7.207031 5.6875 -7.597656 5.65625 -7.640625 C 5.644531 -7.640625 5.609375 -7.554688 5.546875 -7.390625 C 5.484375 -7.222656 5.40625 -6.988281 5.3125 -6.6875 C 5.21875 -6.394531 5.109375 -6.082031 4.984375 -5.75 L 4.78125 -5.140625 L 5.609375 -5.140625 C 6.171875 -5.140625 6.453125 -5.160156 6.453125 -5.203125 C 6.453125 -5.265625 6.320312 -5.6875 6.0625 -6.46875 Z M 6.0625 -6.46875 "/></g></g></g><g fill="#00a0e3" fill-opacity="1"><g transform="translate(115.491014, 220.700011)"><g><path d="M 3.421875 -11.28125 C 3.640625 -11.3125 4.125 -11.328125 4.875 -11.328125 C 5.375 -11.316406 5.710938 -11.300781 5.890625 -11.28125 C 6.066406 -11.257812 6.273438 -11.207031 6.515625 -11.125 C 7.253906 -10.894531 7.664062 -10.671875 7.75 -10.453125 C 7.769531 -10.378906 7.78125 -10.320312 7.78125 -10.28125 C 7.78125 -10.269531 7.78125 -10.257812 7.78125 -10.25 C 7.757812 -10.21875 7.679688 -9.90625 7.546875 -9.3125 C 7.421875 -8.707031 7.347656 -8.390625 7.328125 -8.359375 C 7.328125 -8.347656 7.3125 -8.34375 7.28125 -8.34375 C 7.207031 -8.34375 7.015625 -8.414062 6.703125 -8.5625 C 6.347656 -8.726562 6.035156 -8.847656 5.765625 -8.921875 C 5.503906 -8.992188 5.226562 -9.03125 4.9375 -9.03125 C 4.332031 -9.03125 3.890625 -8.878906 3.609375 -8.578125 C 3.472656 -8.421875 3.398438 -8.304688 3.390625 -8.234375 C 3.390625 -8.160156 3.390625 -8.125 3.390625 -8.125 C 3.390625 -7.988281 3.460938 -7.84375 3.609375 -7.6875 C 3.734375 -7.53125 3.898438 -7.40625 4.109375 -7.3125 C 4.328125 -7.21875 4.726562 -7.082031 5.3125 -6.90625 C 5.882812 -6.738281 6.25 -6.613281 6.40625 -6.53125 C 6.78125 -6.363281 7.144531 -6.101562 7.5 -5.75 C 7.863281 -5.40625 8.097656 -5.082031 8.203125 -4.78125 C 8.296875 -4.5625 8.347656 -4.3125 8.359375 -4.03125 C 8.378906 -3.75 8.390625 -3.546875 8.390625 -3.421875 C 8.390625 -3.179688 8.375 -2.96875 8.34375 -2.78125 C 8.207031 -2.144531 7.898438 -1.582031 7.421875 -1.09375 C 6.953125 -0.601562 6.390625 -0.257812 5.734375 -0.0625 C 5.222656 0.0703125 4.613281 0.140625 3.90625 0.140625 C 3.207031 0.140625 2.5625 0.0859375 1.96875 -0.015625 C 1.382812 -0.128906 0.984375 -0.300781 0.765625 -0.53125 C 0.703125 -0.59375 0.664062 -0.707031 0.65625 -0.875 C 0.65625 -1.039062 0.65625 -1.132812 0.65625 -1.15625 C 0.65625 -1.425781 0.679688 -1.742188 0.734375 -2.109375 C 0.773438 -2.492188 0.816406 -2.6875 0.859375 -2.6875 C 0.867188 -2.6875 0.890625 -2.671875 0.921875 -2.640625 C 0.953125 -2.609375 1.007812 -2.59375 1.09375 -2.59375 C 1.113281 -2.59375 1.132812 -2.59375 1.15625 -2.59375 C 1.25 -2.59375 1.503906 -2.5625 1.921875 -2.5 C 2.359375 -2.40625 2.898438 -2.359375 3.546875 -2.359375 C 4.023438 -2.359375 4.328125 -2.363281 4.453125 -2.375 C 4.585938 -2.394531 4.734375 -2.445312 4.890625 -2.53125 C 5.085938 -2.625 5.242188 -2.75 5.359375 -2.90625 C 5.484375 -3.0625 5.554688 -3.234375 5.578125 -3.421875 C 5.578125 -3.453125 5.578125 -3.484375 5.578125 -3.515625 C 5.578125 -3.566406 5.566406 -3.617188 5.546875 -3.671875 C 5.535156 -3.722656 5.488281 -3.800781 5.40625 -3.90625 C 5.269531 -4.070312 5.082031 -4.210938 4.84375 -4.328125 C 4.601562 -4.441406 4.160156 -4.585938 3.515625 -4.765625 C 2.796875 -5.003906 2.332031 -5.171875 2.125 -5.265625 C 1.925781 -5.367188 1.710938 -5.523438 1.484375 -5.734375 C 1.265625 -5.953125 1.09375 -6.164062 0.96875 -6.375 C 0.769531 -6.757812 0.660156 -7.101562 0.640625 -7.40625 C 0.617188 -7.707031 0.609375 -7.910156 0.609375 -8.015625 C 0.609375 -8.410156 0.675781 -8.820312 0.8125 -9.25 C 0.945312 -9.6875 1.15625 -10.066406 1.4375 -10.390625 C 1.613281 -10.566406 1.894531 -10.742188 2.28125 -10.921875 C 2.675781 -11.097656 3.054688 -11.21875 3.421875 -11.28125 Z M 3.421875 -11.28125 "/></g></g></g><g fill="#00a0e3" fill-opacity="1"><g transform="translate(124.480851, 220.700011)"><g><path d="M 3.421875 -11.28125 C 3.640625 -11.3125 4.125 -11.328125 4.875 -11.328125 C 5.375 -11.316406 5.710938 -11.300781 5.890625 -11.28125 C 6.066406 -11.257812 6.273438 -11.207031 6.515625 -11.125 C 7.253906 -10.894531 7.664062 -10.671875 7.75 -10.453125 C 7.769531 -10.378906 7.78125 -10.320312 7.78125 -10.28125 C 7.78125 -10.269531 7.78125 -10.257812 7.78125 -10.25 C 7.757812 -10.21875 7.679688 -9.90625 7.546875 -9.3125 C 7.421875 -8.707031 7.347656 -8.390625 7.328125 -8.359375 C 7.328125 -8.347656 7.3125 -8.34375 7.28125 -8.34375 C 7.207031 -8.34375 7.015625 -8.414062 6.703125 -8.5625 C 6.347656 -8.726562 6.035156 -8.847656 5.765625 -8.921875 C 5.503906 -8.992188 5.226562 -9.03125 4.9375 -9.03125 C 4.332031 -9.03125 3.890625 -8.878906 3.609375 -8.578125 C 3.472656 -8.421875 3.398438 -8.304688 3.390625 -8.234375 C 3.390625 -8.160156 3.390625 -8.125 3.390625 -8.125 C 3.390625 -7.988281 3.460938 -7.84375 3.609375 -7.6875 C 3.734375 -7.53125 3.898438 -7.40625 4.109375 -7.3125 C 4.328125 -7.21875 4.726562 -7.082031 5.3125 -6.90625 C 5.882812 -6.738281 6.25 -6.613281 6.40625 -6.53125 C 6.78125 -6.363281 7.144531 -6.101562 7.5 -5.75 C 7.863281 -5.40625 8.097656 -5.082031 8.203125 -4.78125 C 8.296875 -4.5625 8.347656 -4.3125 8.359375 -4.03125 C 8.378906 -3.75 8.390625 -3.546875 8.390625 -3.421875 C 8.390625 -3.179688 8.375 -2.96875 8.34375 -2.78125 C 8.207031 -2.144531 7.898438 -1.582031 7.421875 -1.09375 C 6.953125 -0.601562 6.390625 -0.257812 5.734375 -0.0625 C 5.222656 0.0703125 4.613281 0.140625 3.90625 0.140625 C 3.207031 0.140625 2.5625 0.0859375 1.96875 -0.015625 C 1.382812 -0.128906 0.984375 -0.300781 0.765625 -0.53125 C 0.703125 -0.59375 0.664062 -0.707031 0.65625 -0.875 C 0.65625 -1.039062 0.65625 -1.132812 0.65625 -1.15625 C 0.65625 -1.425781 0.679688 -1.742188 0.734375 -2.109375 C 0.773438 -2.492188 0.816406 -2.6875 0.859375 -2.6875 C 0.867188 -2.6875 0.890625 -2.671875 0.921875 -2.640625 C 0.953125 -2.609375 1.007812 -2.59375 1.09375 -2.59375 C 1.113281 -2.59375 1.132812 -2.59375 1.15625 -2.59375 C 1.25 -2.59375 1.503906 -2.5625 1.921875 -2.5 C 2.359375 -2.40625 2.898438 -2.359375 3.546875 -2.359375 C 4.023438 -2.359375 4.328125 -2.363281 4.453125 -2.375 C 4.585938 -2.394531 4.734375 -2.445312 4.890625 -2.53125 C 5.085938 -2.625 5.242188 -2.75 5.359375 -2.90625 C 5.484375 -3.0625 5.554688 -3.234375 5.578125 -3.421875 C 5.578125 -3.453125 5.578125 -3.484375 5.578125 -3.515625 C 5.578125 -3.566406 5.566406 -3.617188 5.546875 -3.671875 C 5.535156 -3.722656 5.488281 -3.800781 5.40625 -3.90625 C 5.269531 -4.070312 5.082031 -4.210938 4.84375 -4.328125 C 4.601562 -4.441406 4.160156 -4.585938 3.515625 -4.765625 C 2.796875 -5.003906 2.332031 -5.171875 2.125 -5.265625 C 1.925781 -5.367188 1.710938 -5.523438 1.484375 -5.734375 C 1.265625 -5.953125 1.09375 -6.164062 0.96875 -6.375 C 0.769531 -6.757812 0.660156 -7.101562 0.640625 -7.40625 C 0.617188 -7.707031 0.609375 -7.910156 0.609375 -8.015625 C 0.609375 -8.410156 0.675781 -8.820312 0.8125 -9.25 C 0.945312 -9.6875 1.15625 -10.066406 1.4375 -10.390625 C 1.613281 -10.566406 1.894531 -10.742188 2.28125 -10.921875 C 2.675781 -11.097656 3.054688 -11.21875 3.421875 -11.28125 Z M 3.421875 -11.28125 "/></g></g></g><g fill="#00a0e3" fill-opacity="1"><g transform="translate(133.470688, 220.700011)"><g><path d="M 1.375 -11.046875 C 1.601562 -11.066406 2.742188 -11.078125 4.796875 -11.078125 C 6.847656 -11.078125 7.953125 -11.066406 8.109375 -11.046875 L 8.4375 -11.015625 L 8.40625 -9.109375 L 5.75 -9.109375 L 3.546875 -9.125 L 3.546875 -2.109375 L 8.53125 -2.109375 L 8.53125 -0.09375 L 1.125 -0.09375 L 1.125 -11.03125 Z M 5.171875 -6.859375 L 5.34375 -6.859375 C 5.40625 -6.859375 5.460938 -6.859375 5.515625 -6.859375 L 5.625 -6.859375 C 5.6875 -6.859375 5.738281 -6.859375 5.78125 -6.859375 L 5.9375 -6.859375 C 5.96875 -6.859375 6 -6.859375 6.03125 -6.859375 L 6.125 -6.859375 C 6.15625 -6.859375 6.179688 -6.859375 6.203125 -6.859375 L 6.46875 -6.859375 C 6.488281 -6.859375 6.515625 -6.859375 6.546875 -6.859375 L 6.609375 -6.859375 C 6.628906 -6.859375 6.648438 -6.859375 6.671875 -6.859375 L 7.234375 -6.859375 C 7.242188 -6.859375 7.253906 -6.859375 7.265625 -6.859375 L 8.03125 -6.859375 L 8.046875 -6.578125 C 8.046875 -6.503906 8.046875 -6.414062 8.046875 -6.3125 C 8.046875 -6.113281 8.039062 -5.859375 8.03125 -5.546875 L 7.984375 -4.8125 L 6.015625 -4.8125 C 4.867188 -4.8125 4.226562 -4.828125 4.09375 -4.859375 L 3.921875 -4.890625 L 3.921875 -6.84375 Z M 5.171875 -6.859375 "/></g></g></g><g fill="#00a0e3" fill-opacity="1"><g transform="translate(142.684474, 220.700011)"><g><path d="M 1.3125 -10.9375 C 1.40625 -11.03125 1.507812 -11.082031 1.625 -11.09375 C 1.75 -11.101562 2.097656 -11.109375 2.671875 -11.109375 C 3.429688 -11.109375 3.882812 -11.097656 4.03125 -11.078125 C 4.101562 -11.054688 4.164062 -11.015625 4.21875 -10.953125 C 4.28125 -10.890625 4.367188 -10.78125 4.484375 -10.625 C 4.929688 -9.925781 5.460938 -8.914062 6.078125 -7.59375 C 6.421875 -6.875 6.609375 -6.5 6.640625 -6.46875 C 6.660156 -6.46875 6.71875 -6.550781 6.8125 -6.71875 C 6.90625 -6.894531 7.035156 -7.140625 7.203125 -7.453125 C 7.367188 -7.773438 7.546875 -8.128906 7.734375 -8.515625 C 8.140625 -9.316406 8.429688 -9.882812 8.609375 -10.21875 C 8.785156 -10.550781 8.925781 -10.757812 9.03125 -10.84375 L 9.265625 -11.078125 L 10.625 -11.09375 C 11.0625 -11.101562 11.378906 -11.109375 11.578125 -11.109375 C 11.691406 -11.109375 11.785156 -11.101562 11.859375 -11.09375 C 11.941406 -11.09375 11.992188 -11.054688 12.015625 -10.984375 C 12.023438 -10.941406 12.035156 -10.914062 12.046875 -10.90625 C 12.066406 -10.894531 12.082031 -10.890625 12.09375 -10.890625 C 12.101562 -10.890625 12.109375 -10.890625 12.109375 -10.890625 C 12.117188 -10.890625 12.125 -10.703125 12.125 -10.328125 C 12.132812 -9.960938 12.140625 -9.410156 12.140625 -8.671875 C 12.148438 -7.941406 12.15625 -7.101562 12.15625 -6.15625 L 12.15625 -0.3125 L 12 -0.203125 C 11.882812 -0.117188 11.796875 -0.078125 11.734375 -0.078125 C 11.660156 -0.078125 11.613281 -0.0507812 11.59375 0 C 11.570312 0.0195312 11.476562 0.03125 11.3125 0.03125 C 11.195312 0.03125 10.984375 0.0195312 10.671875 0 C 10.359375 -0.0078125 10.148438 -0.0390625 10.046875 -0.09375 C 9.921875 -0.15625 9.847656 -0.207031 9.828125 -0.25 C 9.765625 -0.363281 9.726562 -1.128906 9.71875 -2.546875 L 9.71875 -2.609375 C 9.71875 -2.617188 9.71875 -2.628906 9.71875 -2.640625 L 9.71875 -2.8125 C 9.71875 -2.832031 9.71875 -2.851562 9.71875 -2.875 L 9.71875 -3.140625 C 9.71875 -3.160156 9.71875 -3.175781 9.71875 -3.1875 L 9.71875 -4.453125 L 9.734375 -7.453125 L 9.515625 -7.078125 C 8.359375 -4.992188 7.703125 -3.84375 7.546875 -3.625 L 7.390625 -3.4375 L 6.59375 -3.4375 C 6.207031 -3.4375 5.972656 -3.441406 5.890625 -3.453125 C 5.804688 -3.472656 5.726562 -3.519531 5.65625 -3.59375 C 5.550781 -3.707031 5.179688 -4.40625 4.546875 -5.6875 L 3.578125 -7.59375 L 3.515625 -0.265625 L 3.265625 -0.125 C 3.148438 -0.0625 3.054688 -0.0234375 2.984375 -0.015625 C 2.921875 -0.015625 2.847656 -0.015625 2.765625 -0.015625 C 2.679688 -0.015625 2.570312 -0.015625 2.4375 -0.015625 C 1.695312 -0.046875 1.285156 -0.101562 1.203125 -0.1875 C 1.171875 -0.21875 1.148438 -0.710938 1.140625 -1.671875 C 1.128906 -2.640625 1.125 -4.117188 1.125 -6.109375 L 1.125 -10.796875 Z M 1.3125 -10.9375 "/></g></g></g><g fill="#00a0e3" fill-opacity="1"><g transform="translate(155.961279, 220.700011)"><g><path d="M 1.125 0 L 1.125 -11.203125 L 3.765625 -11.171875 C 5.015625 -11.160156 5.789062 -11.144531 6.09375 -11.125 C 6.394531 -11.101562 6.648438 -11.066406 6.859375 -11.015625 C 7.335938 -10.859375 7.75 -10.648438 8.09375 -10.390625 C 8.4375 -10.140625 8.675781 -9.863281 8.8125 -9.5625 C 8.96875 -9.257812 9.050781 -8.992188 9.0625 -8.765625 C 9.070312 -8.535156 9.078125 -8.394531 9.078125 -8.34375 C 9.078125 -8.007812 9.019531 -7.710938 8.90625 -7.453125 C 8.820312 -7.242188 8.632812 -6.992188 8.34375 -6.703125 C 8.050781 -6.421875 7.722656 -6.171875 7.359375 -5.953125 C 7.328125 -5.941406 7.3125 -5.925781 7.3125 -5.90625 C 7.3125 -5.882812 7.332031 -5.863281 7.375 -5.84375 C 7.425781 -5.820312 7.5 -5.789062 7.59375 -5.75 C 7.976562 -5.582031 8.335938 -5.347656 8.671875 -5.046875 C 9.003906 -4.753906 9.21875 -4.457031 9.3125 -4.15625 C 9.40625 -3.863281 9.453125 -3.550781 9.453125 -3.21875 C 9.453125 -3.15625 9.445312 -3.007812 9.4375 -2.78125 C 9.425781 -2.550781 9.335938 -2.265625 9.171875 -1.921875 C 9.046875 -1.671875 8.84375 -1.398438 8.5625 -1.109375 C 8.28125 -0.816406 8.019531 -0.609375 7.78125 -0.484375 C 7.40625 -0.285156 7.066406 -0.164062 6.765625 -0.125 C 6.460938 -0.0820312 5.957031 -0.0507812 5.25 -0.03125 C 4.570312 -0.0078125 4.085938 0 3.796875 0 C 3.691406 0 3.613281 0 3.5625 0 Z M 3.765625 -2.203125 L 4.40625 -2.234375 C 5.175781 -2.273438 5.726562 -2.363281 6.0625 -2.5 C 6.25 -2.59375 6.398438 -2.734375 6.515625 -2.921875 C 6.640625 -3.109375 6.703125 -3.296875 6.703125 -3.484375 C 6.703125 -3.859375 6.535156 -4.144531 6.203125 -4.34375 C 5.867188 -4.550781 5.320312 -4.679688 4.5625 -4.734375 L 4.078125 -4.765625 L 4.078125 -6.796875 L 4.734375 -6.828125 C 5.171875 -6.847656 5.515625 -6.921875 5.765625 -7.046875 C 6.023438 -7.179688 6.222656 -7.378906 6.359375 -7.640625 C 6.410156 -7.742188 6.4375 -7.84375 6.4375 -7.9375 C 6.4375 -8.039062 6.390625 -8.171875 6.296875 -8.328125 C 6.203125 -8.492188 6.023438 -8.644531 5.765625 -8.78125 C 5.597656 -8.863281 5.363281 -8.929688 5.0625 -8.984375 C 4.757812 -9.046875 4.472656 -9.078125 4.203125 -9.078125 L 3.75 -9.078125 Z M 3.765625 -2.203125 "/></g></g></g><g fill="#00a0e3" fill-opacity="1"><g transform="translate(165.990869, 220.700011)"><g><path d="M 1.703125 -11.15625 C 2.210938 -11.175781 2.609375 -11.1875 2.890625 -11.1875 C 3.179688 -11.1875 3.351562 -11.175781 3.40625 -11.15625 L 3.546875 -11.125 L 3.546875 -2.1875 L 8.390625 -2.15625 L 8.40625 -1.390625 C 8.40625 -1.234375 8.40625 -1.082031 8.40625 -0.9375 C 8.40625 -0.675781 8.398438 -0.460938 8.390625 -0.296875 L 8.34375 0.015625 L 4.5 -0.015625 C 3.925781 -0.015625 3.378906 -0.015625 2.859375 -0.015625 C 2.335938 -0.0234375 1.929688 -0.0351562 1.640625 -0.046875 C 1.347656 -0.0546875 1.195312 -0.0664062 1.1875 -0.078125 C 1.164062 -0.0976562 1.148438 -1.234375 1.140625 -3.484375 C 1.128906 -5.734375 1.125 -7.253906 1.125 -8.046875 C 1.125 -9.617188 1.132812 -10.503906 1.15625 -10.703125 L 1.1875 -11.125 Z M 1.703125 -11.15625 "/></g></g></g><g fill="#00a0e3" fill-opacity="1"><g transform="translate(174.74077, 220.700011)"><g><path d="M 1.375 -11.046875 C 1.601562 -11.066406 2.742188 -11.078125 4.796875 -11.078125 C 6.847656 -11.078125 7.953125 -11.066406 8.109375 -11.046875 L 8.4375 -11.015625 L 8.40625 -9.109375 L 5.75 -9.109375 L 3.546875 -9.125 L 3.546875 -2.109375 L 8.53125 -2.109375 L 8.53125 -0.09375 L 1.125 -0.09375 L 1.125 -11.03125 Z M 5.171875 -6.859375 L 5.34375 -6.859375 C 5.40625 -6.859375 5.460938 -6.859375 5.515625 -6.859375 L 5.625 -6.859375 C 5.6875 -6.859375 5.738281 -6.859375 5.78125 -6.859375 L 5.9375 -6.859375 C 5.96875 -6.859375 6 -6.859375 6.03125 -6.859375 L 6.125 -6.859375 C 6.15625 -6.859375 6.179688 -6.859375 6.203125 -6.859375 L 6.46875 -6.859375 C 6.488281 -6.859375 6.515625 -6.859375 6.546875 -6.859375 L 6.609375 -6.859375 C 6.628906 -6.859375 6.648438 -6.859375 6.671875 -6.859375 L 7.234375 -6.859375 C 7.242188 -6.859375 7.253906 -6.859375 7.265625 -6.859375 L 8.03125 -6.859375 L 8.046875 -6.578125 C 8.046875 -6.503906 8.046875 -6.414062 8.046875 -6.3125 C 8.046875 -6.113281 8.039062 -5.859375 8.03125 -5.546875 L 7.984375 -4.8125 L 6.015625 -4.8125 C 4.867188 -4.8125 4.226562 -4.828125 4.09375 -4.859375 L 3.921875 -4.890625 L 3.921875 -6.84375 Z M 5.171875 -6.859375 "/></g></g></g><g fill="#00a0e3" fill-opacity="1"><g transform="translate(183.954556, 220.700011)"><g><path d="M 1.140625 -11.15625 C 1.140625 -11.164062 1.160156 -11.175781 1.203125 -11.1875 C 1.316406 -11.207031 1.695312 -11.21875 2.34375 -11.21875 L 3.578125 -11.21875 L 3.5625 -6.046875 L 3.5625 -0.015625 L 2.546875 0 C 2.285156 0.0078125 2.066406 0.015625 1.890625 0.015625 C 1.617188 0.015625 1.4375 0.00390625 1.34375 -0.015625 L 1.140625 -0.0625 L 1.171875 -5.984375 C 1.179688 -7.117188 1.1875 -8.0625 1.1875 -8.8125 C 1.1875 -10.34375 1.171875 -11.125 1.140625 -11.15625 Z M 1.140625 -11.15625 "/></g></g></g><g fill="#00a0e3" fill-opacity="1"><g transform="translate(188.657425, 220.700011)"><g><path d="M 4.703125 -11.15625 C 4.878906 -11.1875 5.144531 -11.203125 5.5 -11.203125 C 5.644531 -11.203125 5.898438 -11.195312 6.265625 -11.1875 C 6.628906 -11.175781 6.828125 -11.144531 6.859375 -11.09375 C 6.921875 -11.039062 7.359375 -9.941406 8.171875 -7.796875 C 8.992188 -5.648438 9.628906 -3.9375 10.078125 -2.65625 C 10.410156 -1.71875 10.648438 -1.054688 10.796875 -0.671875 L 11.078125 0.015625 L 8.34375 -0.015625 L 7.390625 -2.71875 L 5.96875 -2.734375 C 4.945312 -2.734375 4.375 -2.738281 4.25 -2.75 L 3.96875 -2.75 L 2.734375 -0.015625 L 1.453125 0 C 1.171875 0 0.929688 0 0.734375 0 C 0.347656 0 0.15625 -0.00390625 0.15625 -0.015625 C 0.15625 -0.140625 0.898438 -2.125 2.390625 -5.96875 C 2.648438 -6.632812 3 -7.554688 3.4375 -8.734375 C 3.820312 -9.710938 4.078125 -10.359375 4.203125 -10.671875 C 4.316406 -10.898438 4.390625 -11.03125 4.421875 -11.0625 C 4.460938 -11.101562 4.554688 -11.132812 4.703125 -11.15625 Z M 6.0625 -6.46875 C 5.820312 -7.207031 5.6875 -7.597656 5.65625 -7.640625 C 5.644531 -7.640625 5.609375 -7.554688 5.546875 -7.390625 C 5.484375 -7.222656 5.40625 -6.988281 5.3125 -6.6875 C 5.21875 -6.394531 5.109375 -6.082031 4.984375 -5.75 L 4.78125 -5.140625 L 5.609375 -5.140625 C 6.171875 -5.140625 6.453125 -5.160156 6.453125 -5.203125 C 6.453125 -5.265625 6.320312 -5.6875 6.0625 -6.46875 Z M 6.0625 -6.46875 "/></g></g></g><g fill="#00a0e3" fill-opacity="1"><g transform="translate(199.886722, 220.700011)"><g/></g></g><g fill="#00a0e3" fill-opacity="1"><g transform="translate(204.685573, 220.700011)"><g><path d="M 2.0625 -11.171875 C 2.476562 -11.203125 3.019531 -11.21875 3.6875 -11.21875 C 4.007812 -11.21875 4.367188 -11.210938 4.765625 -11.203125 C 5.640625 -11.191406 6.195312 -11.175781 6.4375 -11.15625 C 6.6875 -11.132812 6.925781 -11.097656 7.15625 -11.046875 C 7.445312 -10.941406 7.753906 -10.804688 8.078125 -10.640625 C 8.398438 -10.484375 8.59375 -10.359375 8.65625 -10.265625 C 8.726562 -10.160156 8.78125 -10.109375 8.8125 -10.109375 C 8.875 -10.109375 9.015625 -9.96875 9.234375 -9.6875 C 9.460938 -9.414062 9.644531 -9.164062 9.78125 -8.9375 C 10.019531 -8.476562 10.195312 -7.960938 10.3125 -7.390625 C 10.4375 -6.816406 10.5 -6.273438 10.5 -5.765625 C 10.5 -5.628906 10.492188 -5.5 10.484375 -5.375 C 10.441406 -4.4375 10.226562 -3.578125 9.84375 -2.796875 C 9.46875 -2.015625 8.953125 -1.382812 8.296875 -0.90625 C 7.960938 -0.664062 7.632812 -0.476562 7.3125 -0.34375 C 6.988281 -0.207031 6.578125 -0.09375 6.078125 0 C 5.859375 0.0390625 5.640625 0.0664062 5.421875 0.078125 C 5.210938 0.0859375 4.976562 0.09375 4.71875 0.09375 C 4.476562 0.09375 4.171875 0.0859375 3.796875 0.078125 C 2.628906 0.046875 2.03125 0.0195312 2 0 C 1.96875 -0.0078125 1.816406 -0.0234375 1.546875 -0.046875 L 1.125 -0.046875 L 1.125 -5.53125 C 1.125 -9.195312 1.148438 -11.046875 1.203125 -11.078125 C 1.234375 -11.109375 1.519531 -11.140625 2.0625 -11.171875 Z M 5.734375 -8.84375 C 5.566406 -8.875 5.351562 -8.894531 5.09375 -8.90625 C 4.832031 -8.914062 4.628906 -8.921875 4.484375 -8.921875 C 4.316406 -8.921875 4.132812 -8.914062 3.9375 -8.90625 C 3.738281 -8.894531 3.640625 -8.875 3.640625 -8.84375 C 3.671875 -8.789062 3.691406 -8.617188 3.703125 -8.328125 C 3.710938 -8.046875 3.71875 -6.988281 3.71875 -5.15625 L 3.734375 -2.3125 L 4.515625 -2.34375 C 5.148438 -2.375 5.660156 -2.484375 6.046875 -2.671875 C 6.441406 -2.867188 6.785156 -3.164062 7.078125 -3.5625 C 7.367188 -3.988281 7.554688 -4.414062 7.640625 -4.84375 C 7.734375 -5.28125 7.78125 -5.640625 7.78125 -5.921875 C 7.78125 -6.222656 7.726562 -6.578125 7.625 -6.984375 C 7.53125 -7.398438 7.335938 -7.769531 7.046875 -8.09375 C 6.660156 -8.488281 6.222656 -8.738281 5.734375 -8.84375 Z M 5.734375 -8.84375 "/></g></g></g><g fill="#00a0e3" fill-opacity="1"><g transform="translate(215.898882, 220.700011)"><g><path d="M 1.375 -11.046875 C 1.601562 -11.066406 2.742188 -11.078125 4.796875 -11.078125 C 6.847656 -11.078125 7.953125 -11.066406 8.109375 -11.046875 L 8.4375 -11.015625 L 8.40625 -9.109375 L 5.75 -9.109375 L 3.546875 -9.125 L 3.546875 -2.109375 L 8.53125 -2.109375 L 8.53125 -0.09375 L 1.125 -0.09375 L 1.125 -11.03125 Z M 5.171875 -6.859375 L 5.34375 -6.859375 C 5.40625 -6.859375 5.460938 -6.859375 5.515625 -6.859375 L 5.625 -6.859375 C 5.6875 -6.859375 5.738281 -6.859375 5.78125 -6.859375 L 5.9375 -6.859375 C 5.96875 -6.859375 6 -6.859375 6.03125 -6.859375 L 6.125 -6.859375 C 6.15625 -6.859375 6.179688 -6.859375 6.203125 -6.859375 L 6.46875 -6.859375 C 6.488281 -6.859375 6.515625 -6.859375 6.546875 -6.859375 L 6.609375 -6.859375 C 6.628906 -6.859375 6.648438 -6.859375 6.671875 -6.859375 L 7.234375 -6.859375 C 7.242188 -6.859375 7.253906 -6.859375 7.265625 -6.859375 L 8.03125 -6.859375 L 8.046875 -6.578125 C 8.046875 -6.503906 8.046875 -6.414062 8.046875 -6.3125 C 8.046875 -6.113281 8.039062 -5.859375 8.03125 -5.546875 L 7.984375 -4.8125 L 6.015625 -4.8125 C 4.867188 -4.8125 4.226562 -4.828125 4.09375 -4.859375 L 3.921875 -4.890625 L 3.921875 -6.84375 Z M 5.171875 -6.859375 "/></g></g></g><g fill="#00a0e3" fill-opacity="1"><g transform="translate(225.112669, 220.700011)"><g/></g></g><g fill="#00a0e3" fill-opacity="1"><g transform="translate(229.91152, 220.700011)"><g><path d="M 2.0625 -11.171875 C 2.476562 -11.203125 3.019531 -11.21875 3.6875 -11.21875 C 4.007812 -11.21875 4.367188 -11.210938 4.765625 -11.203125 C 5.640625 -11.191406 6.195312 -11.175781 6.4375 -11.15625 C 6.6875 -11.132812 6.925781 -11.097656 7.15625 -11.046875 C 7.445312 -10.941406 7.753906 -10.804688 8.078125 -10.640625 C 8.398438 -10.484375 8.59375 -10.359375 8.65625 -10.265625 C 8.726562 -10.160156 8.78125 -10.109375 8.8125 -10.109375 C 8.875 -10.109375 9.015625 -9.96875 9.234375 -9.6875 C 9.460938 -9.414062 9.644531 -9.164062 9.78125 -8.9375 C 10.019531 -8.476562 10.195312 -7.960938 10.3125 -7.390625 C 10.4375 -6.816406 10.5 -6.273438 10.5 -5.765625 C 10.5 -5.628906 10.492188 -5.5 10.484375 -5.375 C 10.441406 -4.4375 10.226562 -3.578125 9.84375 -2.796875 C 9.46875 -2.015625 8.953125 -1.382812 8.296875 -0.90625 C 7.960938 -0.664062 7.632812 -0.476562 7.3125 -0.34375 C 6.988281 -0.207031 6.578125 -0.09375 6.078125 0 C 5.859375 0.0390625 5.640625 0.0664062 5.421875 0.078125 C 5.210938 0.0859375 4.976562 0.09375 4.71875 0.09375 C 4.476562 0.09375 4.171875 0.0859375 3.796875 0.078125 C 2.628906 0.046875 2.03125 0.0195312 2 0 C 1.96875 -0.0078125 1.816406 -0.0234375 1.546875 -0.046875 L 1.125 -0.046875 L 1.125 -5.53125 C 1.125 -9.195312 1.148438 -11.046875 1.203125 -11.078125 C 1.234375 -11.109375 1.519531 -11.140625 2.0625 -11.171875 Z M 5.734375 -8.84375 C 5.566406 -8.875 5.351562 -8.894531 5.09375 -8.90625 C 4.832031 -8.914062 4.628906 -8.921875 4.484375 -8.921875 C 4.316406 -8.921875 4.132812 -8.914062 3.9375 -8.90625 C 3.738281 -8.894531 3.640625 -8.875 3.640625 -8.84375 C 3.671875 -8.789062 3.691406 -8.617188 3.703125 -8.328125 C 3.710938 -8.046875 3.71875 -6.988281 3.71875 -5.15625 L 3.734375 -2.3125 L 4.515625 -2.34375 C 5.148438 -2.375 5.660156 -2.484375 6.046875 -2.671875 C 6.441406 -2.867188 6.785156 -3.164062 7.078125 -3.5625 C 7.367188 -3.988281 7.554688 -4.414062 7.640625 -4.84375 C 7.734375 -5.28125 7.78125 -5.640625 7.78125 -5.921875 C 7.78125 -6.222656 7.726562 -6.578125 7.625 -6.984375 C 7.53125 -7.398438 7.335938 -7.769531 7.046875 -8.09375 C 6.660156 -8.488281 6.222656 -8.738281 5.734375 -8.84375 Z M 5.734375 -8.84375 "/></g></g></g><g fill="#00a0e3" fill-opacity="1"><g transform="translate(241.124829, 220.700011)"><g><path d="M 1.375 -11.046875 C 1.601562 -11.066406 2.742188 -11.078125 4.796875 -11.078125 C 6.847656 -11.078125 7.953125 -11.066406 8.109375 -11.046875 L 8.4375 -11.015625 L 8.40625 -9.109375 L 5.75 -9.109375 L 3.546875 -9.125 L 3.546875 -2.109375 L 8.53125 -2.109375 L 8.53125 -0.09375 L 1.125 -0.09375 L 1.125 -11.03125 Z M 5.171875 -6.859375 L 5.34375 -6.859375 C 5.40625 -6.859375 5.460938 -6.859375 5.515625 -6.859375 L 5.625 -6.859375 C 5.6875 -6.859375 5.738281 -6.859375 5.78125 -6.859375 L 5.9375 -6.859375 C 5.96875 -6.859375 6 -6.859375 6.03125 -6.859375 L 6.125 -6.859375 C 6.15625 -6.859375 6.179688 -6.859375 6.203125 -6.859375 L 6.46875 -6.859375 C 6.488281 -6.859375 6.515625 -6.859375 6.546875 -6.859375 L 6.609375 -6.859375 C 6.628906 -6.859375 6.648438 -6.859375 6.671875 -6.859375 L 7.234375 -6.859375 C 7.242188 -6.859375 7.253906 -6.859375 7.265625 -6.859375 L 8.03125 -6.859375 L 8.046875 -6.578125 C 8.046875 -6.503906 8.046875 -6.414062 8.046875 -6.3125 C 8.046875 -6.113281 8.039062 -5.859375 8.03125 -5.546875 L 7.984375 -4.8125 L 6.015625 -4.8125 C 4.867188 -4.8125 4.226562 -4.828125 4.09375 -4.859375 L 3.921875 -4.890625 L 3.921875 -6.84375 Z M 5.171875 -6.859375 "/></g></g></g><g fill="#00a0e3" fill-opacity="1"><g transform="translate(250.338615, 220.700011)"><g><path d="M 1.0625 -7.421875 L 1.046875 -11.171875 L 3.6875 -11.171875 L 3.625 -7.84375 L 3.625 -7.796875 C 3.625 -7.773438 3.625 -7.753906 3.625 -7.734375 L 3.625 -7.640625 C 3.625 -7.628906 3.625 -7.613281 3.625 -7.59375 L 3.625 -7.484375 C 3.625 -7.429688 3.625 -7.382812 3.625 -7.34375 L 3.625 -7.296875 C 3.625 -7.273438 3.625 -7.257812 3.625 -7.25 L 3.625 -7.203125 C 3.625 -7.140625 3.625 -7.078125 3.625 -7.015625 L 3.625 -6.65625 C 3.625 -6.632812 3.625 -6.617188 3.625 -6.609375 L 3.625 -6.484375 C 3.625 -6.472656 3.625 -6.460938 3.625 -6.453125 L 3.625 -6.40625 C 3.625 -6.394531 3.625 -6.390625 3.625 -6.390625 L 3.625 -6.296875 C 3.625 -6.265625 3.625 -6.238281 3.625 -6.21875 L 3.625 -6.1875 C 3.625 -6.175781 3.625 -6.164062 3.625 -6.15625 L 3.625 -6.125 C 3.625 -6.082031 3.625 -6.039062 3.625 -6 L 3.625 -5.703125 C 3.625 -5.691406 3.625 -5.671875 3.625 -5.640625 L 3.625 -5.546875 C 3.625 -5.210938 3.632812 -4.972656 3.65625 -4.828125 C 3.675781 -4.679688 3.6875 -4.53125 3.6875 -4.375 C 3.6875 -4.21875 3.707031 -4.09375 3.75 -4 C 3.789062 -3.90625 3.816406 -3.816406 3.828125 -3.734375 C 3.847656 -3.660156 3.890625 -3.566406 3.953125 -3.453125 C 4.054688 -3.242188 4.195312 -3.046875 4.375 -2.859375 C 4.550781 -2.679688 4.738281 -2.550781 4.9375 -2.46875 C 5.1875 -2.363281 5.4375 -2.3125 5.6875 -2.3125 C 5.875 -2.3125 6.128906 -2.363281 6.453125 -2.46875 C 6.773438 -2.570312 7.078125 -2.800781 7.359375 -3.15625 C 7.359375 -3.164062 7.363281 -3.179688 7.375 -3.203125 C 7.550781 -3.484375 7.660156 -3.785156 7.703125 -4.109375 C 7.742188 -4.441406 7.769531 -5.472656 7.78125 -7.203125 C 7.789062 -7.367188 7.796875 -7.503906 7.796875 -7.609375 L 7.828125 -11.171875 L 10.34375 -11.171875 L 10.34375 -7.53125 C 10.34375 -7.007812 10.34375 -6.625 10.34375 -6.375 C 10.351562 -6.125 10.359375 -5.9375 10.359375 -5.8125 C 10.359375 -5.570312 10.351562 -5.351562 10.34375 -5.15625 C 10.34375 -4.96875 10.34375 -4.8125 10.34375 -4.6875 C 10.34375 -4.5625 10.34375 -4.457031 10.34375 -4.375 C 10.34375 -4.300781 10.34375 -4.242188 10.34375 -4.203125 C 10.34375 -4.054688 10.320312 -3.898438 10.28125 -3.734375 C 10.25 -3.566406 10.226562 -3.429688 10.21875 -3.328125 C 10.207031 -3.222656 10.179688 -3.101562 10.140625 -2.96875 C 10.109375 -2.84375 10.070312 -2.738281 10.03125 -2.65625 C 9.988281 -2.582031 9.9375 -2.46875 9.875 -2.3125 C 9.789062 -2.113281 9.703125 -1.9375 9.609375 -1.78125 C 9.515625 -1.632812 9.382812 -1.460938 9.21875 -1.265625 C 9.0625 -1.109375 8.898438 -0.960938 8.734375 -0.828125 C 8.578125 -0.703125 8.457031 -0.613281 8.375 -0.5625 C 8.039062 -0.363281 7.601562 -0.195312 7.0625 -0.0625 C 6.519531 0.0703125 6.035156 0.140625 5.609375 0.140625 C 5.378906 0.140625 5.070312 0.101562 4.6875 0.03125 C 4.3125 -0.03125 4.03125 -0.09375 3.84375 -0.15625 C 3.519531 -0.28125 3.238281 -0.414062 3 -0.5625 C 2.757812 -0.71875 2.519531 -0.925781 2.28125 -1.1875 C 2.007812 -1.476562 1.789062 -1.769531 1.625 -2.0625 C 1.457031 -2.363281 1.316406 -2.734375 1.203125 -3.171875 C 1.140625 -3.410156 1.101562 -3.722656 1.09375 -4.109375 C 1.082031 -4.492188 1.070312 -5.597656 1.0625 -7.421875 Z M 1.0625 -7.421875 "/></g></g></g><g fill="#00a0e3" fill-opacity="1"><g transform="translate(261.727878, 220.700011)"><g><path d="M 3.421875 -11.28125 C 3.640625 -11.3125 4.125 -11.328125 4.875 -11.328125 C 5.375 -11.316406 5.710938 -11.300781 5.890625 -11.28125 C 6.066406 -11.257812 6.273438 -11.207031 6.515625 -11.125 C 7.253906 -10.894531 7.664062 -10.671875 7.75 -10.453125 C 7.769531 -10.378906 7.78125 -10.320312 7.78125 -10.28125 C 7.78125 -10.269531 7.78125 -10.257812 7.78125 -10.25 C 7.757812 -10.21875 7.679688 -9.90625 7.546875 -9.3125 C 7.421875 -8.707031 7.347656 -8.390625 7.328125 -8.359375 C 7.328125 -8.347656 7.3125 -8.34375 7.28125 -8.34375 C 7.207031 -8.34375 7.015625 -8.414062 6.703125 -8.5625 C 6.347656 -8.726562 6.035156 -8.847656 5.765625 -8.921875 C 5.503906 -8.992188 5.226562 -9.03125 4.9375 -9.03125 C 4.332031 -9.03125 3.890625 -8.878906 3.609375 -8.578125 C 3.472656 -8.421875 3.398438 -8.304688 3.390625 -8.234375 C 3.390625 -8.160156 3.390625 -8.125 3.390625 -8.125 C 3.390625 -7.988281 3.460938 -7.84375 3.609375 -7.6875 C 3.734375 -7.53125 3.898438 -7.40625 4.109375 -7.3125 C 4.328125 -7.21875 4.726562 -7.082031 5.3125 -6.90625 C 5.882812 -6.738281 6.25 -6.613281 6.40625 -6.53125 C 6.78125 -6.363281 7.144531 -6.101562 7.5 -5.75 C 7.863281 -5.40625 8.097656 -5.082031 8.203125 -4.78125 C 8.296875 -4.5625 8.347656 -4.3125 8.359375 -4.03125 C 8.378906 -3.75 8.390625 -3.546875 8.390625 -3.421875 C 8.390625 -3.179688 8.375 -2.96875 8.34375 -2.78125 C 8.207031 -2.144531 7.898438 -1.582031 7.421875 -1.09375 C 6.953125 -0.601562 6.390625 -0.257812 5.734375 -0.0625 C 5.222656 0.0703125 4.613281 0.140625 3.90625 0.140625 C 3.207031 0.140625 2.5625 0.0859375 1.96875 -0.015625 C 1.382812 -0.128906 0.984375 -0.300781 0.765625 -0.53125 C 0.703125 -0.59375 0.664062 -0.707031 0.65625 -0.875 C 0.65625 -1.039062 0.65625 -1.132812 0.65625 -1.15625 C 0.65625 -1.425781 0.679688 -1.742188 0.734375 -2.109375 C 0.773438 -2.492188 0.816406 -2.6875 0.859375 -2.6875 C 0.867188 -2.6875 0.890625 -2.671875 0.921875 -2.640625 C 0.953125 -2.609375 1.007812 -2.59375 1.09375 -2.59375 C 1.113281 -2.59375 1.132812 -2.59375 1.15625 -2.59375 C 1.25 -2.59375 1.503906 -2.5625 1.921875 -2.5 C 2.359375 -2.40625 2.898438 -2.359375 3.546875 -2.359375 C 4.023438 -2.359375 4.328125 -2.363281 4.453125 -2.375 C 4.585938 -2.394531 4.734375 -2.445312 4.890625 -2.53125 C 5.085938 -2.625 5.242188 -2.75 5.359375 -2.90625 C 5.484375 -3.0625 5.554688 -3.234375 5.578125 -3.421875 C 5.578125 -3.453125 5.578125 -3.484375 5.578125 -3.515625 C 5.578125 -3.566406 5.566406 -3.617188 5.546875 -3.671875 C 5.535156 -3.722656 5.488281 -3.800781 5.40625 -3.90625 C 5.269531 -4.070312 5.082031 -4.210938 4.84375 -4.328125 C 4.601562 -4.441406 4.160156 -4.585938 3.515625 -4.765625 C 2.796875 -5.003906 2.332031 -5.171875 2.125 -5.265625 C 1.925781 -5.367188 1.710938 -5.523438 1.484375 -5.734375 C 1.265625 -5.953125 1.09375 -6.164062 0.96875 -6.375 C 0.769531 -6.757812 0.660156 -7.101562 0.640625 -7.40625 C 0.617188 -7.707031 0.609375 -7.910156 0.609375 -8.015625 C 0.609375 -8.410156 0.675781 -8.820312 0.8125 -9.25 C 0.945312 -9.6875 1.15625 -10.066406 1.4375 -10.390625 C 1.613281 -10.566406 1.894531 -10.742188 2.28125 -10.921875 C 2.675781 -11.097656 3.054688 -11.21875 3.421875 -11.28125 Z M 3.421875 -11.28125 "/></g></g></g></svg>