<svg xmlns="http://www.w3.org/2000/svg" xmlns:xlink="http://www.w3.org/1999/xlink" width="500" zoomAndPan="magnify" viewBox="0 0 375 374.999991" height="500" preserveAspectRatio="xMidYMid meet" version="1.0"><defs><clipPath id="3acdf7dda2"><path d="M 0 105.601562 L 375 105.601562 L 375 157 L 0 157 Z M 0 105.601562 " clip-rule="nonzero"/></clipPath><clipPath id="6590a11788"><path d="M 112.5 14.40625 L 262.5 14.40625 L 262.5 60.90625 L 112.5 60.90625 Z M 112.5 14.40625 " clip-rule="nonzero"/></clipPath></defs><path fill="#ffffff" d="M 310.460938 201.976562 C 312.175781 204.90625 315.253906 206.941406 318.785156 207.847656 L 318.785156 185.441406 C 317.679688 185.667969 316.667969 186.042969 315.789062 186.347656 C 312.71875 187.441406 306.308594 194.914062 310.460938 201.976562 Z M 333.976562 204.253906 C 341.308594 197.585938 344.292969 187.46875 336.453125 179.003906 C 332.820312 175.09375 327.566406 170.539062 322.382812 165.765625 L 322.382812 177.199219 C 329.1875 178.621094 333.183594 185.339844 332.996094 190.894531 C 332.789062 197.472656 329.910156 202.21875 327.503906 203.195312 C 327.503906 203.195312 325.925781 204.3125 325.25 202.828125 C 325.035156 202.3125 325.277344 201.847656 325.84375 201.40625 C 326.421875 200.976562 333.023438 196.757812 328.367188 190.054688 C 326.347656 187.15625 324.304688 185.875 322.382812 185.433594 L 322.382812 208.367188 C 326.4375 208.523438 330.6875 207.253906 333.976562 204.253906 Z M 309.277344 128.394531 C 302.140625 133.792969 311.613281 146.945312 318.785156 154.925781 L 318.785156 146.566406 C 317.601562 135.3125 315 124.0625 309.277344 128.394531 Z M 318.34375 177 C 318.492188 176.988281 318.636719 176.980469 318.785156 176.972656 L 318.785156 162.390625 C 314.082031 157.890625 309.796875 153.277344 307.28125 148.914062 C 300.1875 136.597656 301.195312 123.382812 309.355469 121.160156 C 317.5 118.921875 322.632812 139.179688 322.382812 148.867188 L 322.382812 158.722656 C 323.167969 159.5 323.839844 160.136719 324.359375 160.59375 C 330.457031 166.023438 343.886719 174.71875 345.578125 185.414062 C 347.832031 199.609375 334.359375 210.265625 322.382812 210.742188 L 322.382812 230.964844 C 322.382812 230.964844 322.996094 235.722656 327.683594 235.722656 C 335.449219 235.722656 336.386719 231.839844 336.386719 231.839844 C 336.386719 231.839844 330.679688 233.03125 328.511719 227.980469 C 328.511719 227.980469 326.101562 220.832031 333.261719 218.757812 C 340.40625 216.679688 343.921875 223.386719 342.851562 228.898438 C 341.929688 233.628906 337.609375 238.824219 327.933594 238.910156 C 319.855469 238.980469 318.785156 233.671875 318.785156 230.964844 L 318.785156 210.574219 C 317.945312 210.453125 317.121094 210.273438 316.324219 210.027344 C 303.476562 206.167969 301.546875 193.53125 302.996094 189.109375 C 304.730469 183.859375 309.121094 177.910156 318.34375 177 " fill-opacity="1" fill-rule="nonzero"/><path fill="#ffffff" d="M 15.519531 125.863281 C 20.128906 121.890625 20.578125 120.960938 20.941406 118.855469 L 20.941406 117.382812 L 22.144531 118.335938 L 22.144531 145.210938 C 22.332031 145.082031 24.980469 143.378906 28.765625 144.792969 C 32.695312 146.257812 31.652344 149.054688 31.050781 149.855469 C 30.390625 150.730469 27.109375 152.449219 23.144531 150.324219 C 23.144531 150.324219 20.90625 149.320312 20.9375 146.171875 C 20.941406 145.429688 20.929688 145.09375 20.941406 141.917969 L 20.941406 124.96875 C 19.660156 125.390625 10.21875 128.890625 15.113281 139.859375 C 15.113281 139.859375 8.355469 132.042969 15.519531 125.863281 " fill-opacity="1" fill-rule="nonzero"/><path fill="#ffffff" d="M 143.308594 175.078125 C 147.847656 171.164062 150.371094 168.722656 151.855469 166.753906 L 151.855469 156.742188 C 149.492188 157.511719 133.402344 163.476562 138.292969 181.402344 C 139.328125 179.261719 140.9375 177.121094 143.308594 175.078125 Z M 140.988281 158.535156 C 150.21875 150.574219 151.117188 148.710938 151.855469 144.484375 L 151.855469 141.539062 L 154.265625 143.445312 L 154.265625 197.300781 C 154.640625 197.046875 159.945312 193.625 167.527344 196.460938 C 175.40625 199.394531 173.3125 204.996094 172.109375 206.597656 C 170.792969 208.359375 164.199219 211.800781 156.253906 207.539062 C 156.253906 207.539062 151.785156 205.535156 151.839844 199.222656 C 151.859375 197.734375 151.824219 197.0625 151.855469 190.699219 L 151.855469 174.207031 C 146.261719 176.773438 134.261719 184.675781 142.492188 203.121094 C 142.492188 203.121094 133.917969 193.195312 137.65625 182.902344 C 134.578125 177.53125 130.910156 167.226562 140.988281 158.535156 " fill-opacity="1" fill-rule="nonzero"/><path fill="#ffffff" d="M 248.335938 233.269531 C 248.019531 232.148438 247.835938 230.851562 247.851562 229.367188 C 247.871094 227.5 247.859375 157.019531 247.859375 157.019531 L 250.890625 159.410156 L 250.890625 226.957031 C 250.929688 226.921875 251.027344 226.863281 251.164062 226.773438 C 253.90625 224.601562 258.289062 223.484375 263.035156 224.078125 C 270.539062 225.015625 276.109375 229.863281 275.480469 234.914062 C 274.847656 239.953125 268.253906 243.285156 260.75 242.34375 C 257.582031 241.949219 254.757812 240.855469 252.605469 239.347656 C 252.320312 239.15625 251.976562 238.90625 251.601562 238.578125 C 249.808594 237.054688 248.632812 235.214844 248.335938 233.269531 " fill-opacity="1" fill-rule="nonzero"/><path fill="#ffffff" d="M 106.371094 179.339844 C 109.707031 179.757812 112.636719 178.28125 112.917969 176.039062 C 113.199219 173.796875 110.722656 171.640625 107.386719 171.226562 C 104.050781 170.804688 101.125 172.285156 100.84375 174.53125 C 100.5625 176.773438 103.039062 178.921875 106.371094 179.339844 Z M 98.148438 128.066406 L 100.019531 129.546875 L 100.019531 171.359375 L 100.195312 171.253906 C 101.894531 169.90625 104.609375 169.21875 107.546875 169.585938 C 112.191406 170.164062 115.636719 173.167969 115.246094 176.289062 C 114.859375 179.414062 110.773438 181.472656 106.128906 180.890625 C 104.167969 180.648438 102.421875 179.96875 101.082031 179.035156 C 100.910156 178.914062 100.695312 178.761719 100.46875 178.558594 C 99.355469 177.621094 98.625 176.476562 98.4375 175.277344 C 98.25 174.578125 98.132812 173.777344 98.140625 172.859375 C 98.15625 171.703125 98.148438 128.066406 98.148438 128.066406 " fill-opacity="1" fill-rule="nonzero"/><path fill="#ffffff" d="M 210.242188 207.421875 C 215.339844 208.0625 219.824219 205.800781 220.253906 202.367188 C 220.683594 198.941406 216.898438 195.648438 211.796875 195.015625 C 206.699219 194.375 202.21875 196.640625 201.789062 200.0625 C 201.359375 203.488281 205.148438 206.785156 210.242188 207.421875 Z M 197.667969 129 L 200.53125 131.269531 L 200.53125 195.222656 C 200.574219 195.199219 200.660156 195.136719 200.804688 195.054688 C 203.394531 192.996094 207.542969 191.941406 212.035156 192.503906 C 219.144531 193.390625 224.417969 197.980469 223.820312 202.761719 C 223.222656 207.535156 216.980469 210.6875 209.867188 209.796875 C 206.871094 209.425781 204.203125 208.386719 202.160156 206.957031 C 201.890625 206.777344 201.566406 206.542969 201.214844 206.230469 C 199.515625 204.792969 198.402344 203.046875 198.117188 201.207031 C 197.824219 200.144531 197.644531 198.917969 197.65625 197.507812 C 197.683594 195.742188 197.667969 129 197.667969 129 " fill-opacity="1" fill-rule="nonzero"/><path fill="#ffffff" d="M 46.472656 155.515625 L 46.472656 121.527344 L 73.109375 125.835938 L 73.109375 158.644531 C 74.277344 158.152344 75.738281 157.945312 77.289062 158.140625 C 80.722656 158.570312 83.273438 160.789062 82.988281 163.101562 C 82.699219 165.40625 79.679688 166.933594 76.242188 166.503906 C 74.789062 166.324219 73.5 165.820312 72.511719 165.125 C 72.378906 165.039062 72.222656 164.925781 72.050781 164.777344 C 71.226562 164.078125 70.695312 163.238281 70.554688 162.351562 C 70.414062 161.835938 70.328125 161.238281 70.335938 160.558594 C 70.335938 160.476562 70.335938 160.109375 70.335938 159.511719 L 70.335938 134.703125 L 49.246094 131.015625 L 49.246094 154.644531 C 50.410156 154.152344 51.875 153.945312 53.417969 154.144531 C 56.855469 154.570312 59.402344 156.792969 59.117188 159.101562 C 58.828125 161.410156 55.808594 162.933594 52.375 162.507812 C 50.925781 162.324219 49.632812 161.820312 48.636719 161.132812 C 48.511719 161.042969 48.355469 160.929688 48.1875 160.777344 C 47.363281 160.082031 46.828125 159.238281 46.691406 158.351562 C 46.554688 157.867188 46.476562 157.3125 46.472656 156.683594 L 46.472656 156.566406 C 46.472656 156.480469 46.472656 156.113281 46.472656 155.515625 " fill-opacity="1" fill-rule="nonzero"/><g clip-path="url(#3acdf7dda2)"><path fill="#ffffff" d="M -0.0546875 116.871094 C 124.945312 111.683594 249.953125 209.769531 374.953125 105.6875 L 374.953125 109.28125 C 249.953125 212.453125 124.945312 113.464844 -0.0546875 117.746094 L -0.0546875 116.871094 " fill-opacity="1" fill-rule="nonzero"/></g><path fill="#ffffff" d="M -0.0546875 123.871094 C 124.945312 125.890625 249.953125 231.1875 374.953125 134.320312 L 374.953125 137.902344 C 249.953125 233.871094 124.945312 127.671875 -0.0546875 124.746094 L -0.0546875 123.871094 " fill-opacity="1" fill-rule="nonzero"/><path fill="#ffffff" d="M -0.0546875 130.871094 C 124.945312 140.101562 249.953125 252.605469 374.953125 162.941406 L 374.953125 166.53125 C 249.953125 255.285156 124.945312 141.878906 -0.0546875 131.746094 L -0.0546875 130.871094 " fill-opacity="1" fill-rule="nonzero"/><path fill="#ffffff" d="M -0.0546875 137.871094 C 124.945312 154.308594 249.953125 274.023438 374.953125 191.570312 L 374.953125 195.152344 C 249.953125 276.703125 124.945312 156.089844 -0.0546875 138.746094 L -0.0546875 137.871094 " fill-opacity="1" fill-rule="nonzero"/><path fill="#ffffff" d="M -0.0546875 144.871094 C 124.945312 168.519531 249.953125 295.4375 374.953125 220.195312 L 374.953125 223.78125 C 249.953125 298.121094 124.945312 170.296875 -0.0546875 145.746094 L -0.0546875 144.871094 " fill-opacity="1" fill-rule="nonzero"/><g clip-path="url(#6590a11788)"><path fill="#000000" d="M 233.105469 39 L 233.105469 51.351562 L 231.367188 51.351562 L 231.367188 45.976562 L 221.257812 51.835938 L 221.257812 38.515625 L 231.394531 44.40625 L 231.394531 39 Z M 141.835938 39 L 141.835938 51.351562 L 143.574219 51.351562 L 143.574219 45.976562 L 153.683594 51.835938 L 153.683594 38.515625 L 143.574219 44.40625 L 143.574219 39 Z M 187.484375 29.425781 C 178.847656 29.425781 171.859375 36.464844 171.859375 45.160156 C 171.859375 53.859375 178.847656 60.894531 187.484375 60.894531 C 196.125 60.894531 203.113281 53.859375 203.113281 45.160156 C 203.113281 36.492188 196.125 29.425781 187.484375 29.425781 Z M 184.066406 51.835938 L 184.066406 38.515625 L 195.523438 45.191406 Z M 259.261719 39.875 L 259.261719 41.597656 L 251.402344 41.597656 L 250.472656 43.652344 L 251.3125 44.316406 L 252.003906 42.894531 L 259.289062 42.894531 L 259.289062 44.585938 L 262.5 42.203125 Z M 253.652344 50.476562 L 253.652344 48.753906 L 261.539062 48.753906 L 262.46875 46.699219 L 261.628906 46.035156 L 260.96875 47.425781 L 253.652344 47.425781 L 253.652344 45.734375 L 250.472656 48.121094 Z M 262.46875 17.890625 L 138.863281 17.890625 C 138.386719 15.746094 136.285156 14.417969 134.15625 14.902344 C 132.6875 15.234375 131.515625 16.410156 131.1875 17.890625 L 112.5 17.890625 L 112.5 19.640625 L 131.1875 19.640625 C 131.667969 21.785156 133.765625 23.113281 135.894531 22.632812 C 137.363281 22.300781 138.535156 21.121094 138.863281 19.640625 L 262.46875 19.640625 Z M 122.367188 47.457031 L 120.179688 47.457031 L 119.128906 45.160156 L 120.179688 42.867188 L 122.367188 42.867188 L 122.367188 44.675781 L 125.578125 42.292969 L 122.367188 39.90625 L 122.367188 41.71875 L 119.457031 41.71875 L 118.5 43.800781 L 117.539062 41.75 L 112.5 41.75 L 112.5 42.894531 L 116.820312 42.894531 L 117.867188 45.191406 L 116.820312 47.484375 L 112.5 47.484375 L 112.5 48.632812 L 117.570312 48.632812 L 118.527344 46.582031 L 119.488281 48.632812 L 122.398438 48.632812 L 122.398438 50.445312 L 125.605469 48.058594 L 122.429688 45.675781 L 122.429688 47.457031 Z M 122.367188 47.457031 " fill-opacity="1" fill-rule="nonzero"/></g></svg>