<svg xmlns="http://www.w3.org/2000/svg" xmlns:xlink="http://www.w3.org/1999/xlink" width="500" zoomAndPan="magnify" viewBox="0 0 375 374.999991" height="500" preserveAspectRatio="xMidYMid meet" version="1.0"><defs><clipPath id="edc2bed410"><path d="M 0 105.601562 L 375 105.601562 L 375 157 L 0 157 Z M 0 105.601562 " clip-rule="nonzero"/></clipPath><clipPath id="d6db4a8173"><path d="M 112.5 14.40625 L 262.5 14.40625 L 262.5 60.90625 L 112.5 60.90625 Z M 112.5 14.40625 " clip-rule="nonzero"/></clipPath></defs><path fill="#ffffff" d="M 64.539062 201.976562 C 62.824219 204.90625 59.746094 206.941406 56.214844 207.847656 L 56.214844 185.441406 C 57.320312 185.667969 58.332031 186.042969 59.210938 186.347656 C 62.28125 187.441406 68.691406 194.914062 64.539062 201.976562 Z M 41.023438 204.253906 C 33.691406 197.585938 30.707031 187.46875 38.546875 179.003906 C 42.175781 175.09375 47.433594 170.539062 52.617188 165.765625 L 52.617188 177.199219 C 45.8125 178.621094 41.816406 185.339844 42.003906 190.894531 C 42.210938 197.472656 45.089844 202.21875 47.496094 203.195312 C 47.496094 203.195312 49.074219 204.3125 49.75 202.828125 C 49.964844 202.3125 49.722656 201.847656 49.15625 201.40625 C 48.578125 200.976562 41.976562 196.757812 46.632812 190.054688 C 48.652344 187.15625 50.695312 185.875 52.617188 185.433594 L 52.617188 208.367188 C 48.5625 208.523438 44.3125 207.253906 41.023438 204.253906 Z M 65.722656 128.394531 C 72.859375 133.792969 63.386719 146.945312 56.214844 154.925781 L 56.214844 146.566406 C 57.398438 135.3125 60 124.0625 65.722656 128.394531 Z M 56.65625 177 C 56.507812 176.988281 56.363281 176.980469 56.214844 176.972656 L 56.214844 162.390625 C 60.917969 157.890625 65.203125 153.277344 67.71875 148.914062 C 74.8125 136.597656 73.804688 123.382812 65.644531 121.160156 C 57.5 118.921875 52.367188 139.179688 52.617188 148.867188 L 52.617188 158.722656 C 51.832031 159.5 51.160156 160.136719 50.640625 160.59375 C 44.542969 166.023438 31.113281 174.71875 29.421875 185.414062 C 27.167969 199.609375 40.640625 210.265625 52.617188 210.742188 L 52.617188 230.964844 C 52.617188 230.964844 52.003906 235.722656 47.316406 235.722656 C 39.550781 235.722656 38.613281 231.839844 38.613281 231.839844 C 38.613281 231.839844 44.320312 233.03125 46.488281 227.980469 C 46.488281 227.980469 48.898438 220.832031 41.738281 218.757812 C 34.59375 216.679688 31.078125 223.386719 32.148438 228.898438 C 33.070312 233.628906 37.390625 238.824219 47.066406 238.910156 C 55.144531 238.980469 56.214844 233.671875 56.214844 230.964844 L 56.214844 210.574219 C 57.054688 210.453125 57.878906 210.273438 58.675781 210.027344 C 71.523438 206.167969 73.453125 193.53125 72.003906 189.109375 C 70.269531 183.859375 65.878906 177.910156 56.65625 177 " fill-opacity="1" fill-rule="nonzero"/><path fill="#ffffff" d="M 359.480469 125.863281 C 354.871094 121.890625 354.421875 120.960938 354.058594 118.855469 L 354.058594 117.382812 L 352.855469 118.335938 L 352.855469 145.210938 C 352.667969 145.082031 350.019531 143.378906 346.234375 144.792969 C 342.304688 146.257812 343.347656 149.054688 343.949219 149.855469 C 344.609375 150.730469 347.890625 152.449219 351.855469 150.324219 C 351.855469 150.324219 354.09375 149.320312 354.0625 146.171875 C 354.058594 145.429688 354.070312 145.09375 354.058594 141.917969 L 354.058594 124.96875 C 355.339844 125.390625 364.78125 128.890625 359.886719 139.859375 C 359.886719 139.859375 366.644531 132.042969 359.480469 125.863281 " fill-opacity="1" fill-rule="nonzero"/><path fill="#ffffff" d="M 231.691406 175.078125 C 227.152344 171.164062 224.628906 168.722656 223.144531 166.753906 L 223.144531 156.742188 C 225.507812 157.511719 241.597656 163.476562 236.707031 181.402344 C 235.671875 179.261719 234.0625 177.121094 231.691406 175.078125 Z M 234.011719 158.535156 C 224.78125 150.574219 223.882812 148.710938 223.144531 144.484375 L 223.144531 141.539062 L 220.734375 143.445312 L 220.734375 197.300781 C 220.359375 197.046875 215.054688 193.625 207.472656 196.460938 C 199.59375 199.394531 201.6875 204.996094 202.890625 206.597656 C 204.207031 208.359375 210.800781 211.800781 218.746094 207.539062 C 218.746094 207.539062 223.214844 205.535156 223.160156 199.222656 C 223.140625 197.734375 223.175781 197.0625 223.144531 190.699219 L 223.144531 174.207031 C 228.738281 176.773438 240.738281 184.675781 232.507812 203.121094 C 232.507812 203.121094 241.082031 193.195312 237.34375 182.902344 C 240.421875 177.53125 244.089844 167.226562 234.011719 158.535156 " fill-opacity="1" fill-rule="nonzero"/><path fill="#ffffff" d="M 126.664062 233.269531 C 126.980469 232.148438 127.164062 230.851562 127.148438 229.367188 C 127.128906 227.5 127.136719 157.019531 127.136719 157.019531 L 124.109375 159.410156 L 124.109375 226.957031 C 124.070312 226.921875 123.972656 226.863281 123.835938 226.773438 C 121.09375 224.601562 116.710938 223.484375 111.964844 224.078125 C 104.460938 225.015625 98.890625 229.863281 99.519531 234.914062 C 100.152344 239.953125 106.746094 243.285156 114.25 242.34375 C 117.417969 241.949219 120.242188 240.855469 122.394531 239.347656 C 122.679688 239.15625 123.023438 238.90625 123.398438 238.578125 C 125.191406 237.054688 126.367188 235.214844 126.664062 233.269531 " fill-opacity="1" fill-rule="nonzero"/><path fill="#ffffff" d="M 268.628906 179.339844 C 265.292969 179.757812 262.363281 178.28125 262.082031 176.039062 C 261.800781 173.796875 264.277344 171.640625 267.613281 171.226562 C 270.949219 170.804688 273.875 172.285156 274.15625 174.53125 C 274.4375 176.773438 271.960938 178.921875 268.628906 179.339844 Z M 276.851562 128.066406 L 274.980469 129.546875 L 274.980469 171.359375 L 274.804688 171.253906 C 273.105469 169.90625 270.390625 169.21875 267.453125 169.585938 C 262.808594 170.164062 259.363281 173.167969 259.753906 176.289062 C 260.140625 179.414062 264.226562 181.472656 268.871094 180.890625 C 270.832031 180.648438 272.578125 179.96875 273.917969 179.035156 C 274.089844 178.914062 274.304688 178.761719 274.53125 178.558594 C 275.644531 177.621094 276.375 176.476562 276.5625 175.277344 C 276.75 174.578125 276.867188 173.777344 276.859375 172.859375 C 276.84375 171.703125 276.851562 128.066406 276.851562 128.066406 " fill-opacity="1" fill-rule="nonzero"/><path fill="#ffffff" d="M 164.757812 207.421875 C 159.660156 208.0625 155.175781 205.800781 154.746094 202.367188 C 154.316406 198.941406 158.101562 195.648438 163.203125 195.015625 C 168.300781 194.375 172.78125 196.640625 173.210938 200.0625 C 173.640625 203.488281 169.851562 206.785156 164.757812 207.421875 Z M 177.332031 129 L 174.46875 131.269531 L 174.46875 195.222656 C 174.425781 195.199219 174.339844 195.136719 174.195312 195.054688 C 171.605469 192.996094 167.457031 191.941406 162.964844 192.503906 C 155.855469 193.390625 150.582031 197.980469 151.179688 202.761719 C 151.777344 207.535156 158.019531 210.6875 165.132812 209.796875 C 168.128906 209.425781 170.796875 208.386719 172.839844 206.957031 C 173.109375 206.777344 173.433594 206.542969 173.785156 206.230469 C 175.484375 204.792969 176.597656 203.046875 176.882812 201.207031 C 177.175781 200.144531 177.355469 198.917969 177.34375 197.507812 C 177.316406 195.742188 177.332031 129 177.332031 129 " fill-opacity="1" fill-rule="nonzero"/><path fill="#ffffff" d="M 328.527344 155.515625 L 328.527344 121.527344 L 301.890625 125.835938 L 301.890625 158.644531 C 300.722656 158.152344 299.261719 157.945312 297.710938 158.140625 C 294.277344 158.570312 291.726562 160.789062 292.011719 163.101562 C 292.300781 165.40625 295.320312 166.933594 298.757812 166.503906 C 300.210938 166.324219 301.5 165.820312 302.488281 165.125 C 302.621094 165.039062 302.777344 164.925781 302.949219 164.777344 C 303.773438 164.078125 304.304688 163.238281 304.445312 162.351562 C 304.585938 161.835938 304.671875 161.238281 304.664062 160.558594 C 304.664062 160.476562 304.664062 160.109375 304.664062 159.511719 L 304.664062 134.703125 L 325.753906 131.015625 L 325.753906 154.644531 C 324.589844 154.152344 323.125 153.945312 321.582031 154.144531 C 318.144531 154.570312 315.597656 156.792969 315.882812 159.101562 C 316.171875 161.410156 319.191406 162.933594 322.625 162.507812 C 324.074219 162.324219 325.367188 161.820312 326.363281 161.132812 C 326.488281 161.042969 326.644531 160.929688 326.8125 160.777344 C 327.636719 160.082031 328.171875 159.238281 328.308594 158.351562 C 328.445312 157.867188 328.523438 157.3125 328.527344 156.683594 L 328.527344 156.566406 C 328.527344 156.480469 328.527344 156.113281 328.527344 155.515625 " fill-opacity="1" fill-rule="nonzero"/><g clip-path="url(#edc2bed410)"><path fill="#ffffff" d="M 375.054688 116.871094 C 250.054688 111.683594 125.046875 209.769531 0.046875 105.6875 L 0.046875 109.28125 C 125.046875 212.453125 250.054688 113.464844 375.054688 117.746094 L 375.054688 116.871094 " fill-opacity="1" fill-rule="nonzero"/></g><path fill="#ffffff" d="M 375.054688 123.871094 C 250.054688 125.890625 125.046875 231.1875 0.046875 134.320312 L 0.046875 137.902344 C 125.046875 233.871094 250.054688 127.671875 375.054688 124.746094 L 375.054688 123.871094 " fill-opacity="1" fill-rule="nonzero"/><path fill="#ffffff" d="M 375.054688 130.871094 C 250.054688 140.101562 125.046875 252.605469 0.046875 162.941406 L 0.046875 166.53125 C 125.046875 255.285156 250.054688 141.878906 375.054688 131.746094 L 375.054688 130.871094 " fill-opacity="1" fill-rule="nonzero"/><path fill="#ffffff" d="M 375.054688 137.871094 C 250.054688 154.308594 125.046875 274.023438 0.046875 191.570312 L 0.046875 195.152344 C 125.046875 276.703125 250.054688 156.089844 375.054688 138.746094 L 375.054688 137.871094 " fill-opacity="1" fill-rule="nonzero"/><path fill="#ffffff" d="M 375.054688 144.871094 C 250.054688 168.519531 125.046875 295.4375 0.046875 220.195312 L 0.046875 223.78125 C 125.046875 298.121094 250.054688 170.296875 375.054688 145.746094 L 375.054688 144.871094 " fill-opacity="1" fill-rule="nonzero"/><g clip-path="url(#d6db4a8173)"><path fill="#000000" d="M 233.105469 39 L 233.105469 51.351562 L 231.367188 51.351562 L 231.367188 45.976562 L 221.257812 51.835938 L 221.257812 38.515625 L 231.394531 44.40625 L 231.394531 39 Z M 141.835938 39 L 141.835938 51.351562 L 143.574219 51.351562 L 143.574219 45.976562 L 153.683594 51.835938 L 153.683594 38.515625 L 143.574219 44.40625 L 143.574219 39 Z M 187.484375 29.425781 C 178.847656 29.425781 171.859375 36.464844 171.859375 45.160156 C 171.859375 53.859375 178.847656 60.894531 187.484375 60.894531 C 196.125 60.894531 203.113281 53.859375 203.113281 45.160156 C 203.113281 36.492188 196.125 29.425781 187.484375 29.425781 Z M 184.066406 51.835938 L 184.066406 38.515625 L 195.523438 45.191406 Z M 259.261719 39.875 L 259.261719 41.597656 L 251.402344 41.597656 L 250.472656 43.652344 L 251.3125 44.316406 L 252.003906 42.894531 L 259.289062 42.894531 L 259.289062 44.585938 L 262.5 42.203125 Z M 253.652344 50.476562 L 253.652344 48.753906 L 261.539062 48.753906 L 262.46875 46.699219 L 261.628906 46.035156 L 260.96875 47.425781 L 253.652344 47.425781 L 253.652344 45.734375 L 250.472656 48.121094 Z M 262.46875 17.890625 L 138.863281 17.890625 C 138.386719 15.746094 136.285156 14.417969 134.15625 14.902344 C 132.6875 15.234375 131.515625 16.410156 131.1875 17.890625 L 112.5 17.890625 L 112.5 19.640625 L 131.1875 19.640625 C 131.667969 21.785156 133.765625 23.113281 135.894531 22.632812 C 137.363281 22.300781 138.535156 21.121094 138.863281 19.640625 L 262.46875 19.640625 Z M 122.367188 47.457031 L 120.179688 47.457031 L 119.128906 45.160156 L 120.179688 42.867188 L 122.367188 42.867188 L 122.367188 44.675781 L 125.578125 42.292969 L 122.367188 39.90625 L 122.367188 41.71875 L 119.457031 41.71875 L 118.5 43.800781 L 117.539062 41.75 L 112.5 41.75 L 112.5 42.894531 L 116.820312 42.894531 L 117.867188 45.191406 L 116.820312 47.484375 L 112.5 47.484375 L 112.5 48.632812 L 117.570312 48.632812 L 118.527344 46.582031 L 119.488281 48.632812 L 122.398438 48.632812 L 122.398438 50.445312 L 125.605469 48.058594 L 122.429688 45.675781 L 122.429688 47.457031 Z M 122.367188 47.457031 " fill-opacity="1" fill-rule="nonzero"/></g></svg>