<svg xmlns="http://www.w3.org/2000/svg" xmlns:xlink="http://www.w3.org/1999/xlink" width="500" zoomAndPan="magnify" viewBox="0 0 375 374.999991" height="500" preserveAspectRatio="xMidYMid meet" version="1.0"><path fill="#ef4138" d="M 360.058594 100.539062 C 355.957031 85.1875 343.863281 73.101562 328.515625 68.996094 C 300.6875 61.542969 189.105469 61.542969 189.105469 61.542969 C 189.105469 61.542969 77.527344 61.542969 49.699219 68.996094 C 34.347656 73.101562 22.257812 85.1875 18.152344 100.539062 C 10.699219 128.363281 10.699219 186.414062 10.699219 186.414062 C 10.699219 186.414062 10.699219 244.464844 18.152344 272.285156 C 22.257812 287.636719 34.347656 299.726562 49.699219 303.832031 C 77.527344 311.285156 189.105469 311.285156 189.105469 311.285156 C 189.105469 311.285156 300.6875 311.285156 328.515625 303.832031 C 343.863281 299.726562 355.957031 287.636719 360.058594 272.285156 C 367.515625 244.464844 367.515625 186.414062 367.515625 186.414062 C 367.515625 186.414062 367.515625 128.363281 360.058594 100.539062 " fill-opacity="1" fill-rule="nonzero"/><path fill="#ffffff" d="M 153.425781 239.929688 L 246.125 186.414062 L 153.425781 132.898438 Z M 153.425781 239.929688 " fill-opacity="1" fill-rule="nonzero"/></svg>